<?xml version="1.0" encoding="utf-8" standalone="no"?>
<!DOCTYPE svg PUBLIC "-//W3C//DTD SVG 1.1//EN"
  "http://www.w3.org/Graphics/SVG/1.1/DTD/svg11.dtd">
<svg xmlns:xlink="http://www.w3.org/1999/xlink" width="469.932813pt" height="296.876812pt" viewBox="0 0 469.932813 296.876812" xmlns="http://www.w3.org/2000/svg" version="1.1">
 <metadata>
  <rdf:RDF xmlns:dc="http://purl.org/dc/elements/1.1/" xmlns:cc="http://creativecommons.org/ns#" xmlns:rdf="http://www.w3.org/1999/02/22-rdf-syntax-ns#">
   <cc:Work>
    <dc:type rdf:resource="http://purl.org/dc/dcmitype/StillImage"/>
    <dc:date>2026-05-19T19:30:47.499808</dc:date>
    <dc:format>image/svg+xml</dc:format>
    <dc:creator>
     <cc:Agent>
      <dc:title>Matplotlib v3.10.8, https://matplotlib.org/</dc:title>
     </cc:Agent>
    </dc:creator>
   </cc:Work>
  </rdf:RDF>
 </metadata>
 <defs>
  <style type="text/css">*{stroke-linejoin: round; stroke-linecap: butt}</style>
 </defs>
 <g id="figure_1">
  <g id="patch_1">
   <path d="M 0 296.876812 
L 469.932813 296.876812 
L 469.932813 0 
L 0 0 
z
" style="fill: #ffffff"/>
  </g>
  <g id="axes_1">
   <g id="patch_2">
    <path d="M 49.812813 262.224 
L 462.732813 262.224 
L 462.732813 7.2 
L 49.812813 7.2 
z
" style="fill: #ffffff"/>
   </g>
   <g id="matplotlib.axis_1">
    <g id="xtick_1">
     <g id="line2d_1">
      <path d="M 96.42392 262.224 
L 96.42392 7.2 
" clip-path="url(#p9d0c5351eb)" style="fill: none; stroke-dasharray: 1.85,0.8; stroke-dashoffset: 0; stroke: #d4dae2; stroke-width: 0.5"/>
     </g>
     <g id="line2d_2">
      <defs>
       <path id="m96fcd60568" d="M 0 0 
L 0 3.5 
" style="stroke: #000000; stroke-width: 0.8"/>
      </defs>
      <g>
       <use xlink:href="#m96fcd60568" x="96.42392" y="262.224" style="stroke: #000000; stroke-width: 0.8"/>
      </g>
     </g>
     <g id="text_1">
      <text style="font-size: 8px; font-family: 'DejaVu Sans'; text-anchor: middle" x="96.42392" y="275.30275" transform="rotate(-0 96.42392 275.30275)">−10</text>
     </g>
    </g>
    <g id="xtick_2">
     <g id="line2d_3">
      <path d="M 176.348366 262.224 
L 176.348366 7.2 
" clip-path="url(#p9d0c5351eb)" style="fill: none; stroke-dasharray: 1.85,0.8; stroke-dashoffset: 0; stroke: #d4dae2; stroke-width: 0.5"/>
     </g>
     <g id="line2d_4">
      <g>
       <use xlink:href="#m96fcd60568" x="176.348366" y="262.224" style="stroke: #000000; stroke-width: 0.8"/>
      </g>
     </g>
     <g id="text_2">
      <text style="font-size: 8px; font-family: 'DejaVu Sans'; text-anchor: middle" x="176.348366" y="275.30275" transform="rotate(-0 176.348366 275.30275)">−5</text>
     </g>
    </g>
    <g id="xtick_3">
     <g id="line2d_5">
      <path d="M 256.272813 262.224 
L 256.272813 7.2 
" clip-path="url(#p9d0c5351eb)" style="fill: none; stroke-dasharray: 1.85,0.8; stroke-dashoffset: 0; stroke: #d4dae2; stroke-width: 0.5"/>
     </g>
     <g id="line2d_6">
      <g>
       <use xlink:href="#m96fcd60568" x="256.272813" y="262.224" style="stroke: #000000; stroke-width: 0.8"/>
      </g>
     </g>
     <g id="text_3">
      <text style="font-size: 8px; font-family: 'DejaVu Sans'; text-anchor: middle" x="256.272813" y="275.30275" transform="rotate(-0 256.272813 275.30275)">0</text>
     </g>
    </g>
    <g id="xtick_4">
     <g id="line2d_7">
      <path d="M 336.197259 262.224 
L 336.197259 7.2 
" clip-path="url(#p9d0c5351eb)" style="fill: none; stroke-dasharray: 1.85,0.8; stroke-dashoffset: 0; stroke: #d4dae2; stroke-width: 0.5"/>
     </g>
     <g id="line2d_8">
      <g>
       <use xlink:href="#m96fcd60568" x="336.197259" y="262.224" style="stroke: #000000; stroke-width: 0.8"/>
      </g>
     </g>
     <g id="text_4">
      <text style="font-size: 8px; font-family: 'DejaVu Sans'; text-anchor: middle" x="336.197259" y="275.30275" transform="rotate(-0 336.197259 275.30275)">5</text>
     </g>
    </g>
    <g id="xtick_5">
     <g id="line2d_9">
      <path d="M 416.121705 262.224 
L 416.121705 7.2 
" clip-path="url(#p9d0c5351eb)" style="fill: none; stroke-dasharray: 1.85,0.8; stroke-dashoffset: 0; stroke: #d4dae2; stroke-width: 0.5"/>
     </g>
     <g id="line2d_10">
      <g>
       <use xlink:href="#m96fcd60568" x="416.121705" y="262.224" style="stroke: #000000; stroke-width: 0.8"/>
      </g>
     </g>
     <g id="text_5">
      <text style="font-size: 8px; font-family: 'DejaVu Sans'; text-anchor: middle" x="416.121705" y="275.30275" transform="rotate(-0 416.121705 275.30275)">10</text>
     </g>
    </g>
    <g id="text_6">
     <text style="font-size: 9px; font-family: 'DejaVu Sans'; text-anchor: middle" x="256.272813" y="287.805094" transform="rotate(-0 256.272813 287.805094)">Относительный угол по внешней дуге, град</text>
    </g>
   </g>
   <g id="matplotlib.axis_2">
    <g id="ytick_1">
     <g id="line2d_11">
      <path d="M 49.812813 250.632 
L 462.732813 250.632 
" clip-path="url(#p9d0c5351eb)" style="fill: none; stroke-dasharray: 1.85,0.8; stroke-dashoffset: 0; stroke: #d4dae2; stroke-width: 0.5"/>
     </g>
     <g id="line2d_12">
      <defs>
       <path id="m9cb1be489b" d="M 0 0 
L -3.5 0 
" style="stroke: #000000; stroke-width: 0.8"/>
      </defs>
      <g>
       <use xlink:href="#m9cb1be489b" x="49.812813" y="250.632" style="stroke: #000000; stroke-width: 0.8"/>
      </g>
     </g>
     <g id="text_7">
      <text style="font-size: 8px; font-family: 'DejaVu Sans'; text-anchor: end" x="42.812813" y="253.671375" transform="rotate(-0 42.812813 253.671375)">0.000</text>
     </g>
    </g>
    <g id="ytick_2">
     <g id="line2d_13">
      <path d="M 49.812813 203.668673 
L 462.732813 203.668673 
" clip-path="url(#p9d0c5351eb)" style="fill: none; stroke-dasharray: 1.85,0.8; stroke-dashoffset: 0; stroke: #d4dae2; stroke-width: 0.5"/>
     </g>
     <g id="line2d_14">
      <g>
       <use xlink:href="#m9cb1be489b" x="49.812813" y="203.668673" style="stroke: #000000; stroke-width: 0.8"/>
      </g>
     </g>
     <g id="text_8">
      <text style="font-size: 8px; font-family: 'DejaVu Sans'; text-anchor: end" x="42.812813" y="206.708048" transform="rotate(-0 42.812813 206.708048)">0.002</text>
     </g>
    </g>
    <g id="ytick_3">
     <g id="line2d_15">
      <path d="M 49.812813 156.705345 
L 462.732813 156.705345 
" clip-path="url(#p9d0c5351eb)" style="fill: none; stroke-dasharray: 1.85,0.8; stroke-dashoffset: 0; stroke: #d4dae2; stroke-width: 0.5"/>
     </g>
     <g id="line2d_16">
      <g>
       <use xlink:href="#m9cb1be489b" x="49.812813" y="156.705345" style="stroke: #000000; stroke-width: 0.8"/>
      </g>
     </g>
     <g id="text_9">
      <text style="font-size: 8px; font-family: 'DejaVu Sans'; text-anchor: end" x="42.812813" y="159.74472" transform="rotate(-0 42.812813 159.74472)">0.004</text>
     </g>
    </g>
    <g id="ytick_4">
     <g id="line2d_17">
      <path d="M 49.812813 109.742018 
L 462.732813 109.742018 
" clip-path="url(#p9d0c5351eb)" style="fill: none; stroke-dasharray: 1.85,0.8; stroke-dashoffset: 0; stroke: #d4dae2; stroke-width: 0.5"/>
     </g>
     <g id="line2d_18">
      <g>
       <use xlink:href="#m9cb1be489b" x="49.812813" y="109.742018" style="stroke: #000000; stroke-width: 0.8"/>
      </g>
     </g>
     <g id="text_10">
      <text style="font-size: 8px; font-family: 'DejaVu Sans'; text-anchor: end" x="42.812813" y="112.781393" transform="rotate(-0 42.812813 112.781393)">0.006</text>
     </g>
    </g>
    <g id="ytick_5">
     <g id="line2d_19">
      <path d="M 49.812813 62.778691 
L 462.732813 62.778691 
" clip-path="url(#p9d0c5351eb)" style="fill: none; stroke-dasharray: 1.85,0.8; stroke-dashoffset: 0; stroke: #d4dae2; stroke-width: 0.5"/>
     </g>
     <g id="line2d_20">
      <g>
       <use xlink:href="#m9cb1be489b" x="49.812813" y="62.778691" style="stroke: #000000; stroke-width: 0.8"/>
      </g>
     </g>
     <g id="text_11">
      <text style="font-size: 8px; font-family: 'DejaVu Sans'; text-anchor: end" x="42.812813" y="65.818066" transform="rotate(-0 42.812813 65.818066)">0.008</text>
     </g>
    </g>
    <g id="ytick_6">
     <g id="line2d_21">
      <path d="M 49.812813 15.815364 
L 462.732813 15.815364 
" clip-path="url(#p9d0c5351eb)" style="fill: none; stroke-dasharray: 1.85,0.8; stroke-dashoffset: 0; stroke: #d4dae2; stroke-width: 0.5"/>
     </g>
     <g id="line2d_22">
      <g>
       <use xlink:href="#m9cb1be489b" x="49.812813" y="15.815364" style="stroke: #000000; stroke-width: 0.8"/>
      </g>
     </g>
     <g id="text_12">
      <text style="font-size: 8px; font-family: 'DejaVu Sans'; text-anchor: end" x="42.812813" y="18.854739" transform="rotate(-0 42.812813 18.854739)">0.010</text>
     </g>
    </g>
    <g id="text_13">
     <text style="font-size: 9px; font-family: 'DejaVu Sans'; text-anchor: middle" x="14.038594" y="134.712" transform="rotate(-90 14.038594 134.712)">Нормальная сила на участке, кН</text>
    </g>
   </g>
   <g id="line2d_23">
    <path d="M 68.581903 250.632 
L 81.001297 250.632 
L 93.420688 93.524943 
L 105.840038 106.691892 
L 118.259025 71.117818 
L 130.675289 41.862623 
L 143.074815 43.168105 
L 155.39129 22.273961 
L 167.391259 18.792 
L 178.542516 30.518375 
L 188.191502 74.423535 
L 196.051503 98.379384 
L 202.33661 124.869371 
L 207.444752 148.325822 
L 211.715093 163.529378 
L 215.384953 173.424447 
L 218.612811 181.982514 
L 221.506082 187.793026 
L 224.139876 193.97977 
L 226.567564 196.099914 
L 228.828972 200.321275 
L 230.953795 203.739426 
L 232.965301 204.460458 
L 234.88181 207.426744 
L 236.717837 208.654124 
L 238.485707 210.620853 
L 240.195826 210.980998 
L 241.856236 212.517032 
L 243.474358 213.24006 
L 245.056803 214.009697 
L 246.608889 214.616344 
L 248.135891 215.124189 
L 249.642368 215.535024 
L 251.132371 215.859098 
L 252.609802 216.09658 
L 254.078465 216.251652 
L 255.541937 216.328613 
L 257.003688 216.328613 
L 258.46716 216.251652 
L 259.935823 216.09658 
L 261.413254 215.859098 
L 262.903257 215.535024 
L 264.409734 215.124189 
L 265.936736 214.616344 
L 267.488822 214.009697 
L 269.071267 213.24006 
L 270.689389 212.517032 
L 272.349799 210.980998 
L 274.059918 210.620853 
L 275.827788 208.654124 
L 277.663815 207.426744 
L 279.580324 204.460458 
L 281.59183 203.739426 
L 283.716653 200.321275 
L 285.978061 196.099914 
L 288.405749 193.97977 
L 291.039543 187.793026 
L 293.932814 181.982514 
L 297.160672 173.424447 
L 300.830532 163.529378 
L 305.100873 148.325822 
L 310.209015 124.869371 
L 316.494122 98.379384 
L 324.354123 74.423535 
L 334.003109 30.518375 
L 345.154366 18.792 
L 357.154335 22.273961 
L 369.47081 43.168105 
L 381.870336 41.862623 
L 394.2866 71.117818 
L 406.705587 106.691892 
L 419.124937 93.524943 
L 431.544328 250.632 
L 443.963722 250.632 
" clip-path="url(#p9d0c5351eb)" style="fill: none; stroke: #3f6f4f; stroke-width: 1.05; stroke-linecap: square"/>
   </g>
   <g id="line2d_24">
    <path d="M 68.581903 250.632 
L 81.001297 250.632 
L 93.420688 250.632 
L 105.840038 210.372957 
L 118.259025 170.441499 
L 130.675289 133.999237 
L 143.074815 101.349753 
L 155.39129 74.017346 
L 167.391259 57.140927 
L 178.542516 59.332302 
L 188.191502 80.970962 
L 196.051503 109.090402 
L 202.33661 133.388248 
L 207.444752 151.724979 
L 211.715093 165.230482 
L 215.384953 175.258931 
L 218.612811 182.931838 
L 221.506082 188.875136 
L 224.139876 193.623147 
L 226.567564 197.453616 
L 228.828972 200.600281 
L 230.953795 203.225057 
L 232.965301 205.416271 
L 234.88181 207.28271 
L 236.717837 208.869671 
L 238.485707 210.217599 
L 240.195826 211.363504 
L 241.856236 212.371674 
L 243.474358 213.200277 
L 245.056803 213.923887 
L 246.608889 214.524348 
L 248.135891 215.018918 
L 249.642368 215.421434 
L 251.132371 215.740109 
L 252.609802 215.972373 
L 254.078465 216.124366 
L 255.541937 216.199865 
L 257.003688 216.199865 
L 258.46716 216.124366 
L 259.935823 215.972373 
L 261.413254 215.740109 
L 262.903257 215.421434 
L 264.409734 215.018918 
L 265.936736 214.524348 
L 267.488822 213.923887 
L 269.071267 213.200277 
L 270.689389 212.371674 
L 272.349799 211.363504 
L 274.059918 210.217599 
L 275.827788 208.869671 
L 277.663815 207.28271 
L 279.580324 205.416271 
L 281.59183 203.225057 
L 283.716653 200.600281 
L 285.978061 197.453616 
L 288.405749 193.623147 
L 291.039543 188.875136 
L 293.932814 182.931838 
L 297.160672 175.258931 
L 300.830532 165.230482 
L 305.100873 151.724979 
L 310.209015 133.388248 
L 316.494122 109.090402 
L 324.354123 80.970962 
L 334.003109 59.332302 
L 345.154366 57.140927 
L 357.154335 74.017346 
L 369.47081 101.349753 
L 381.870336 133.999237 
L 394.2866 170.441499 
L 406.705587 210.372957 
L 419.124937 250.632 
L 431.544328 250.632 
L 443.963722 250.632 
" clip-path="url(#p9d0c5351eb)" style="fill: none; stroke-dasharray: 3.885,1.68; stroke-dashoffset: 0; stroke: #8f2f2f; stroke-width: 1.05"/>
   </g>
   <g id="patch_3">
    <path d="M 49.812813 262.224 
L 49.812813 7.2 
" style="fill: none; stroke: #202020; stroke-width: 0.8; stroke-linejoin: miter; stroke-linecap: square"/>
   </g>
   <g id="patch_4">
    <path d="M 462.732813 262.224 
L 462.732813 7.2 
" style="fill: none; stroke: #202020; stroke-width: 0.8; stroke-linejoin: miter; stroke-linecap: square"/>
   </g>
   <g id="patch_5">
    <path d="M 49.812813 262.224 
L 462.732813 262.224 
" style="fill: none; stroke: #202020; stroke-width: 0.8; stroke-linejoin: miter; stroke-linecap: square"/>
   </g>
   <g id="patch_6">
    <path d="M 49.812813 7.2 
L 462.732813 7.2 
" style="fill: none; stroke: #202020; stroke-width: 0.8; stroke-linejoin: miter; stroke-linecap: square"/>
   </g>
   <g id="legend_1">
    <g id="patch_7">
     <path d="M 191.319063 258.224 
L 321.226562 258.224 
Q 322.826563 258.224 322.826563 256.624 
L 322.826563 233.939 
Q 322.826563 232.339 321.226562 232.339 
L 191.319063 232.339 
Q 189.719063 232.339 189.719063 233.939 
L 189.719063 256.624 
Q 189.719063 258.224 191.319063 258.224 
z
" style="fill: #ffffff; opacity: 0.8; stroke: #cccccc; stroke-linejoin: miter"/>
    </g>
    <g id="line2d_25">
     <path d="M 192.919063 238.81775 
L 200.919063 238.81775 
L 208.919063 238.81775 
" style="fill: none; stroke: #3f6f4f; stroke-width: 1.05; stroke-linecap: square"/>
    </g>
    <g id="text_14">
     <text style="font-size: 8px; font-family: 'DejaVu Sans'; text-anchor: start" x="215.319063" y="241.61775" transform="rotate(-0 215.319063 241.61775)">контактная сила AL</text>
    </g>
    <g id="line2d_26">
     <path d="M 192.919063 250.56025 
L 200.919063 250.56025 
L 208.919063 250.56025 
" style="fill: none; stroke-dasharray: 3.885,1.68; stroke-dashoffset: 0; stroke: #8f2f2f; stroke-width: 1.05"/>
    </g>
    <g id="text_15">
     <text style="font-size: 8px; font-family: 'DejaVu Sans'; text-anchor: start" x="215.319063" y="253.36025" transform="rotate(-0 215.319063 253.36025)">эквивалентная нагрузка</text>
    </g>
   </g>
  </g>
 </g>
 <defs>
  <clipPath id="p9d0c5351eb">
   <rect x="49.812813" y="7.2" width="412.92" height="255.024"/>
  </clipPath>
 </defs>
</svg>
