<?xml version="1.0" encoding="utf-8" standalone="no"?>
<!DOCTYPE svg PUBLIC "-//W3C//DTD SVG 1.1//EN"
  "http://www.w3.org/Graphics/SVG/1.1/DTD/svg11.dtd">
<svg xmlns:xlink="http://www.w3.org/1999/xlink" width="483.12pt" height="275.697931pt" viewBox="0 0 483.12 275.697931" xmlns="http://www.w3.org/2000/svg" version="1.1">
 <metadata>
  <rdf:RDF xmlns:dc="http://purl.org/dc/elements/1.1/" xmlns:cc="http://creativecommons.org/ns#" xmlns:rdf="http://www.w3.org/1999/02/22-rdf-syntax-ns#">
   <cc:Work>
    <dc:type rdf:resource="http://purl.org/dc/dcmitype/StillImage"/>
    <dc:date>2026-05-19T01:26:16.753383</dc:date>
    <dc:format>image/svg+xml</dc:format>
    <dc:creator>
     <cc:Agent>
      <dc:title>Matplotlib v3.10.8, https://matplotlib.org/</dc:title>
     </cc:Agent>
    </dc:creator>
   </cc:Work>
  </rdf:RDF>
 </metadata>
 <defs>
  <style type="text/css">*{stroke-linejoin: round; stroke-linecap: butt}</style>
 </defs>
 <g id="figure_1">
  <g id="patch_1">
   <path d="M 0 275.697931 
L 483.12 275.697931 
L 483.12 0 
L 0 0 
z
" style="fill: #ffffff"/>
  </g>
  <g id="axes_1">
   <g id="patch_2">
    <path d="M 160.746207 198.355665 
C 185.314876 212.540392 213.190545 220.009655 241.56 220.009655 
C 269.929455 220.009655 297.805124 212.540392 322.373793 198.355665 
L 308.904828 175.026732 
C 288.430937 186.847338 265.201212 193.071724 241.56 193.071724 
C 217.918788 193.071724 194.689063 186.847338 174.215172 175.026732 
z
" clip-path="url(#p9ecee2b323)" style="fill: #f6f7f8; stroke: #202020; stroke-width: 1.05; stroke-linejoin: miter"/>
   </g>
   <g id="patch_3">
    <path d="M 223.376897 89.876128 
C 228.904847 93.067692 235.176873 94.748276 241.56 94.748276 
C 247.943127 94.748276 254.215153 93.067692 259.743103 89.876128 
" clip-path="url(#p9ecee2b323)" style="fill: none; stroke: #2f5f8f; stroke-width: 0.75; stroke-linejoin: miter"/>
   </g>
   <g id="line2d_1">
    <path d="M 174.215172 175.026732 
L 175.452755 175.73255 
L 176.697735 176.425238 
L 177.949972 177.104719 
L 179.209326 177.770915 
L 180.475656 178.423754 
L 181.748821 179.063161 
L 183.028678 179.689066 
L 184.315084 180.301398 
L 185.607895 180.900089 
L 186.906967 181.485071 
L 188.212153 182.05628 
L 189.523308 182.613651 
L 190.840286 183.157122 
L 192.162938 183.686632 
L 193.491118 184.202122 
L 194.824676 184.703535 
L 196.163463 185.190813 
L 197.507329 185.663903 
L 198.856124 186.122752 
L 200.209697 186.567309 
L 201.567897 186.997523 
L 202.930571 187.413346 
L 204.297568 187.814732 
L 205.668734 188.201637 
L 207.043916 188.574016 
L 208.422959 188.931829 
L 209.80571 189.275034 
L 211.192014 189.603594 
L 212.581716 189.917472 
L 213.974661 190.216633 
L 215.370691 190.501043 
L 216.769652 190.770671 
L 218.171387 191.025486 
L 219.575738 191.265459 
L 220.98255 191.490565 
L 222.391664 191.700778 
L 223.802922 191.896073 
L 225.216167 192.076431 
L 226.631241 192.241829 
L 228.047985 192.39225 
L 229.466241 192.527677 
L 230.885851 192.648095 
L 232.306654 192.75349 
L 233.728493 192.843851 
L 235.151208 192.919166 
L 236.57464 192.979429 
L 237.99863 193.024632 
L 239.423019 193.05477 
L 240.847646 193.06984 
L 242.272354 193.06984 
L 243.696981 193.05477 
L 245.12137 193.024632 
L 246.54536 192.979429 
L 247.968792 192.919166 
L 249.391507 192.843851 
L 250.813346 192.75349 
L 252.234149 192.648095 
L 253.653759 192.527677 
L 255.072015 192.39225 
L 256.488759 192.241829 
L 257.903833 192.076431 
L 259.317078 191.896073 
L 260.728336 191.700778 
L 262.13745 191.490565 
L 263.544262 191.265459 
L 264.948613 191.025486 
L 266.350348 190.770671 
L 267.749309 190.501043 
L 269.145339 190.216633 
L 270.538284 189.917472 
L 271.927986 189.603594 
L 273.31429 189.275034 
L 274.697041 188.931829 
L 276.076084 188.574016 
L 277.451266 188.201637 
L 278.822432 187.814732 
L 280.189429 187.413346 
L 281.552103 186.997523 
L 282.910303 186.567309 
L 284.263876 186.122752 
L 285.612671 185.663903 
L 286.956537 185.190813 
L 288.295324 184.703535 
L 289.628882 184.202122 
L 290.957062 183.686632 
L 292.279714 183.157122 
L 293.596692 182.613651 
L 294.907847 182.05628 
L 296.213033 181.485071 
L 297.512105 180.900089 
L 298.804916 180.301398 
L 300.091322 179.689066 
L 301.371179 179.063161 
L 302.644344 178.423754 
L 303.910674 177.770915 
L 305.170028 177.104719 
L 306.422265 176.425238 
L 307.667245 175.73255 
L 308.904828 175.026732 
" clip-path="url(#p9ecee2b323)" style="fill: none; stroke: #bfc5cc; stroke-width: 0.45; stroke-linecap: square"/>
   </g>
   <g id="line2d_2">
    <path d="M 170.847931 180.858965 
L 172.147393 181.600074 
L 173.454622 182.327397 
L 174.76947 183.040851 
L 176.091792 183.740358 
L 177.421439 184.425838 
L 178.758262 185.097216 
L 180.102112 185.754416 
L 181.452838 186.397365 
L 182.81029 187.02599 
L 184.174315 187.640221 
L 185.544761 188.23999 
L 186.921474 188.82523 
L 188.3043 189.395874 
L 189.693085 189.95186 
L 191.087674 190.493125 
L 192.487909 191.019608 
L 193.893636 191.53125 
L 195.304695 192.027995 
L 196.72093 192.509786 
L 198.142182 192.976571 
L 199.568292 193.428295 
L 200.9991 193.86491 
L 202.434447 194.286366 
L 203.874171 194.692615 
L 205.318111 195.083614 
L 206.766107 195.459317 
L 208.217996 195.819682 
L 209.673615 196.16467 
L 211.132802 196.494242 
L 212.595394 196.808361 
L 214.061226 197.106992 
L 215.530135 197.390101 
L 217.001956 197.657656 
L 218.476525 197.909629 
L 219.953677 198.14599 
L 221.433247 198.366713 
L 222.915068 198.571774 
L 224.398976 198.761149 
L 225.884803 198.934817 
L 227.372385 199.092759 
L 228.861553 199.234958 
L 230.352143 199.361396 
L 231.843987 199.472061 
L 233.336918 199.56694 
L 234.830769 199.646021 
L 236.325372 199.709297 
L 237.820562 199.75676 
L 239.31617 199.788406 
L 240.812029 199.804229 
L 242.307971 199.804229 
L 243.80383 199.788406 
L 245.299438 199.75676 
L 246.794628 199.709297 
L 248.289231 199.646021 
L 249.783082 199.56694 
L 251.276013 199.472061 
L 252.767857 199.361396 
L 254.258447 199.234958 
L 255.747615 199.092759 
L 257.235197 198.934817 
L 258.721024 198.761149 
L 260.204932 198.571774 
L 261.686753 198.366713 
L 263.166323 198.14599 
L 264.643475 197.909629 
L 266.118044 197.657656 
L 267.589865 197.390101 
L 269.058774 197.106992 
L 270.524606 196.808361 
L 271.987198 196.494242 
L 273.446385 196.16467 
L 274.902004 195.819682 
L 276.353893 195.459317 
L 277.801889 195.083614 
L 279.245829 194.692615 
L 280.685553 194.286366 
L 282.1209 193.86491 
L 283.551708 193.428295 
L 284.977818 192.976571 
L 286.39907 192.509786 
L 287.815305 192.027995 
L 289.226364 191.53125 
L 290.632091 191.019608 
L 292.032326 190.493125 
L 293.426915 189.95186 
L 294.8157 189.395874 
L 296.198526 188.82523 
L 297.575239 188.23999 
L 298.945685 187.640221 
L 300.30971 187.02599 
L 301.667162 186.397365 
L 303.017888 185.754416 
L 304.361738 185.097216 
L 305.698561 184.425838 
L 307.028208 183.740358 
L 308.35053 183.040851 
L 309.665378 182.327397 
L 310.972607 181.600074 
L 312.272069 180.858965 
" clip-path="url(#p9ecee2b323)" style="fill: none; stroke: #bfc5cc; stroke-width: 0.45; stroke-linecap: square"/>
   </g>
   <g id="line2d_3">
    <path d="M 167.48069 186.691198 
L 168.842031 187.467598 
L 170.211508 188.229555 
L 171.588969 188.976983 
L 172.974258 189.7098 
L 174.367222 190.427923 
L 175.767703 191.131271 
L 177.175546 191.819766 
L 178.590593 192.493331 
L 180.012685 193.151891 
L 181.441663 193.795371 
L 182.877368 194.423701 
L 184.319639 195.036809 
L 185.768314 195.634627 
L 187.223232 196.217088 
L 188.68423 196.784127 
L 190.151143 197.335681 
L 191.623809 197.871688 
L 193.102062 198.392087 
L 194.585736 198.896821 
L 196.074667 199.385833 
L 197.568687 199.859068 
L 199.067629 200.316474 
L 200.571325 200.757999 
L 202.079607 201.183594 
L 203.592307 201.593211 
L 205.109255 201.986805 
L 206.630281 202.36433 
L 208.155216 202.725747 
L 209.683888 203.071012 
L 211.216127 203.400089 
L 212.75176 203.71294 
L 214.290617 204.009531 
L 215.832526 204.289827 
L 217.377312 204.553798 
L 218.924805 204.801415 
L 220.47483 205.032649 
L 222.027214 205.247474 
L 223.581784 205.445867 
L 225.138365 205.627805 
L 226.696784 205.793268 
L 228.256866 205.942238 
L 229.818436 206.074698 
L 231.38132 206.190632 
L 232.945342 206.290029 
L 234.510329 206.372876 
L 236.076104 206.439165 
L 237.642493 206.488889 
L 239.209321 206.522041 
L 240.776411 206.538617 
L 242.343589 206.538617 
L 243.910679 206.522041 
L 245.477507 206.488889 
L 247.043896 206.439165 
L 248.609671 206.372876 
L 250.174658 206.290029 
L 251.73868 206.190632 
L 253.301564 206.074698 
L 254.863134 205.942238 
L 256.423216 205.793268 
L 257.981635 205.627805 
L 259.538216 205.445867 
L 261.092786 205.247474 
L 262.64517 205.032649 
L 264.195195 204.801415 
L 265.742688 204.553798 
L 267.287474 204.289827 
L 268.829383 204.009531 
L 270.36824 203.71294 
L 271.903873 203.400089 
L 273.436112 203.071012 
L 274.964784 202.725747 
L 276.489719 202.36433 
L 278.010745 201.986805 
L 279.527693 201.593211 
L 281.040393 201.183594 
L 282.548675 200.757999 
L 284.052371 200.316474 
L 285.551313 199.859068 
L 287.045333 199.385833 
L 288.534264 198.896821 
L 290.017938 198.392087 
L 291.496191 197.871688 
L 292.968857 197.335681 
L 294.43577 196.784127 
L 295.896768 196.217088 
L 297.351686 195.634627 
L 298.800361 195.036809 
L 300.242632 194.423701 
L 301.678337 193.795371 
L 303.107315 193.151891 
L 304.529407 192.493331 
L 305.944454 191.819766 
L 307.352297 191.131271 
L 308.752778 190.427923 
L 310.145742 189.7098 
L 311.531031 188.976983 
L 312.908492 188.229555 
L 314.277969 187.467598 
L 315.63931 186.691198 
" clip-path="url(#p9ecee2b323)" style="fill: none; stroke: #bfc5cc; stroke-width: 0.45; stroke-linecap: square"/>
   </g>
   <g id="line2d_4">
    <path d="M 164.113448 192.523431 
L 165.536669 193.335122 
L 166.968395 194.131713 
L 168.408468 194.913116 
L 169.856725 195.679242 
L 171.313005 196.430007 
L 172.777144 197.165325 
L 174.24898 197.885116 
L 175.728347 198.589297 
L 177.215079 199.277792 
L 178.709011 199.950521 
L 180.209976 200.607411 
L 181.717804 201.248388 
L 183.232329 201.87338 
L 184.753379 202.482316 
L 186.280786 203.07513 
L 187.814377 203.651754 
L 189.353982 204.212125 
L 190.899428 204.756179 
L 192.450543 205.283855 
L 194.007152 205.795095 
L 195.569082 206.289841 
L 197.136157 206.768038 
L 198.708203 207.229632 
L 200.285044 207.674572 
L 201.866503 208.102808 
L 203.452403 208.514292 
L 205.042567 208.908979 
L 206.636817 209.286823 
L 208.234974 209.647783 
L 209.83686 209.991818 
L 211.442295 210.318889 
L 213.0511 210.628961 
L 214.663095 210.921998 
L 216.278099 211.197968 
L 217.895932 211.45684 
L 219.516413 211.698584 
L 221.13936 211.923174 
L 222.764592 212.130585 
L 224.391927 212.320793 
L 226.021183 212.493777 
L 227.652178 212.649518 
L 229.284728 212.787999 
L 230.918652 212.909203 
L 232.553767 213.013118 
L 234.189889 213.099731 
L 235.826836 213.169033 
L 237.464425 213.221017 
L 239.102472 213.255676 
L 240.740793 213.273006 
L 242.379207 213.273006 
L 244.017528 213.255676 
L 245.655575 213.221017 
L 247.293164 213.169033 
L 248.930111 213.099731 
L 250.566233 213.013118 
L 252.201348 212.909203 
L 253.835272 212.787999 
L 255.467822 212.649518 
L 257.098817 212.493777 
L 258.728073 212.320793 
L 260.355408 212.130585 
L 261.98064 211.923174 
L 263.603587 211.698584 
L 265.224068 211.45684 
L 266.841901 211.197968 
L 268.456905 210.921998 
L 270.0689 210.628961 
L 271.677705 210.318889 
L 273.28314 209.991818 
L 274.885026 209.647783 
L 276.483183 209.286823 
L 278.077433 208.908979 
L 279.667597 208.514292 
L 281.253497 208.102808 
L 282.834956 207.674572 
L 284.411797 207.229632 
L 285.983843 206.768038 
L 287.550918 206.289841 
L 289.112848 205.795095 
L 290.669457 205.283855 
L 292.220572 204.756179 
L 293.766018 204.212125 
L 295.305623 203.651754 
L 296.839214 203.07513 
L 298.366621 202.482316 
L 299.887671 201.87338 
L 301.402196 201.248388 
L 302.910024 200.607411 
L 304.410989 199.950521 
L 305.904921 199.277792 
L 307.391653 198.589297 
L 308.87102 197.885116 
L 310.342856 197.165325 
L 311.806995 196.430007 
L 313.263275 195.679242 
L 314.711532 194.913116 
L 316.151605 194.131713 
L 317.583331 193.335122 
L 319.006552 192.523431 
" clip-path="url(#p9ecee2b323)" style="fill: none; stroke: #bfc5cc; stroke-width: 0.45; stroke-linecap: square"/>
   </g>
   <g id="line2d_5">
    <path d="M 160.746207 198.355665 
L 162.231306 199.202646 
L 163.725282 200.033872 
L 165.227966 200.849248 
L 166.739191 201.648685 
L 168.258787 202.432091 
L 169.786585 203.19938 
L 171.322414 203.950466 
L 172.866101 204.685264 
L 174.417474 205.403693 
L 175.97636 206.105672 
L 177.542583 206.791122 
L 179.11597 207.459967 
L 180.696343 208.112132 
L 182.283526 208.747545 
L 183.877341 209.366133 
L 185.477611 209.967828 
L 187.084155 210.552562 
L 188.696795 211.12027 
L 190.315349 211.670889 
L 191.939637 212.204357 
L 193.569476 212.720613 
L 195.204686 213.219601 
L 196.845082 213.701265 
L 198.490481 214.165551 
L 200.140699 214.612406 
L 201.795551 215.04178 
L 203.454852 215.453627 
L 205.118417 215.847899 
L 206.78606 216.224553 
L 208.457593 216.583546 
L 210.132829 216.924838 
L 211.811583 217.248391 
L 213.493664 217.554169 
L 215.178886 217.842137 
L 216.86706 218.112264 
L 218.557996 218.364519 
L 220.251506 218.598874 
L 221.947401 218.815303 
L 223.645489 219.013781 
L 225.345582 219.194286 
L 227.04749 219.356799 
L 228.751021 219.5013 
L 230.455985 219.627774 
L 232.162192 219.736207 
L 233.86945 219.826586 
L 235.577568 219.898901 
L 237.286356 219.953145 
L 238.995623 219.989311 
L 240.705176 220.007395 
L 242.414824 220.007395 
L 244.124377 219.989311 
L 245.833644 219.953145 
L 247.542432 219.898901 
L 249.25055 219.826586 
L 250.957808 219.736207 
L 252.664015 219.627774 
L 254.368979 219.5013 
L 256.07251 219.356799 
L 257.774418 219.194286 
L 259.474511 219.013781 
L 261.172599 218.815303 
L 262.868494 218.598874 
L 264.562004 218.364519 
L 266.25294 218.112264 
L 267.941114 217.842137 
L 269.626336 217.554169 
L 271.308417 217.248391 
L 272.987171 216.924838 
L 274.662407 216.583546 
L 276.33394 216.224553 
L 278.001583 215.847899 
L 279.665148 215.453627 
L 281.324449 215.04178 
L 282.979301 214.612406 
L 284.629519 214.165551 
L 286.274918 213.701265 
L 287.915314 213.219601 
L 289.550524 212.720613 
L 291.180363 212.204357 
L 292.804651 211.670889 
L 294.423205 211.12027 
L 296.035845 210.552562 
L 297.642389 209.967828 
L 299.242659 209.366133 
L 300.836474 208.747545 
L 302.423657 208.112132 
L 304.00403 207.459967 
L 305.577417 206.791122 
L 307.14364 206.105672 
L 308.702526 205.403693 
L 310.253899 204.685264 
L 311.797586 203.950466 
L 313.333415 203.19938 
L 314.861213 202.432091 
L 316.380809 201.648685 
L 317.892034 200.849248 
L 319.394718 200.033872 
L 320.888694 199.202646 
L 322.373793 198.355665 
" clip-path="url(#p9ecee2b323)" style="fill: none; stroke: #bfc5cc; stroke-width: 0.45; stroke-linecap: square"/>
   </g>
   <g id="line2d_6">
    <path d="M 174.215172 175.026732 
L 160.746207 198.355665 
" clip-path="url(#p9ecee2b323)" style="fill: none; stroke: #bfc5cc; stroke-width: 0.45; stroke-linecap: square"/>
   </g>
   <g id="line2d_7">
    <path d="M 184.637692 180.452352 
L 173.25323 204.866409 
" clip-path="url(#p9ecee2b323)" style="fill: none; stroke: #bfc5cc; stroke-width: 0.45; stroke-linecap: square"/>
   </g>
   <g id="line2d_8">
    <path d="M 195.493425 184.948944 
L 186.28011 210.262319 
" clip-path="url(#p9ecee2b323)" style="fill: none; stroke: #bfc5cc; stroke-width: 0.45; stroke-linecap: square"/>
   </g>
   <g id="line2d_9">
    <path d="M 206.699752 188.482285 
L 199.727702 214.502329 
" clip-path="url(#p9ecee2b323)" style="fill: none; stroke: #bfc5cc; stroke-width: 0.45; stroke-linecap: square"/>
   </g>
   <g id="line2d_10">
    <path d="M 218.171387 191.025486 
L 213.493664 217.554169 
" clip-path="url(#p9ecee2b323)" style="fill: none; stroke: #bfc5cc; stroke-width: 0.45; stroke-linecap: square"/>
   </g>
   <g id="line2d_11">
    <path d="M 229.821023 192.559189 
L 227.473228 219.394613 
" clip-path="url(#p9ecee2b323)" style="fill: none; stroke: #bfc5cc; stroke-width: 0.45; stroke-linecap: square"/>
   </g>
   <g id="line2d_12">
    <path d="M 241.56 193.071724 
L 241.56 220.009655 
" clip-path="url(#p9ecee2b323)" style="fill: none; stroke: #bfc5cc; stroke-width: 0.45; stroke-linecap: square"/>
   </g>
   <g id="line2d_13">
    <path d="M 253.298977 192.559189 
L 255.646772 219.394613 
" clip-path="url(#p9ecee2b323)" style="fill: none; stroke: #bfc5cc; stroke-width: 0.45; stroke-linecap: square"/>
   </g>
   <g id="line2d_14">
    <path d="M 264.948613 191.025486 
L 269.626336 217.554169 
" clip-path="url(#p9ecee2b323)" style="fill: none; stroke: #bfc5cc; stroke-width: 0.45; stroke-linecap: square"/>
   </g>
   <g id="line2d_15">
    <path d="M 276.420248 188.482285 
L 283.392298 214.502329 
" clip-path="url(#p9ecee2b323)" style="fill: none; stroke: #bfc5cc; stroke-width: 0.45; stroke-linecap: square"/>
   </g>
   <g id="line2d_16">
    <path d="M 287.626575 184.948944 
L 296.83989 210.262319 
" clip-path="url(#p9ecee2b323)" style="fill: none; stroke: #bfc5cc; stroke-width: 0.45; stroke-linecap: square"/>
   </g>
   <g id="line2d_17">
    <path d="M 298.482308 180.452352 
L 309.86677 204.866409 
" clip-path="url(#p9ecee2b323)" style="fill: none; stroke: #bfc5cc; stroke-width: 0.45; stroke-linecap: square"/>
   </g>
   <g id="line2d_18">
    <path d="M 308.904828 175.026732 
L 322.373793 198.355665 
" clip-path="url(#p9ecee2b323)" style="fill: none; stroke: #bfc5cc; stroke-width: 0.45; stroke-linecap: square"/>
   </g>
   <g id="line2d_19">
    <path d="M 34.137931 238.866207 
L 448.982069 238.866207 
" clip-path="url(#p9ecee2b323)" style="fill: none; stroke: #202020; stroke-width: 1.05; stroke-linecap: square"/>
   </g>
   <g id="line2d_20">
    <path d="M 29.827862 247.486345 
L 49.223172 238.866207 
" clip-path="url(#p9ecee2b323)" style="fill: none; stroke: #8a8a8a; stroke-width: 0.45; stroke-linecap: square"/>
   </g>
   <g id="line2d_21">
    <path d="M 48.684414 247.486345 
L 68.079724 238.866207 
" clip-path="url(#p9ecee2b323)" style="fill: none; stroke: #8a8a8a; stroke-width: 0.45; stroke-linecap: square"/>
   </g>
   <g id="line2d_22">
    <path d="M 67.540966 247.486345 
L 86.936276 238.866207 
" clip-path="url(#p9ecee2b323)" style="fill: none; stroke: #8a8a8a; stroke-width: 0.45; stroke-linecap: square"/>
   </g>
   <g id="line2d_23">
    <path d="M 86.397517 247.486345 
L 105.792828 238.866207 
" clip-path="url(#p9ecee2b323)" style="fill: none; stroke: #8a8a8a; stroke-width: 0.45; stroke-linecap: square"/>
   </g>
   <g id="line2d_24">
    <path d="M 105.254069 247.486345 
L 124.649379 238.866207 
" clip-path="url(#p9ecee2b323)" style="fill: none; stroke: #8a8a8a; stroke-width: 0.45; stroke-linecap: square"/>
   </g>
   <g id="line2d_25">
    <path d="M 124.110621 247.486345 
L 143.505931 238.866207 
" clip-path="url(#p9ecee2b323)" style="fill: none; stroke: #8a8a8a; stroke-width: 0.45; stroke-linecap: square"/>
   </g>
   <g id="line2d_26">
    <path d="M 142.967172 247.486345 
L 162.362483 238.866207 
" clip-path="url(#p9ecee2b323)" style="fill: none; stroke: #8a8a8a; stroke-width: 0.45; stroke-linecap: square"/>
   </g>
   <g id="line2d_27">
    <path d="M 161.823724 247.486345 
L 181.219034 238.866207 
" clip-path="url(#p9ecee2b323)" style="fill: none; stroke: #8a8a8a; stroke-width: 0.45; stroke-linecap: square"/>
   </g>
   <g id="line2d_28">
    <path d="M 180.680276 247.486345 
L 200.075586 238.866207 
" clip-path="url(#p9ecee2b323)" style="fill: none; stroke: #8a8a8a; stroke-width: 0.45; stroke-linecap: square"/>
   </g>
   <g id="line2d_29">
    <path d="M 199.536828 247.486345 
L 218.932138 238.866207 
" clip-path="url(#p9ecee2b323)" style="fill: none; stroke: #8a8a8a; stroke-width: 0.45; stroke-linecap: square"/>
   </g>
   <g id="line2d_30">
    <path d="M 218.393379 247.486345 
L 237.78869 238.866207 
" clip-path="url(#p9ecee2b323)" style="fill: none; stroke: #8a8a8a; stroke-width: 0.45; stroke-linecap: square"/>
   </g>
   <g id="line2d_31">
    <path d="M 237.249931 247.486345 
L 256.645241 238.866207 
" clip-path="url(#p9ecee2b323)" style="fill: none; stroke: #8a8a8a; stroke-width: 0.45; stroke-linecap: square"/>
   </g>
   <g id="line2d_32">
    <path d="M 256.106483 247.486345 
L 275.501793 238.866207 
" clip-path="url(#p9ecee2b323)" style="fill: none; stroke: #8a8a8a; stroke-width: 0.45; stroke-linecap: square"/>
   </g>
   <g id="line2d_33">
    <path d="M 274.963034 247.486345 
L 294.358345 238.866207 
" clip-path="url(#p9ecee2b323)" style="fill: none; stroke: #8a8a8a; stroke-width: 0.45; stroke-linecap: square"/>
   </g>
   <g id="line2d_34">
    <path d="M 293.819586 247.486345 
L 313.214897 238.866207 
" clip-path="url(#p9ecee2b323)" style="fill: none; stroke: #8a8a8a; stroke-width: 0.45; stroke-linecap: square"/>
   </g>
   <g id="line2d_35">
    <path d="M 312.676138 247.486345 
L 332.071448 238.866207 
" clip-path="url(#p9ecee2b323)" style="fill: none; stroke: #8a8a8a; stroke-width: 0.45; stroke-linecap: square"/>
   </g>
   <g id="line2d_36">
    <path d="M 331.53269 247.486345 
L 350.928 238.866207 
" clip-path="url(#p9ecee2b323)" style="fill: none; stroke: #8a8a8a; stroke-width: 0.45; stroke-linecap: square"/>
   </g>
   <g id="line2d_37">
    <path d="M 350.389241 247.486345 
L 369.784552 238.866207 
" clip-path="url(#p9ecee2b323)" style="fill: none; stroke: #8a8a8a; stroke-width: 0.45; stroke-linecap: square"/>
   </g>
   <g id="line2d_38">
    <path d="M 369.245793 247.486345 
L 388.641103 238.866207 
" clip-path="url(#p9ecee2b323)" style="fill: none; stroke: #8a8a8a; stroke-width: 0.45; stroke-linecap: square"/>
   </g>
   <g id="line2d_39">
    <path d="M 388.102345 247.486345 
L 407.497655 238.866207 
" clip-path="url(#p9ecee2b323)" style="fill: none; stroke: #8a8a8a; stroke-width: 0.45; stroke-linecap: square"/>
   </g>
   <g id="line2d_40">
    <path d="M 406.958897 247.486345 
L 426.354207 238.866207 
" clip-path="url(#p9ecee2b323)" style="fill: none; stroke: #8a8a8a; stroke-width: 0.45; stroke-linecap: square"/>
   </g>
   <g id="line2d_41">
    <path d="M 425.815448 247.486345 
L 445.210759 238.866207 
" clip-path="url(#p9ecee2b323)" style="fill: none; stroke: #8a8a8a; stroke-width: 0.45; stroke-linecap: square"/>
   </g>
   <g id="line2d_42">
    <path d="M 241.56 58.382069 
L 152.126069 213.286181 
" clip-path="url(#p9ecee2b323)" style="fill: none; stroke-dasharray: 3,3; stroke-dashoffset: 0; stroke: #9da3aa; stroke-width: 0.75"/>
   </g>
   <g id="line2d_43">
    <path d="M 241.56 58.382069 
L 330.993931 213.286181 
" clip-path="url(#p9ecee2b323)" style="fill: none; stroke-dasharray: 3,3; stroke-dashoffset: 0; stroke: #9da3aa; stroke-width: 0.75"/>
   </g>
   <g id="line2d_44">
    <path d="M 251.257655 220.009655 
L 305.672276 220.009655 
" clip-path="url(#p9ecee2b323)" style="fill: none; stroke-dasharray: 1.35,1.35; stroke-dashoffset: 0; stroke: #8f2f2f; stroke-width: 0.45"/>
   </g>
   <g id="line2d_45">
    <path d="M 251.257655 238.866207 
L 305.672276 238.866207 
" clip-path="url(#p9ecee2b323)" style="fill: none; stroke-dasharray: 1.35,1.35; stroke-dashoffset: 0; stroke: #8f2f2f; stroke-width: 0.45"/>
   </g>
   <g id="text_1">
    <text style="font-size: 9px; font-family: 'DejaVu Sans'; text-anchor: middle; fill: #5c5c5c" x="378.943448" y="256.645241" transform="rotate(-0 378.943448 256.645241)">жесткая опорная плоскость</text>
   </g>
   <g id="text_2">
    <text style="font-size: 10px; font-family: 'DejaVu Sans'; text-anchor: start; fill: #202020" x="245.870069" y="51.992312" transform="rotate(-0 245.870069 51.992312)">O</text>
   </g>
   <g id="patch_4">
    <path d="M 241.56 58.382069 
Q 216.332184 120.823106 191.418484 182.486675 
" style="fill: none; stroke: #2f5f8f; stroke-width: 0.75; stroke-linecap: round"/>
    <path d="M 194.10072 180.119058 
L 191.418484 182.486675 
L 191.133731 178.920316 
" style="fill: none; stroke: #2f5f8f; stroke-width: 0.75; stroke-linecap: round"/>
   </g>
   <g id="patch_5">
    <path d="M 241.56 58.382069 
Q 271.83338 133.311313 301.792642 207.46309 
" style="fill: none; stroke: #2f5f8f; stroke-width: 0.75; stroke-linecap: round"/>
    <path d="M 302.077395 203.896731 
L 301.792642 207.46309 
L 299.110407 205.095472 
" style="fill: none; stroke: #2f5f8f; stroke-width: 0.75; stroke-linecap: round"/>
   </g>
   <g id="patch_6">
    <path d="M 92.621551 128.632369 
Q 140.115286 154.978762 187.609021 181.325155 
" style="fill: none; stroke: #2f5f8f; stroke-width: 0.75; stroke-linecap: round"/>
   </g>
   <g id="text_3">
    <text style="font-size: 9px; font-family: 'DejaVu Sans'; text-anchor: start; fill: #2f5f8f" x="50.30069" y="122.822748" transform="rotate(-0 50.30069 122.822748)">Rᵢ = 250 мм</text>
   </g>
   <g id="patch_7">
    <path d="M 411.106705 103.220902 
Q 368.103683 149.32648 325.100662 195.432059 
" style="fill: none; stroke: #2f5f8f; stroke-width: 0.75; stroke-linecap: round"/>
   </g>
   <g id="text_4">
    <text style="font-size: 9px; font-family: 'DejaVu Sans'; text-anchor: start; fill: #2f5f8f" x="391.334897" y="96.423575" transform="rotate(-0 391.334897 96.423575)">Rₒ = 300 мм</text>
   </g>
   <g id="text_5">
    <text style="font-size: 10px; font-family: 'DejaVu Sans'; text-anchor: middle; fill: #2f5f8f" x="241.56" y="106.397168" transform="rotate(-0 241.56 106.397168)">φ = 60°</text>
   </g>
   <g id="patch_8">
    <path d="M 298.129655 238.027681 
Q 298.129655 229.437931 298.129655 220.848181 
" style="fill: none; stroke: #8f2f2f; stroke-width: 0.75; stroke-linecap: round"/>
    <path d="M 299.729655 234.827681 
L 298.129655 238.027681 
L 296.529655 234.827681 
" style="fill: none; stroke: #8f2f2f; stroke-width: 0.75; stroke-linecap: round"/>
    <path d="M 296.529655 224.048181 
L 298.129655 220.848181 
L 299.729655 224.048181 
" style="fill: none; stroke: #8f2f2f; stroke-width: 0.75; stroke-linecap: round"/>
   </g>
   <g id="text_6">
    <text style="font-size: 9px; font-family: 'DejaVu Sans'; text-anchor: start; fill: #8f2f2f" x="307.82731" y="232.190748" transform="rotate(-0 307.82731 232.190748)">g₀ = 2 мм</text>
   </g>
   <g id="patch_9">
    <path d="M 218.932138 182.83531 
Q 218.932138 195.496138 218.932138 207.31844 
" style="fill: none; stroke: #8f2f2f; stroke-width: 0.75; stroke-linecap: round"/>
    <path d="M 220.532138 204.11844 
L 218.932138 207.31844 
L 217.332138 204.11844 
" style="fill: none; stroke: #8f2f2f; stroke-width: 0.75; stroke-linecap: round"/>
   </g>
   <g id="patch_10">
    <path d="M 241.56 182.83531 
Q 241.56 195.496138 241.56 207.31844 
" style="fill: none; stroke: #8f2f2f; stroke-width: 0.75; stroke-linecap: round"/>
    <path d="M 243.16 204.11844 
L 241.56 207.31844 
L 239.96 204.11844 
" style="fill: none; stroke: #8f2f2f; stroke-width: 0.75; stroke-linecap: round"/>
   </g>
   <g id="patch_11">
    <path d="M 264.187862 182.83531 
Q 264.187862 195.496138 264.187862 207.31844 
" style="fill: none; stroke: #8f2f2f; stroke-width: 0.75; stroke-linecap: round"/>
    <path d="M 265.787862 204.11844 
L 264.187862 207.31844 
L 262.587862 204.11844 
" style="fill: none; stroke: #8f2f2f; stroke-width: 0.75; stroke-linecap: round"/>
   </g>
   <g id="patch_12">
    <path d="M 360.552396 193.249383 
Q 314.368411 192.389616 268.184426 191.529849 
" style="fill: none; stroke: #8f2f2f; stroke-width: 0.75; stroke-linecap: round"/>
   </g>
   <g id="text_7">
    <text style="font-size: 9px; font-family: 'DejaVu Sans'; fill: #8f2f2f" transform="translate(366.552 191.468507)">заданное</text>
    <text style="font-size: 9px; font-family: 'DejaVu Sans'; fill: #8f2f2f" transform="translate(366.552 201.546538)">перемещение u_y</text>
   </g>
   <g id="text_8">
    <text style="font-size: 9px; font-family: 'DejaVu Sans'; text-anchor: start; fill: #5c5c5c" x="69.157241" y="42.547713" transform="rotate(-0 69.157241 42.547713)">кольцевой сектор шины</text>
   </g>
   <g id="PathCollection_1">
    <defs>
     <path id="mc187a694aa" d="M 0 1.732051 
C 0.459345 1.732051 0.899939 1.549551 1.224745 1.224745 
C 1.549551 0.899939 1.732051 0.459345 1.732051 0 
C 1.732051 -0.459345 1.549551 -0.899939 1.224745 -1.224745 
C 0.899939 -1.549551 0.459345 -1.732051 0 -1.732051 
C -0.459345 -1.732051 -0.899939 -1.549551 -1.224745 -1.224745 
C -1.549551 -0.899939 -1.732051 -0.459345 -1.732051 0 
C -1.732051 0.459345 -1.549551 0.899939 -1.224745 1.224745 
C -0.899939 1.549551 -0.459345 1.732051 0 1.732051 
z
" style="stroke: #202020"/>
    </defs>
    <g clip-path="url(#p9ecee2b323)">
     <use xlink:href="#mc187a694aa" x="241.56" y="58.382069" style="fill: #202020; stroke: #202020"/>
    </g>
   </g>
  </g>
 </g>
 <defs>
  <clipPath id="p9ecee2b323">
   <rect x="7.2" y="7.2" width="468.72" height="261.297931"/>
  </clipPath>
 </defs>
</svg>
