<?xml version="1.0"?>
<VTKFile type="UnstructuredGrid" version="0.1" byte_order="LittleEndian">
  <UnstructuredGrid>
    <Piece NumberOfPoints="121" NumberOfCells="100">
      <PointData Vectors="displacement">
        <DataArray type="Float64" Name="displacement" NumberOfComponents="3" format="ascii">
          -2.6914130661155817e-12 -0.051075268817523389 0 0.0020967741906932663 -0.051075268817923833 0 0.0041935483852567935 -0.05107526881779717 0 0.0062903225765674154 -0.051075268817549091 0 0.0083870967704982313 -0.051075268815598603 0 0.010483870961587143 -0.051075268817858323 0 0.012580645153291424 -0.051075268816828986 0 0.014677419350123545 -0.051075268817292449 0 0.016774193545633143 -0.051075268817652571 0 0.018870967738309517 -0.051075268816571137 0 0.020967741929797279 -0.051075268817485746 0 -8.8126652156343529e-13 -0.055967741935350604 0 0.0020967741926589275 -0.055967741937149866 0 0.0041935483866719471 -0.055967741936881921 0 0.0062903225812533702 -0.055967741934816594 0 0.0083870967692535447 -0.055967741932930845 0 0.010483870964882033 -0.055967741934246432 0 0.01258064515907604 -0.055967741937711979 0 0.014677419352302564 -0.055967741936398328 0 0.016774193546397833 -0.055967741935361415 0 0.018870967738562488 -0.055967741930627701 0 0.020967741931929618 -0.055967741934437008 0 4.5295320447149245e-13 -0.060860215054864428 0 0.0020967741946492113 -0.060860215054500628 0 0.0041935483875843605 -0.060860215057741696 0 0.0062903225815628188 -0.060860215052488842 0 0.0083870967749045712 -0.060860215049843153 0 0.010483870971327726 -0.060860215054049066 0 0.01258064516781264 -0.060860215053431851 0 0.014677419356004267 -0.060860215054176388 0 0.016774193546148303 -0.060860215053337295 0 0.018870967743887013 -0.060860215047669822 0 0.020967741936282196 -0.06086021505028312 0 6.2472678378564943e-13 -0.065752688175224366 0 0.0020967741942963442 -0.065752688173398854 0 0.0041935483883005272 -0.065752688174866111 0 0.0062903225826265539 -0.065752688171314175 0 0.0083870967806606404 -0.065752688170889848 0 0.010483870974109796 -0.06575268817144557 0 0.012580645170322955 -0.065752688171921633 0 0.014677419362393212 -0.065752688170229667 0 0.016774193553489487 -0.065752688172498686 0 0.018870967744900817 -0.065752688167380696 0 0.020967741937081431 -0.065752688165024761 0 -1.5714070354417933e-13 -0.070645161291854872 0 0.0020967741942338803 -0.070645161290830608 0 0.0041935483870115297 -0.070645161293954872 0 0.0062903225811508099 -0.070645161289991737 0 0.0083870967741151835 -0.070645161289793923 0 0.010483870969329397 -0.070645161289060274 0 0.012580645164026582 -0.07064516128958119 0 0.014677419356530549 -0.070645161290239469 0 0.016774193550737233 -0.070645161289123903 0 0.018870967745552737 -0.070645161284421526 0 0.020967741939177567 -0.070645161282318916 0 -1.2683370006023346e-12 -0.075537634409702334 0 0.0020967741918502701 -0.07553763440976867 0 0.0041935483843640346 -0.075537634410933766 0 0.0062903225788685834 -0.075537634409931886 0 0.0083870967723938001 -0.075537634406464979 0 0.010483870966289619 -0.075537634409541407 0 0.012580645159942838 -0.07553763440973936 0 0.014677419353466172 -0.075537634409321514 0 0.01677419354470782 -0.0755376344082173 0 0.018870967739800883 -0.075537634405034998 0 0.020967741935443884 -0.075537634403072304 0 -1.4004686571177069e-13 -0.08043010752539162 0 0.0020967741924101 -0.080430107527896616 0 0.0041935483857693254 -0.080430107529404229 0 0.0062903225792357523 -0.080430107529779804 0 0.0083870967729643663 -0.080430107525253203 0 0.010483870967594818 -0.080430107530339023 0 0.012580645161234229 -0.080430107529406381 0 0.014677419350858843 -0.080430107527388314 0 0.01677419354262279 -0.080430107526989411 0 0.018870967737699813 -0.080430107525236397 0 0.020967741932068962 -0.080430107525228361 0 2.1526230836966913e-12 -0.085322580643719892 0 0.002096774195560661 -0.085322580646358462 0 0.0041935483871463263 -0.085322580645276383 0 0.006290322579300304 -0.0853225806458284 0 0.0083870967729837674 -0.08532258064534709 0 0.010483870965919918 -0.085322580647093943 0 0.012580645158837613 -0.085322580646041826 0 0.014677419350576985 -0.0853225806449463 0 0.016774193542265815 -0.085322580644784277 0 0.018870967736024345 -0.085322580644147189 0 0.020967741930568457 -0.085322580646359586 0 3.4814534747662224e-12 -0.090215053764078276 0 0.0020967741976556536 -0.090215053762363148 0 0.0041935483881741916 -0.090215053763771938 0 0.0062903225810576596 -0.090215053763147465 0 0.0083870967756513939 -0.090215053763123526 0 0.010483870969816907 -0.090215053766120865 0 0.012580645160576286 -0.090215053761647346 0 0.014677419352382925 -0.090215053762454894 0 0.016774193545757484 -0.090215053761940001 0 0.018870967737000061 -0.090215053763987085 0 0.020967741932409606 -0.090215053769486284 0 3.7382766164213876e-12 -0.095107526882023119 0 0.0020967741965569079 -0.095107526880534962 0 0.0041935483891179454 -0.095107526881559573 0 0.0062903225803534503 -0.095107526882602947 0 0.0083870967748769301 -0.095107526880738799 0 0.010483870967262712 -0.095107526882347221 0 0.012580645160452828 -0.095107526879780746 0 0.01467741935637731 -0.095107526879810195 0 0.016774193550325035 -0.095107526880235257 0 0.018870967746455698 -0.095107526882464002 0 0.020967741939033155 -0.095107526887652102 0 0 -0.10000000000000001 0 0.0020967741954808819 -0.10000000000000001 0 0.0041935483903686064 -0.10000000000000001 0 0.0062903225818237742 -0.10000000000000001 0 0.0083870967741545618 -0.10000000000000001 0 0.010483870967526107 -0.10000000000000001 0 0.012580645162860213 -0.10000000000000001 0 0.01467741936013657 -0.10000000000000001 0 0.016774193557599532 -0.10000000000000001 0 0.018870967749257707 -0.10000000000000001 0 0.020967741941747251 -0.10000000000000001 0
        </DataArray>
        <DataArray type="Float64" Name="displacement_magnitude" format="ascii">
          0.051075268817523389 0.051118289748679387 0.051247135850403719 0.051461162471345093 0.051759312947752323 0.05214014418042686 0.052601860396609343 0.053142353387275458 0.053759247147833401 0.054449944977615197 0.055211677083865249 0.055967741935350604 0.056007004915085437 0.056124629046299897 0.056320123361534413 0.056592680880905161 0.056941194996475999 0.057364281310105403 0.057860303976928998 0.058427405440214672 0.05906353833121758 0.059766498466647174 0.060860215054864428 0.060896323686273637 0.061004521348450726 0.061184425587034061 0.06143540647073778 0.061756597436780379 0.062146909892515013 0.062605051037377221 0.063129544156932629 0.063718750766469365 0.064370893871945223 0.065752688175224366 0.065786111482972545 0.065886279681783483 0.066052889111283999 0.066285438778863393 0.066583237773279999 0.066945415337687858 0.067370933203800998 0.067858599832886154 0.068407086072028334 0.069014941881211711 0.070645161291854872 0.070676270953050971 0.070769517889576625 0.070924657009138109 0.071141283415182846 0.071418837599465934 0.071756612562007729 0.07215376256780659 0.072609313334061523 0.073122173357714301 0.073691146107472072 0.075537634409702334 0.075566729942716709 0.07565394940419097 0.075799092147563016 0.076001826320123783 0.07626169262891655 0.076578109436442957 0.076950379148083586 0.077377695630361149 0.077859152544484667 0.078393752385528689 0.08043010752539162 0.080457433832822237 0.080539357119704613 0.080675711062269451 0.080866220319753171 0.081110503313732901 0.081408075949900446 0.081758356365989965 0.082160670431834032 0.082614257969665233 0.083118279567431133 0.085322580643719892 0.085348340523887831 0.085425573548235725 0.085554140321877734 0.08573380990170186 0.085964261869162284 0.086245089139688966 0.086575801507731115 0.086955829803867138 0.087384530616528872 0.087861191488742357 0.090215053764078276 0.090239417038132666 0.090312467432155888 0.090434086956530671 0.090604080028481124 0.090822175026454011 0.091088026424296031 0.091401217520382799 0.091761263583171396 0.09216761551092649 0.092619663832122764 0.095107526882023119 0.095130637185730171 0.0951999344412508 0.095315317907930977 0.09547662049780356 0.095683609986949247 0.095935990649189853 0.096233405365064251 0.096575438070652511 0.096961616598458089 0.09739141580605222 0.10000000000000001 0.10002197989455536 0.10008789061670929 0.10019764547225352 0.1003511006033269 0.10054805592582951 0.10078825642262991 0.10107139377229006 0.1013971082896737 0.10176499115016679 0.1021745868703941
        </DataArray>
        <DataArray type="Float64" Name="stress_2d" NumberOfComponents="3" format="ascii">
          -5.1646546589240451e-07 -10752.688172807329 6.0619642978696537e-07 2.3248759016814999e-07 -10752.688173177299 1.0291409818358616e-06 -2.6047565989853974e-07 -10752.688173003406 2.3442198003553386e-06 -3.6629585337405187e-06 -10752.68817242259 3.0176976135983318e-06 -2.348223329385735e-06 -10752.688170413025 1.1062318061399543e-06 -4.485110654181927e-07 -10752.688171066637 9.8426692825432306e-07 -7.8300370743755939e-09 -10752.688174322029 2.9725213077672799e-06 2.618632367866048e-06 -10752.688172945645 2.3912175457483838e-06 1.478928765535375e-06 -10752.688168915702 2.0102530550253734e-06 -4.3097944446669314e-08 -10752.688166377389 8.6426857250268764e-07 1.8477081639658948e-07 -10752.688165863474 -8.9946508448368218e-07 8.4207338731747809e-08 -10752.688172446244 6.6637564446802492e-07 -7.3033436402657159e-10 -10752.688173197885 6.8943684525498842e-07 -2.1058940357610738e-07 -10752.688173553324 1.9864957623087931e-06 -3.2755652699608743e-06 -10752.68817285122 3.338844763919561e-06 -1.1810074191360184e-06 -10752.688170731304 2.1941861080799448e-06 2.7758190642002829e-06 -10752.688170027095 2.3103237595126201e-06 -1.1842879564462506e-07 -10752.688172105823 3.9229320435993771e-06 -1.00575188510222e-06 -10752.688172424303 2.958646718278752e-06 1.0607598759728907e-06 -10752.688169697056 3.0055460349739238e-06 1.2256184553718539e-06 -10752.688167243819 2.2331621420187264e-06 2.5310420632600463e-07 -10752.688166867385 1.7613291557719294e-07 8.2885549933675336e-08 -10752.688173658305 7.4947363543677895e-07 -2.2235892473292067e-07 -10752.688173270009 -4.9825305172046876e-08 4.3837385684883732e-07 -10752.688172536016 1.4143545707027914e-06 1.2496172384790203e-08 -10752.688172779905 3.798698373767777e-06 1.6176908834254929e-06 -10752.688172277776 2.9551398406717704e-06 5.6445096815220482e-06 -10752.6881697147 2.703772122330418e-06 -1.4183734809574672e-07 -10752.688170239304 3.9059250828414894e-06 -6.1014978590662768e-06 -10752.688172672506 3.8925477110161059e-06 -1.0983326150776934e-06 -10752.688172135231 5.0235599286579049e-06 1.0599808862369263e-06 -10752.688170213585 3.7910402333790569e-06 -9.2841519144632159e-07 -10752.688169266446 9.2503378945793174e-07 1.1108029297037132e-06 -10752.688171678019 7.7185768288299012e-07 4.7937380993527926e-07 -10752.688171735103 -6.0330098506987374e-07 7.0475698012643314e-07 -10752.688171747204 4.8529185518020343e-07 2.9086254328205737e-06 -10752.688172151727 1.7140167765943676e-06 3.3232176974594785e-06 -10752.688172316328 -4.6929506393445743e-07 4.6462056218259059e-06 -10752.688170020454 -1.3472713316954114e-06 4.3234536824308777e-07 -10752.688171071017 -7.6142839236429966e-07 -5.4101241175314473e-06 -10752.688173764254 1.204981076319885e-07 -1.9097569147949837e-06 -10752.688172353632 2.8261840767086849e-06 -1.7647305485566724e-07 -10752.688170769539 3.4252656249668473e-06 -1.3167138073824576e-06 -10752.688170227771 1.6850537507925841e-06 1.5829413509432205e-06 -10752.688170117071 -1.021990875807058e-07 1.7610085114231573e-07 -10752.688171156737 -1.5187381822701618e-06 1.3981727419166588e-07 -10752.688172226568 -1.0074821695588769e-06 1.7089282001656107e-06 -10752.688172036338 -2.8387756670675199e-07 2.0787839027898177e-06 -10752.688171599157 -2.4990208777664153e-06 2.4271827774372468e-06 -10752.688171922568 -3.6699994780148782e-06 -4.5353403462115815e-07 -10752.688174046882 -3.6951948686605004e-06 -3.1581870890807677e-06 -10752.688174902965 -3.3804130592285201e-06 -7.8573275994400423e-07 -10752.688172914593 -1.2325924092623815e-06 5.4021417018933026e-07 -10752.688172591217 5.3940466972193748e-07 -1.5313229606839086e-07 -10752.688173528179 3.4353250508030554e-07 4.2355849329486784e-08 -10752.688170642688 -6.5770965367291965e-07 -9.1128546846864372e-07 -10752.688171576838 -1.2930911241366765e-06 -4.2326083470845698e-07 -10752.688172640947 -7.3019269279612285e-07 5.0640632073940893e-08 -10752.688173188395 1.0602330537040101e-06 1.7797926103575758e-07 -10752.688173546079 -4.6134989829427035e-07 -2.7429338282001259e-08 -10752.688175243062 -1.7213000728837563e-06 -2.9089379837939126e-06 -10752.688176542828 -1.0365083730426603e-06 -4.4500376512030567e-06 -10752.688175530333 -1.5703700923492384e-06 -1.0267314369159623e-06 -10752.688174531979 -1.2702557252308118e-06 1.3604034501354147e-06 -10752.688175901776 -1.1608541882559276e-06 3.641293879469701e-07 -10752.688177714446 -1.7164418154425279e-06 -1.0032124493379853e-06 -10752.688171093319 -1.1222226644879294e-07 -1.3223777978684862e-06 -10752.688171319409 2.7027575437796602e-07 -6.0816006825641895e-07 -10752.688170912155 6.0645771627614795e-07 1.3210718775484831e-07 -10752.688171651553 1.6284489340346523e-06 8.0370570145146746e-08 -10752.688173375795 -7.2260642695121492e-08 -6.1091653366966265e-08 -10752.688173182678 -1.3009730098193554e-06 -3.3084178351504978e-06 -10752.688173336093 2.6919459722629204e-07 -5.5560017172919452e-06 -10752.688173842409 -1.6461972248093969e-07 -1.2194548525951728e-06 -10752.688173014638 -2.0771932756238544e-07 1.5039153756155112e-06 -10752.688174651797 -7.4795465198659084e-07 5.0763961073779484e-07 -10752.68817692501 -1.7087678117896084e-06 -4.4966943956693133e-07 -10752.688172254904 5.3846872668854066e-07 -2.011329879774079e-06 -10752.688171737669 9.3251949529127563e-07 -2.2000117081576868e-06 -10752.688170330119 9.8748285626071053e-07 3.6105139061986822e-07 -10752.688169892885 1.2878613773705297e-06 8.5732575199476985e-07 -10752.688171305694 3.2253355096536502e-07 -5.148019540086063e-07 -10752.688171010464 2.314230069640022e-07 -2.883742633705592e-06 -10752.688170282692 1.2829096290952583e-06 -3.7495650574281991e-06 -10752.688171201662 9.7733962144233055e-07 -1.6675747984295355e-06 -10752.688172065902 8.95353921162319e-07 -5.7915175025922165e-08 -10752.688174945124 -6.5961590695056292e-07 2.9255486492914286e-07 -10752.688177351889 -1.9759734534206962e-06 4.4099034536613895e-07 -10752.688171503167 9.3494951694250487e-07 -2.4281919835159838e-06 -10752.688172177866 4.8745076649846228e-07 -4.3351468363625829e-06 -10752.688173153929 2.7750757589768276e-07 -4.7193637152333369e-07 -10752.688171967102 7.7095941810088572e-07 1.3893159547651721e-06 -10752.688170506583 -7.4456449989040432e-08 -1.4401455713375522e-06 -10752.688170847216 9.0477297214859838e-07 -1.9451543968387826e-06 -10752.688170502606 2.1528982398173337e-06 -5.3430078357667675e-07 -10752.688170261328 2.0666150581334086e-06 -9.0999420750296999e-07 -10752.688171841284 2.637600624653849e-06 -3.8107457616216619e-07 -10752.688174168028 1.2790303171192958e-06 6.4967005428076464e-07 -10752.688175331112 9.5607566299147584e-08 6.1256766466714314e-07 -10752.688172022403 -1.8553515263063307e-07 -1.0348976713396837e-06 -10752.688172812635 -4.2337998342462377e-07 -3.8207186509197492e-06 -10752.688173875256 -1.8654985825096072e-07 -1.969281051243873e-06 -10752.688173044429 4.3459440106470475e-07 2.1667421244122214e-07 -10752.688171468853 -6.7118033054905728e-07 -7.4451628305867176e-07 -10752.68817146947 -3.867614860394712e-08 1.4159134429727789e-06 -10752.688171956252 1.8048750711979981e-06 3.0358585934859014e-06 -10752.688172188726 2.7338072327231416e-06 1.3572713900881999e-06 -10752.688172406786 3.5438075367327573e-06 7.5547668840161775e-07 -10752.688170170612 2.2418289797147286e-06 1.134432098658533e-06 -10752.688167935055 1.0999792773171664e-06 1.1097845578126249e-06 -10752.688172537462 -1.2792855310145297e-06 4.0342903175969251e-07 -10752.688173094917 -8.0309855287412077e-07 -2.9089400274155949e-06 -10752.688173632956 1.5916065841441736e-07 -2.9492895752040412e-06 -10752.688172964936 8.2494481331488838e-07 -1.1957202852751039e-06 -10752.688172804881 1.047531859527102e-07 -4.2184518173753988e-07 -10752.688173140134 6.0958628504312612e-07 3.5800160626302205e-06 -10752.688173345425 2.1873925467548362e-06 4.9221022946072378e-06 -10752.68817391449 3.2203656548254533e-06 2.1760363365455245e-06 -10752.688173383513 3.5493210006944006e-06 8.1124696074206063e-07 -10752.688168435096 1.5722635940175368e-06 1.1187183295521023e-06 -10752.688164228128 1.261543360355683e-07
        </DataArray>
        <DataArray type="Float64" Name="sigma_xx" format="ascii">
          -5.1646546589240451e-07 2.3248759016814999e-07 -2.6047565989853974e-07 -3.6629585337405187e-06 -2.348223329385735e-06 -4.485110654181927e-07 -7.8300370743755939e-09 2.618632367866048e-06 1.478928765535375e-06 -4.3097944446669314e-08 1.8477081639658948e-07 8.4207338731747809e-08 -7.3033436402657159e-10 -2.1058940357610738e-07 -3.2755652699608743e-06 -1.1810074191360184e-06 2.7758190642002829e-06 -1.1842879564462506e-07 -1.00575188510222e-06 1.0607598759728907e-06 1.2256184553718539e-06 2.5310420632600463e-07 8.2885549933675336e-08 -2.2235892473292067e-07 4.3837385684883732e-07 1.2496172384790203e-08 1.6176908834254929e-06 5.6445096815220482e-06 -1.4183734809574672e-07 -6.1014978590662768e-06 -1.0983326150776934e-06 1.0599808862369263e-06 -9.2841519144632159e-07 1.1108029297037132e-06 4.7937380993527926e-07 7.0475698012643314e-07 2.9086254328205737e-06 3.3232176974594785e-06 4.6462056218259059e-06 4.3234536824308777e-07 -5.4101241175314473e-06 -1.9097569147949837e-06 -1.7647305485566724e-07 -1.3167138073824576e-06 1.5829413509432205e-06 1.7610085114231573e-07 1.3981727419166588e-07 1.7089282001656107e-06 2.0787839027898177e-06 2.4271827774372468e-06 -4.5353403462115815e-07 -3.1581870890807677e-06 -7.8573275994400423e-07 5.4021417018933026e-07 -1.5313229606839086e-07 4.2355849329486784e-08 -9.1128546846864372e-07 -4.2326083470845698e-07 5.0640632073940893e-08 1.7797926103575758e-07 -2.7429338282001259e-08 -2.9089379837939126e-06 -4.4500376512030567e-06 -1.0267314369159623e-06 1.3604034501354147e-06 3.641293879469701e-07 -1.0032124493379853e-06 -1.3223777978684862e-06 -6.0816006825641895e-07 1.3210718775484831e-07 8.0370570145146746e-08 -6.1091653366966265e-08 -3.3084178351504978e-06 -5.5560017172919452e-06 -1.2194548525951728e-06 1.5039153756155112e-06 5.0763961073779484e-07 -4.4966943956693133e-07 -2.011329879774079e-06 -2.2000117081576868e-06 3.6105139061986822e-07 8.5732575199476985e-07 -5.148019540086063e-07 -2.883742633705592e-06 -3.7495650574281991e-06 -1.6675747984295355e-06 -5.7915175025922165e-08 2.9255486492914286e-07 4.4099034536613895e-07 -2.4281919835159838e-06 -4.3351468363625829e-06 -4.7193637152333369e-07 1.3893159547651721e-06 -1.4401455713375522e-06 -1.9451543968387826e-06 -5.3430078357667675e-07 -9.0999420750296999e-07 -3.8107457616216619e-07 6.4967005428076464e-07 6.1256766466714314e-07 -1.0348976713396837e-06 -3.8207186509197492e-06 -1.969281051243873e-06 2.1667421244122214e-07 -7.4451628305867176e-07 1.4159134429727789e-06 3.0358585934859014e-06 1.3572713900881999e-06 7.5547668840161775e-07 1.134432098658533e-06 1.1097845578126249e-06 4.0342903175969251e-07 -2.9089400274155949e-06 -2.9492895752040412e-06 -1.1957202852751039e-06 -4.2184518173753988e-07 3.5800160626302205e-06 4.9221022946072378e-06 2.1760363365455245e-06 8.1124696074206063e-07 1.1187183295521023e-06
        </DataArray>
        <DataArray type="Float64" Name="sigma_yy" format="ascii">
          -10752.688172807329 -10752.688173177299 -10752.688173003406 -10752.68817242259 -10752.688170413025 -10752.688171066637 -10752.688174322029 -10752.688172945645 -10752.688168915702 -10752.688166377389 -10752.688165863474 -10752.688172446244 -10752.688173197885 -10752.688173553324 -10752.68817285122 -10752.688170731304 -10752.688170027095 -10752.688172105823 -10752.688172424303 -10752.688169697056 -10752.688167243819 -10752.688166867385 -10752.688173658305 -10752.688173270009 -10752.688172536016 -10752.688172779905 -10752.688172277776 -10752.6881697147 -10752.688170239304 -10752.688172672506 -10752.688172135231 -10752.688170213585 -10752.688169266446 -10752.688171678019 -10752.688171735103 -10752.688171747204 -10752.688172151727 -10752.688172316328 -10752.688170020454 -10752.688171071017 -10752.688173764254 -10752.688172353632 -10752.688170769539 -10752.688170227771 -10752.688170117071 -10752.688171156737 -10752.688172226568 -10752.688172036338 -10752.688171599157 -10752.688171922568 -10752.688174046882 -10752.688174902965 -10752.688172914593 -10752.688172591217 -10752.688173528179 -10752.688170642688 -10752.688171576838 -10752.688172640947 -10752.688173188395 -10752.688173546079 -10752.688175243062 -10752.688176542828 -10752.688175530333 -10752.688174531979 -10752.688175901776 -10752.688177714446 -10752.688171093319 -10752.688171319409 -10752.688170912155 -10752.688171651553 -10752.688173375795 -10752.688173182678 -10752.688173336093 -10752.688173842409 -10752.688173014638 -10752.688174651797 -10752.68817692501 -10752.688172254904 -10752.688171737669 -10752.688170330119 -10752.688169892885 -10752.688171305694 -10752.688171010464 -10752.688170282692 -10752.688171201662 -10752.688172065902 -10752.688174945124 -10752.688177351889 -10752.688171503167 -10752.688172177866 -10752.688173153929 -10752.688171967102 -10752.688170506583 -10752.688170847216 -10752.688170502606 -10752.688170261328 -10752.688171841284 -10752.688174168028 -10752.688175331112 -10752.688172022403 -10752.688172812635 -10752.688173875256 -10752.688173044429 -10752.688171468853 -10752.68817146947 -10752.688171956252 -10752.688172188726 -10752.688172406786 -10752.688170170612 -10752.688167935055 -10752.688172537462 -10752.688173094917 -10752.688173632956 -10752.688172964936 -10752.688172804881 -10752.688173140134 -10752.688173345425 -10752.68817391449 -10752.688173383513 -10752.688168435096 -10752.688164228128
        </DataArray>
        <DataArray type="Float64" Name="tau_xy" format="ascii">
          6.0619642978696537e-07 1.0291409818358616e-06 2.3442198003553386e-06 3.0176976135983318e-06 1.1062318061399543e-06 9.8426692825432306e-07 2.9725213077672799e-06 2.3912175457483838e-06 2.0102530550253734e-06 8.6426857250268764e-07 -8.9946508448368218e-07 6.6637564446802492e-07 6.8943684525498842e-07 1.9864957623087931e-06 3.338844763919561e-06 2.1941861080799448e-06 2.3103237595126201e-06 3.9229320435993771e-06 2.958646718278752e-06 3.0055460349739238e-06 2.2331621420187264e-06 1.7613291557719294e-07 7.4947363543677895e-07 -4.9825305172046876e-08 1.4143545707027914e-06 3.798698373767777e-06 2.9551398406717704e-06 2.703772122330418e-06 3.9059250828414894e-06 3.8925477110161059e-06 5.0235599286579049e-06 3.7910402333790569e-06 9.2503378945793174e-07 7.7185768288299012e-07 -6.0330098506987374e-07 4.8529185518020343e-07 1.7140167765943676e-06 -4.6929506393445743e-07 -1.3472713316954114e-06 -7.6142839236429966e-07 1.204981076319885e-07 2.8261840767086849e-06 3.4252656249668473e-06 1.6850537507925841e-06 -1.021990875807058e-07 -1.5187381822701618e-06 -1.0074821695588769e-06 -2.8387756670675199e-07 -2.4990208777664153e-06 -3.6699994780148782e-06 -3.6951948686605004e-06 -3.3804130592285201e-06 -1.2325924092623815e-06 5.3940466972193748e-07 3.4353250508030554e-07 -6.5770965367291965e-07 -1.2930911241366765e-06 -7.3019269279612285e-07 1.0602330537040101e-06 -4.6134989829427035e-07 -1.7213000728837563e-06 -1.0365083730426603e-06 -1.5703700923492384e-06 -1.2702557252308118e-06 -1.1608541882559276e-06 -1.7164418154425279e-06 -1.1222226644879294e-07 2.7027575437796602e-07 6.0645771627614795e-07 1.6284489340346523e-06 -7.2260642695121492e-08 -1.3009730098193554e-06 2.6919459722629204e-07 -1.6461972248093969e-07 -2.0771932756238544e-07 -7.4795465198659084e-07 -1.7087678117896084e-06 5.3846872668854066e-07 9.3251949529127563e-07 9.8748285626071053e-07 1.2878613773705297e-06 3.2253355096536502e-07 2.314230069640022e-07 1.2829096290952583e-06 9.7733962144233055e-07 8.95353921162319e-07 -6.5961590695056292e-07 -1.9759734534206962e-06 9.3494951694250487e-07 4.8745076649846228e-07 2.7750757589768276e-07 7.7095941810088572e-07 -7.4456449989040432e-08 9.0477297214859838e-07 2.1528982398173337e-06 2.0666150581334086e-06 2.637600624653849e-06 1.2790303171192958e-06 9.5607566299147584e-08 -1.8553515263063307e-07 -4.2337998342462377e-07 -1.8654985825096072e-07 4.3459440106470475e-07 -6.7118033054905728e-07 -3.867614860394712e-08 1.8048750711979981e-06 2.7338072327231416e-06 3.5438075367327573e-06 2.2418289797147286e-06 1.0999792773171664e-06 -1.2792855310145297e-06 -8.0309855287412077e-07 1.5916065841441736e-07 8.2494481331488838e-07 1.047531859527102e-07 6.0958628504312612e-07 2.1873925467548362e-06 3.2203656548254533e-06 3.5493210006944006e-06 1.5722635940175368e-06 1.261543360355683e-07
        </DataArray>
        <DataArray type="Float64" Name="von_mises_stress" format="ascii">
          10752.688172549097 10752.688173293544 10752.688172873168 10752.688170591111 10752.688169238912 10752.688170842381 10752.688174318115 10752.688174254961 10752.688169655166 10752.68816635584 10752.688165955858 10752.688172488348 10752.688173197519 10752.68817344803 10752.688171213436 10752.6881701408 10752.688171415004 10752.68817204661 10752.688171921427 10752.688170227435 10752.688167856628 10752.688166993938 10752.688173699749 10752.688173158831 10752.688172755203 10752.688172786153 10752.688173086621 10752.688172536955 10752.688170168385 10752.688169621757 10752.688171586065 10752.688170743575 10752.688168802239 10752.68817223342 10752.688171974789 10752.688172099583 10752.68817360604 10752.688173977936 10752.688172343556 10752.688171287189 10752.688171059193 10752.688171398753 10752.688170681302 10752.688169569414 10752.688170908543 10752.688171244787 10752.688172296477 10752.688172890803 10752.688172638549 10752.688173136159 10752.688173820114 10752.688173323872 10752.688172521726 10752.688172861324 10752.688173451612 10752.688170663867 10752.688171121195 10752.688172429316 10752.688173213715 10752.688173635068 10752.688175229347 10752.688175088359 10752.688173305314 10752.688174018613 10752.688176581978 10752.688177896511 10752.688170591713 10752.688170658221 10752.688170608075 10752.688171717607 10752.68817341598 10752.688173152132 10752.688171681884 10752.688171064408 10752.688172404911 10752.688175403755 10752.68817717883 10752.68817203007 10752.688170732004 10752.688169230114 10752.68817007341 10752.688171734357 10752.688170753063 10752.688168840821 10752.688169326879 10752.688171232114 10752.688174916166 10752.688177498167 10752.688171723661 10752.688170963771 10752.688170986356 10752.688171731133 10752.68817120124 10752.688170127143 10752.688169530029 10752.688169994177 10752.688171386288 10752.688173977491 10752.688175655947 10752.688172328686 10752.688172295186 10752.688171964897 10752.688172059788 10752.688171577191 10752.688171097212 10752.688172664208 10752.688173706654 10752.688173085422 10752.68817054835 10752.688168502271 10752.688173092354 10752.688173296632 10752.688172178487 10752.68817149029 10752.688172207021 10752.688172929211 10752.688175135432 10752.688176375541 10752.68817447153 10752.688168840719 10752.688164787487
        </DataArray>
        <DataArray type="Float64" Name="strain_2d" NumberOfComponents="3" format="ascii">
          0.020967741934624372 -0.048924731185266239 7.8805535872305488e-12 0.020967741938753552 -0.048924731188410064 1.33788327638662e-11 0.020967741936171475 -0.048924731186657563 3.0474857404619395e-11 0.020967741919557588 -0.048924731177380013 3.9230068976778311e-11 0.020967741921620979 -0.04892473117080022 1.4381013479819401e-11 0.020967741931539212 -0.0489247311774786 1.2795470067306196e-11 0.020967741939892329 -0.04892473119314996 3.8642777000974628e-11 0.020967741949158784 -0.048924731192009019 3.1085828094728977e-11 0.020967741936114743 -0.048924731171450353 2.6133289715329854e-11 0.020967741924239815 -0.048924731156933077 1.1235491442534937e-11 0.020967741924274478 -0.048924731155039106 -1.1693046098287867e-11 0.020967741936653319 -0.048924731184794616 8.6628833780843209e-12 0.020967741937732553 -0.048924731188048957 8.9626789883148486e-12 0.0209677419374708 -0.04892473118925697 2.5824444910014305e-11 0.020967741922156058 -0.048924731180085702 4.3404981930954285e-11 0.020967741927552457 -0.048924731174524463 2.8524419405039275e-11 0.020967741944182806 -0.048924731179036125 3.0034208873664051e-11 0.020967741935067504 -0.04892473118285056 5.0998116566791888e-11 0.020967741931651216 -0.048924731182569361 3.846240733762376e-11 0.020967741935735716 -0.048924731174190078 3.9072098454661009e-11 0.020967741931702009 -0.048924731163349326 2.903110784624344e-11 0.020967741926543021 -0.048924731159740151 2.2897279025035079e-12 0.020967741939010826 -0.048924731190306915 9.7431572606781249e-12 0.020967741936864785 -0.048924731187944943 -6.4772896723660937e-13 0.020967741938439831 -0.048924731185893695 1.8386609419136285e-11 0.020967741936977667 -0.04892473118617293 4.9383078858981088e-11 0.020967741943302157 -0.048924731187018379 3.8416817928733007e-11 0.020967741956626179 -0.04892473118320867 3.5149037590295423e-11 0.020967741931321282 -0.048924731174312251 5.0777026076939352e-11 0.02096774190894957 -0.048924731173761976 5.0603120243209379e-11 0.020967741930666285 -0.048924731181073544 6.5306279072552744e-11 0.020967741936739403 -0.048924731176538769 4.9283523033927725e-11 0.02096774192584528 -0.048924731168351915 1.202543926295311e-11 0.020967741939826291 -0.048924731183301054 1.0034149877478868e-11 0.020967741937064598 -0.048924731182329491 -7.8429128059083574e-12 0.020967741938113689 -0.048924731182824047 6.3087941173426443e-12 0.020967741948930117 -0.048924731188962178 2.2282218095726772e-11 0.020967741951137479 -0.048924731190519558 -6.1008358311479429e-12 0.020967741952680117 -0.048924731182653156 -1.7514527312040343e-11 0.020967741935555652 -0.048924731179216197 -9.8985691007358908e-12 0.020967741914224229 -0.048924731180077612 1.5664753992158475e-12 0.020967741927400186 -0.048924731180484994 3.6740392997212894e-11 0.020967741932197647 -0.048924731176657271 4.4528453124569011e-11 0.020967741925953107 -0.048924731171968772 2.1905698760303587e-11 0.020967741938930671 -0.048924731177119408 -1.3285881385491758e-12 0.020967741934556895 -0.048924731179106534 -1.97435963695121e-11 0.020967741936477973 -0.04892473118390353 -1.3097268204265394e-11 0.020967741943246482 -0.048924731186097747 -3.6904083671877756e-12 0.020967741944076822 -0.048924731184829789 -3.2487271410963398e-11 0.020967741946292685 -0.04892473118698068 -4.7709993214193403e-11 0.020967741937327838 -0.048924731191028914 -4.8037533292586495e-11 0.020967741926691028 -0.048924731189650024 -4.3945369769970749e-11 0.020967741933608376 -0.04892473118522922 -1.6023701320410957e-11 0.020967741939010846 -0.048924731186343454 7.0122607063851855e-12 0.020967741937683193 -0.048924731189254597 4.4659225660439696e-12 0.020967741932945962 -0.048924731176506822 -8.5502254977479554e-12 0.020967741930428482 -0.048924731178897604 -1.6810184613776791e-11 0.020967741934724008 -0.048924731184690942 -9.4925050063495929e-12 0.02096774193794778 -0.048924731188105947 1.3783029698152129e-11 0.020967741939224661 -0.048924731189981724 -5.9975486778255145e-12 0.020967741941599165 -0.048924731197302437 -2.2376900947488829e-11 0.020967741931022847 -0.048924731197597431 -1.347460884955458e-11 0.02096774192203648 -0.048924731189985429 -2.0414811200540093e-11 0.02096774193566573 -0.048924731192118383 -1.6513324428000551e-11 0.020967741949198298 -0.048924731203005861 -1.5091104447327059e-11 0.020967741948199954 -0.048924731209310776 -2.2313743600752858e-11 0.020967741929067352 -0.048924731176518327 -1.4588894638343077e-12 0.020967741928056026 -0.048924731176924675 3.5135848069135578e-12 0.020967741930511576 -0.048924731176464398 7.8839503115899219e-12 0.020967741935321613 -0.04892473118127217 2.1169836142450475e-11 0.020967741938448484 -0.048924731189016586 -9.3938835503658113e-13 0.020967741937428255 -0.048924731187862058 -1.6912649127651618e-11 0.020967741922952081 -0.048924731182227801 3.4995297639417956e-12 0.020967741913712888 -0.048924731180148756 -2.140056392252216e-12 0.020967741931830021 -0.048924731184838664 -2.700351258311011e-12 0.020967741947413819 -0.048924731197598312 -9.7234104758256797e-12 0.020967741947313531 -0.048924731205998689 -2.2213981553264907e-11 0.020967741933851064 -0.048924731182882958 7.0000934469510283e-12 0.020967741925736898 -0.048924731177484297 1.2122753438786582e-11 0.020967741922133677 -0.048924731170712013 1.2837277131389236e-11 0.020967741932933905 -0.048924731173716665 1.674219790581688e-11 0.020967741937946933 -0.048924731181112693 4.1929361625497442e-12 0.020967741931128055 -0.048924731177093748 3.0084990905320316e-12 0.020967741918930222 -0.048924731169162947 1.6677825178238357e-11 0.020967741916782717 -0.048924731171655904 1.2705415078750296e-11 0.020967741927941042 -0.048924731179648087 1.1639600975110145e-11 0.02096774194087948 -0.048924731195887389 -8.5750067903573173e-12 0.020967741947167308 -0.048924731207521568 -2.5687654894469045e-11 0.020967741936437682 -0.048924731181199346 1.2154343720252562e-11 0.020967741924698566 -0.048924731178674317 6.3368599644800092e-12 0.020967741917925244 -0.048924731179396844 3.6075984866698758e-12 0.020967741933188538 -0.048924731181530033 1.0022472435311514e-11 0.020967741938809219 -0.048924731178514105 -9.679338498575251e-13 0.020967741926599406 -0.048924731174546543 1.1762048637931779e-11 0.020967741923629626 -0.0489247311719938 2.7987677117625337e-11 0.02096774192957852 -0.048924731173647151 2.686599575573431e-11 0.02096774193095003 -0.048924731180103348 3.4288808120500029e-11 0.020967741937893768 -0.048924731191721429 1.6627394122550846e-11 0.020967741944851667 -0.048924731199023408 1.2428983618889197e-12 0.020967741938230866 -0.048924731183896439 -2.4119569841982299e-12 0.020967741932275855 -0.048924731184279445 -5.503939784520108e-12 0.020967741921672476 -0.048924731183682006 -2.4251481572624896e-12 0.020967741928476408 -0.048924731183512059 5.6497272138411603e-12 0.020967741935350136 -0.0489247311806058 -8.7253442971377427e-12 0.020967741930977914 -0.048924731178734283 -5.0278993185131212e-13 0.020967741941757094 -0.048924731185161975 2.3463375925573971e-11 0.020967741949581169 -0.048924731189378623 3.5539494025400836e-11 0.020967741942368813 -0.048924731187097545 4.6069497977525836e-11 0.020967741935270109 -0.048924731175749456 2.9143776736291465e-11 0.020967741932635023 -0.04892473116631664 1.4299730605123161e-11 0.020967741941497569 -0.048924731187209532 -1.6630711903188884e-11 0.02096774193937069 -0.048924731188368556 -1.0440281187363568e-11 0.020967741925348587 -0.048924731184357514 2.0690885593874252e-12 0.020967741923862353 -0.048924731181239335 1.0724282573093546e-11 0.020967741931528991 -0.04892473118393055 1.361791417385233e-12 0.020967741935703863 -0.048924731186965005 7.9246217055606384e-12 0.020967741954312648 -0.04892473119570271 2.8436103107812866e-11 0.02096774196152882 -0.048924731200909025 4.1864753512730884e-11 0.020967741947998809 -0.048924731193138248 4.6141173009027197e-11 0.020967741932139607 -0.048924731167961609 2.0439426722227973e-11 0.020967741925335018 -0.048924731149419483 1.6400063684623876e-12
        </DataArray>
        <DataArray type="Float64" Name="strain_xx" format="ascii">
          0.020967741934624372 0.020967741938753552 0.020967741936171475 0.020967741919557588 0.020967741921620979 0.020967741931539212 0.020967741939892329 0.020967741949158784 0.020967741936114743 0.020967741924239815 0.020967741924274478 0.020967741936653319 0.020967741937732553 0.0209677419374708 0.020967741922156058 0.020967741927552457 0.020967741944182806 0.020967741935067504 0.020967741931651216 0.020967741935735716 0.020967741931702009 0.020967741926543021 0.020967741939010826 0.020967741936864785 0.020967741938439831 0.020967741936977667 0.020967741943302157 0.020967741956626179 0.020967741931321282 0.02096774190894957 0.020967741930666285 0.020967741936739403 0.02096774192584528 0.020967741939826291 0.020967741937064598 0.020967741938113689 0.020967741948930117 0.020967741951137479 0.020967741952680117 0.020967741935555652 0.020967741914224229 0.020967741927400186 0.020967741932197647 0.020967741925953107 0.020967741938930671 0.020967741934556895 0.020967741936477973 0.020967741943246482 0.020967741944076822 0.020967741946292685 0.020967741937327838 0.020967741926691028 0.020967741933608376 0.020967741939010846 0.020967741937683193 0.020967741932945962 0.020967741930428482 0.020967741934724008 0.02096774193794778 0.020967741939224661 0.020967741941599165 0.020967741931022847 0.02096774192203648 0.02096774193566573 0.020967741949198298 0.020967741948199954 0.020967741929067352 0.020967741928056026 0.020967741930511576 0.020967741935321613 0.020967741938448484 0.020967741937428255 0.020967741922952081 0.020967741913712888 0.020967741931830021 0.020967741947413819 0.020967741947313531 0.020967741933851064 0.020967741925736898 0.020967741922133677 0.020967741932933905 0.020967741937946933 0.020967741931128055 0.020967741918930222 0.020967741916782717 0.020967741927941042 0.02096774194087948 0.020967741947167308 0.020967741936437682 0.020967741924698566 0.020967741917925244 0.020967741933188538 0.020967741938809219 0.020967741926599406 0.020967741923629626 0.02096774192957852 0.02096774193095003 0.020967741937893768 0.020967741944851667 0.020967741938230866 0.020967741932275855 0.020967741921672476 0.020967741928476408 0.020967741935350136 0.020967741930977914 0.020967741941757094 0.020967741949581169 0.020967741942368813 0.020967741935270109 0.020967741932635023 0.020967741941497569 0.02096774193937069 0.020967741925348587 0.020967741923862353 0.020967741931528991 0.020967741935703863 0.020967741954312648 0.02096774196152882 0.020967741947998809 0.020967741932139607 0.020967741925335018
        </DataArray>
        <DataArray type="Float64" Name="strain_yy" format="ascii">
          -0.048924731185266239 -0.048924731188410064 -0.048924731186657563 -0.048924731177380013 -0.04892473117080022 -0.0489247311774786 -0.04892473119314996 -0.048924731192009019 -0.048924731171450353 -0.048924731156933077 -0.048924731155039106 -0.048924731184794616 -0.048924731188048957 -0.04892473118925697 -0.048924731180085702 -0.048924731174524463 -0.048924731179036125 -0.04892473118285056 -0.048924731182569361 -0.048924731174190078 -0.048924731163349326 -0.048924731159740151 -0.048924731190306915 -0.048924731187944943 -0.048924731185893695 -0.04892473118617293 -0.048924731187018379 -0.04892473118320867 -0.048924731174312251 -0.048924731173761976 -0.048924731181073544 -0.048924731176538769 -0.048924731168351915 -0.048924731183301054 -0.048924731182329491 -0.048924731182824047 -0.048924731188962178 -0.048924731190519558 -0.048924731182653156 -0.048924731179216197 -0.048924731180077612 -0.048924731180484994 -0.048924731176657271 -0.048924731171968772 -0.048924731177119408 -0.048924731179106534 -0.04892473118390353 -0.048924731186097747 -0.048924731184829789 -0.04892473118698068 -0.048924731191028914 -0.048924731189650024 -0.04892473118522922 -0.048924731186343454 -0.048924731189254597 -0.048924731176506822 -0.048924731178897604 -0.048924731184690942 -0.048924731188105947 -0.048924731189981724 -0.048924731197302437 -0.048924731197597431 -0.048924731189985429 -0.048924731192118383 -0.048924731203005861 -0.048924731209310776 -0.048924731176518327 -0.048924731176924675 -0.048924731176464398 -0.04892473118127217 -0.048924731189016586 -0.048924731187862058 -0.048924731182227801 -0.048924731180148756 -0.048924731184838664 -0.048924731197598312 -0.048924731205998689 -0.048924731182882958 -0.048924731177484297 -0.048924731170712013 -0.048924731173716665 -0.048924731181112693 -0.048924731177093748 -0.048924731169162947 -0.048924731171655904 -0.048924731179648087 -0.048924731195887389 -0.048924731207521568 -0.048924731181199346 -0.048924731178674317 -0.048924731179396844 -0.048924731181530033 -0.048924731178514105 -0.048924731174546543 -0.0489247311719938 -0.048924731173647151 -0.048924731180103348 -0.048924731191721429 -0.048924731199023408 -0.048924731183896439 -0.048924731184279445 -0.048924731183682006 -0.048924731183512059 -0.0489247311806058 -0.048924731178734283 -0.048924731185161975 -0.048924731189378623 -0.048924731187097545 -0.048924731175749456 -0.04892473116631664 -0.048924731187209532 -0.048924731188368556 -0.048924731184357514 -0.048924731181239335 -0.04892473118393055 -0.048924731186965005 -0.04892473119570271 -0.048924731200909025 -0.048924731193138248 -0.048924731167961609 -0.048924731149419483
        </DataArray>
        <DataArray type="Float64" Name="gamma_xy" format="ascii">
          7.8805535872305488e-12 1.33788327638662e-11 3.0474857404619395e-11 3.9230068976778311e-11 1.4381013479819401e-11 1.2795470067306196e-11 3.8642777000974628e-11 3.1085828094728977e-11 2.6133289715329854e-11 1.1235491442534937e-11 -1.1693046098287867e-11 8.6628833780843209e-12 8.9626789883148486e-12 2.5824444910014305e-11 4.3404981930954285e-11 2.8524419405039275e-11 3.0034208873664051e-11 5.0998116566791888e-11 3.846240733762376e-11 3.9072098454661009e-11 2.903110784624344e-11 2.2897279025035079e-12 9.7431572606781249e-12 -6.4772896723660937e-13 1.8386609419136285e-11 4.9383078858981088e-11 3.8416817928733007e-11 3.5149037590295423e-11 5.0777026076939352e-11 5.0603120243209379e-11 6.5306279072552744e-11 4.9283523033927725e-11 1.202543926295311e-11 1.0034149877478868e-11 -7.8429128059083574e-12 6.3087941173426443e-12 2.2282218095726772e-11 -6.1008358311479429e-12 -1.7514527312040343e-11 -9.8985691007358908e-12 1.5664753992158475e-12 3.6740392997212894e-11 4.4528453124569011e-11 2.1905698760303587e-11 -1.3285881385491758e-12 -1.97435963695121e-11 -1.3097268204265394e-11 -3.6904083671877756e-12 -3.2487271410963398e-11 -4.7709993214193403e-11 -4.8037533292586495e-11 -4.3945369769970749e-11 -1.6023701320410957e-11 7.0122607063851855e-12 4.4659225660439696e-12 -8.5502254977479554e-12 -1.6810184613776791e-11 -9.4925050063495929e-12 1.3783029698152129e-11 -5.9975486778255145e-12 -2.2376900947488829e-11 -1.347460884955458e-11 -2.0414811200540093e-11 -1.6513324428000551e-11 -1.5091104447327059e-11 -2.2313743600752858e-11 -1.4588894638343077e-12 3.5135848069135578e-12 7.8839503115899219e-12 2.1169836142450475e-11 -9.3938835503658113e-13 -1.6912649127651618e-11 3.4995297639417956e-12 -2.140056392252216e-12 -2.700351258311011e-12 -9.7234104758256797e-12 -2.2213981553264907e-11 7.0000934469510283e-12 1.2122753438786582e-11 1.2837277131389236e-11 1.674219790581688e-11 4.1929361625497442e-12 3.0084990905320316e-12 1.6677825178238357e-11 1.2705415078750296e-11 1.1639600975110145e-11 -8.5750067903573173e-12 -2.5687654894469045e-11 1.2154343720252562e-11 6.3368599644800092e-12 3.6075984866698758e-12 1.0022472435311514e-11 -9.679338498575251e-13 1.1762048637931779e-11 2.7987677117625337e-11 2.686599575573431e-11 3.4288808120500029e-11 1.6627394122550846e-11 1.2428983618889197e-12 -2.4119569841982299e-12 -5.503939784520108e-12 -2.4251481572624896e-12 5.6497272138411603e-12 -8.7253442971377427e-12 -5.0278993185131212e-13 2.3463375925573971e-11 3.5539494025400836e-11 4.6069497977525836e-11 2.9143776736291465e-11 1.4299730605123161e-11 -1.6630711903188884e-11 -1.0440281187363568e-11 2.0690885593874252e-12 1.0724282573093546e-11 1.361791417385233e-12 7.9246217055606384e-12 2.8436103107812866e-11 4.1864753512730884e-11 4.6141173009027197e-11 2.0439426722227973e-11 1.6400063684623876e-12
        </DataArray>
        <DataArray type="Float64" Name="reaction_force" NumberOfComponents="3" format="ascii">
          -4.0822021802294512e-13 -2.5872998321574414e-07 0 -1.9817471064802133e-07 -5.1611709750432055e-07 0 -3.4722627310505013e-13 -5.1745996643148828e-07 0 -3.5113925123522501e-07 -5.5518739827675745e-08 0 -1.5612639923173291e-07 9.3938160716788843e-07 0 8.8700439330648788e-13 -5.1745860218943562e-07 0 -6.7470553993357383e-07 4.9360255616193172e-07 0 -2.3693152394046908e-07 1.0824919627339114e-07 0 8.7421740090300739e-13 -5.1745701057370752e-07 0 -4.0239808311933052e-08 -2.7855048756464384e-07 0 -1.2062757795711256e-12 -2.5873669073916972e-07 0 -4.73659731037907e-13 1.4587448793265786e-12 0 5.5276810590947251e-08 -2.0854085443355388e-07 0 -7.6780478126675702e-13 1.0607741164602039e-11 0 9.6068471800719873e-07 5.4321151249207627e-08 0 -1.657700178963038e-06 1.7386126482666027e-07 0 5.2636768073015433e-08 -1.1770000991249681e-07 0 1.3771547316645715e-07 -8.5599871796123739e-07 0 -3.3126354107169551e-07 2.0791185162241588e-07 0 -1.7780232633237611e-07 -1.3306719512837817e-07 0 -3.3707583473164141e-07 7.8111032262568681e-07 0 -8.1188564555579677e-13 9.9039293064674104e-13 0 -4.4639260172707626e-08 6.2136842764371536e-08 0 2.3695018112162341e-07 3.4278520904373565e-07 0 -1.8482198362763334e-07 -1.0595425956859345e-06 0 2.0448274882339014e-07 -6.9152554801282217e-08 0 -6.2399179720274228e-07 7.1318689688174575e-07 0 1.535686695508364e-08 -3.3516225149225982e-07 0 1.8877510978119062e-06 2.5108559819573065e-07 0 -3.6026163657117589e-07 4.0804884479103689e-08 0 -1.5186438432301722e-06 4.5833706275575272e-08 0 7.2503964047383071e-07 1.145497020348724e-06 0 -8.2019710805362496e-08 1.2317674746884258e-07 0 -7.5140401827129892e-08 -4.978046282133085e-07 0 5.496389114445995e-08 -7.5948866708462702e-08 0 2.2372809972324284e-08 -1.7717505869404487e-07 0 -9.0918613325154595e-08 2.1798241111441211e-07 0 1.2242807266313761e-06 -1.739183143760918e-07 0 1.0369022100818255e-12 4.6488440447488294e-12 0 1.970367534436097e-06 -1.7501894428808794e-07 0 8.6396351484622795e-07 3.1652828893635853e-07 0 2.8777547952316642e-07 -9.3897325530126908e-07 0 1.0612946494790319e-07 -1.1594846504501653e-07 0 -2.8819238679103667e-07 2.7577215780093813e-07 0 -1.2839871156156301e-07 2.011246103673005e-07 0 5.1889756923639683e-07 5.9758349485230938e-07 0 -1.3033009406295191e-07 -6.4696791827982612e-07 0 6.1686280629412274e-08 4.415289759412778e-07 0 -4.9916819840073189e-07 4.8750205339084956e-08 0 -9.20001460324251e-08 6.5442058273715705e-07 0 4.6160679923353847e-07 5.6002630540841299e-07 0 -3.903024338949733e-07 -6.9488471350625882e-08 0 -1.5106219896456529e-07 7.240735660268246e-08 0 7.1163697324592507e-07 7.4811928385487991e-07 0 2.1095409256001728e-07 4.0450353846427758e-07 0 -1.5730952404883676e-08 -1.1980234455803487e-07 0 4.9909908941859992e-09 -1.802989356149141e-08 0 -5.7189914706696416e-07 1.5104067427010404e-08 0 -1.7563821551261282e-13 -1.0023607360870386e-11 0 -3.4348107522426498e-07 8.3331332217364236e-07 0 6.5156542600705241e-13 -9.5957891390417748e-13 0 -2.3388863351291779e-07 2.6035777994634722e-08 0 -4.8363761667487565e-13 9.628351045407816e-12 0 -9.4595095781348758e-07 -1.8676234423872532e-07 0 -1.3407160886698734e-08 4.4446616882250907e-08 0 9.4550181390627644e-08 -7.4092807969354989e-08 0 1.1871942045166104e-07 2.6946668062874643e-07 0 -1.6810057338931227e-07 7.6981558255737152e-09 0 -1.9528635603052795e-07 -5.291216989110016e-07 0 1.6944626135893743e-07 -9.3077075422877349e-07 0 5.0029036417981652e-09 5.2640351863952079e-07 0 2.7274686359443571e-07 -1.1029825144446793e-06 0 8.8414698703722383e-07 -6.9134097405654181e-07 0 -3.6074091990159302e-07 -1.207382542647802e-07 0 -8.1657101687649968e-07 -3.1566018269098632e-07 0 3.2220560067371259e-07 -6.2843306164222113e-08 0 4.5031210469728946e-08 -2.8735747981764775e-07 0 -1.0527588689845978e-12 5.0541764689408149e-12 0 3.1814661624536896e-07 -3.372705511511391e-07 0 -2.5602729577142608e-07 6.2544341983293677e-07 0 -3.1092051309915975e-07 1.2005839790712365e-07 0 3.6360374908239426e-12 3.768572367143849e-12 0 -4.4272697012162823e-07 1.0192092840081809e-07 0 1.8165816244965245e-13 -9.2090694816091308e-12 0 -2.3643532310907412e-07 -2.1441636380376383e-07 0 -5.0548507682725286e-07 2.2789778930066518e-08 0 -7.6893345941081722e-08 5.747117674010234e-07 0 -9.5760293361905457e-14 -2.5714698229598168e-12 0 -1.0263003781312843e-07 -2.2521134346450841e-07 0 8.3096246844065955e-07 3.750640342941288e-07 0 -1.8877350328996896e-07 -1.976079575944016e-08 0 -3.9455596138440401e-07 3.2850978924661385e-07 0 4.2396289458305418e-07 1.5536367926218657e-07 0 8.9546581501922661e-07 -8.5564097016711386e-07 0 -1.2636744334268447e-07 4.1042271680110131e-07 0 -2.1029057615820623e-07 -2.2352837808811891e-07 0 1.658987263809504e-07 6.2264243455695218e-08 0 -8.5285937865239933e-07 -1.8409547211222109e-07 0 -2.6191273644770681e-08 -4.6313660023736876e-07 0 1.6401690430780145e-07 3.3682183244219635e-08 0 2.9773427144232409e-07 1.588737651453825e-07 0 2.0420820277490856e-07 -8.3661005077463918e-08 0 -7.9112533654711005e-07 -2.3025226971558237e-07 0 1.4658007188541087e-07 6.3084730948130661e-07 0 -1.8622586736614612e-07 -6.8168490428523506e-08 0 -6.1157653050190565e-07 2.8350109653356545e-07 0 2.0691049343281629e-07 2.1210430725286774e-07 0 -1.5983796998784675e-07 2.5753593229265012e-07 0 4.0729491360093671e-07 -4.7583896843296822e-08 0 1.3166744912482478e-07 -4.0137249970830278e-07 0 -1.9624798488835018e-07 -537.63440851998246 0 4.1688396324756327e-12 -1075.268817429594 0 3.3730041985804768e-07 -1075.2688174124432 0 -1.0448540371030481e-07 -1075.2688172305952 0 -1.3108659457062599e-12 -1075.2688172906746 0 -1.3104896999025165e-07 -1075.2688173340625 0 -1.1971791079846438e-12 -1075.2688174267355 0 3.6701161087662533e-07 -1075.2688174888501 0 7.5257379074869296e-07 -1075.2688173372887 0 -4.2410861147765485e-13 -1075.2688167842657 0 5.9707696492977268e-08 -537.63440805544337 0
        </DataArray>
        <DataArray type="Float64" Name="reaction_force_magnitude" format="ascii">
          2.5872998321606617e-07 5.528562871820409e-07 5.1745996643160475e-07 3.5550120144675688e-07 9.5226742904626926e-07 5.1745860219019584e-07 8.3598507705978125e-07 2.6048883955092632e-07 5.1745701057444603e-07 2.8144203007987618e-07 2.5873669074198165e-07 1.5337177588358352e-12 2.1574247091609979e-07 1.0635492315700704e-11 9.6221926549285541e-07 1.6667926153967728e-06 1.2893378799435879e-07 8.6700597270188578e-07 3.911046812407394e-07 2.2208229481104214e-07 8.5073700664332062e-07 1.2806390820737095e-12 7.6509154860649931e-08 4.1670983654424055e-07 1.075541574140647e-06 2.1585937645123043e-07 9.4762931194646049e-07 3.3551388672905474e-07 1.9043760618405612e-06 3.6256514639757505e-07 1.5193353320488086e-06 1.3556717537391664e-06 1.4798562118529731e-07 5.0344366900114342e-07 9.3751051642314272e-08 1.7858203730861614e-07 2.3618324623948574e-07 1.2365722290575958e-06 4.7630785365842152e-12 1.9781253376921039e-06 9.2012124890278845e-07 9.8208222710007874e-07 1.5718622673893419e-07 3.9887985010840044e-07 2.3861546057635891e-07 7.914295424605664e-07 6.5996471170948954e-07 4.4581726504661533e-07 5.0154309168329239e-07 6.6085575277818971e-07 7.2574809668922274e-07 3.9643995453912907e-07 1.675189936878739e-07 1.0325258566090051e-06 4.5620690678456594e-07 1.2083072715649285e-07 1.8707940879331348e-08 5.7209856429531505e-07 1.0025146049192673e-11 9.0132698947124055e-07 1.1598832684271606e-12 2.3533328413619242e-07 9.640490091165944e-12 9.642112775806963e-07 4.6424710180241465e-08 1.2012277466735568e-07 2.9445983216977677e-07 1.6827674936523574e-07 5.6400933778630535e-07 9.460688306968586e-07 5.2642729173259758e-07 1.1362047697362079e-06 1.1223494273605028e-06 3.8040995956251496e-07 8.7545963729873215e-07 3.2827691090778542e-07 2.9086445489870165e-07 5.1626544543888246e-12 4.6364716552802434e-07 6.7581761414774372e-07 3.3329504102802071e-07 5.2366884880692936e-12 4.5430721512998425e-07 9.2108610023759042e-12 3.1918026110729385e-07 5.0599855426545933e-07 5.798329088963672e-07 2.5732522387394807e-12 2.4749358352614508e-07 9.1168615969421272e-07 1.8980496461740464e-07 5.1341317503042899e-07 4.5153339723338903e-07 1.2385396625447921e-06 4.2943630168322238e-07 3.0689910757715699e-07 1.7719826022828648e-07 8.7250229948555336e-07 4.6387659274268576e-07 1.6743964395211694e-07 3.3747084265571992e-07 2.2068111348987166e-07 8.239510943229309e-07 6.476527197146135e-07 1.9831040508147109e-07 6.7409103568915852e-07 2.9631096747813845e-07 3.0310548175788616e-07 4.1006508493651105e-07 4.2241709326343533e-07 537.63440851998246 1075.268817429594 1075.2688174124432 1075.2688172305952 1075.2688172906746 1075.2688173340625 1075.2688174267355 1075.2688174888501 1075.2688173372887 1075.2688167842657 537.63440805544337
        </DataArray>
        <DataArray type="Float64" Name="contact_force" NumberOfComponents="3" format="ascii">
          -0 -537.63440882843543 0 -0 -1075.2688178359801 0 -0 -1075.2688177769332 0 -0 -1075.2688172653536 0 -0 -1075.2688163003002 0 -0 -1075.2688173101428 0 -0 -1075.2688170777824 0 -0 -1075.2688172752203 0 -0 -1075.2688174123073 0 -0 -1075.268816903809 0 -0 -537.6344085904384 0 -0 -0 0 -0 -0 0 -0 -0 0 -0 -0 0 -0 -0 0 -0 -0 0 -0 -0 0 -0 -0 0 -0 -0 0 -0 -0 0 -0 -0 0 -0 -0 0 -0 -0 0 -0 -0 0 -0 -0 0 -0 -0 0 -0 -0 0 -0 -0 0 -0 -0 0 -0 -0 0 -0 -0 0 -0 -0 0 -0 -0 0 -0 -0 0 -0 -0 0 -0 -0 0 -0 -0 0 -0 -0 0 -0 -0 0 -0 -0 0 -0 -0 0 -0 -0 0 -0 -0 0 -0 -0 0 -0 -0 0 -0 -0 0 -0 -0 0 -0 -0 0 -0 -0 0 -0 -0 0 -0 -0 0 -0 -0 0 -0 -0 0 -0 -0 0 -0 -0 0 -0 -0 0 -0 -0 0 -0 -0 0 -0 -0 0 -0 -0 0 -0 -0 0 -0 -0 0 -0 -0 0 -0 -0 0 -0 -0 0 -0 -0 0 -0 -0 0 -0 -0 0 -0 -0 0 -0 -0 0 -0 -0 0 -0 -0 0 -0 -0 0 -0 -0 0 -0 -0 0 -0 -0 0 -0 -0 0 -0 -0 0 -0 -0 0 -0 -0 0 -0 -0 0 -0 -0 0 -0 -0 0 -0 -0 0 -0 -0 0 -0 -0 0 -0 -0 0 -0 -0 0 -0 -0 0 -0 -0 0 -0 -0 0 -0 -0 0 -0 -0 0 -0 -0 0 -0 -0 0 -0 -0 0 -0 -0 0 -0 -0 0 -0 -0 0 -0 -0 0 -0 -0 0 -0 -0 0 -0 -0 0 -0 -0 0 -0 -0 0 -0 -0 0 -0 -0 0 -0 -0 0 -0 -0 0 -0 -0 0 -0 -0 0 -0 -0 0 -0 -0 0 -0 -0 0 -0 -0 0 -0 -0 0 -0 -0 0 -0 -0 0 -0 -0 0 -0 -0 0
        </DataArray>
        <DataArray type="Float64" Name="contact_force_magnitude" format="ascii">
          537.63440882843543 1075.2688178359801 1075.2688177769332 1075.2688172653536 1075.2688163003002 1075.2688173101428 1075.2688170777824 1075.2688172752203 1075.2688174123073 1075.268816903809 537.6344085904384 0 0 0 0 0 0 0 0 0 0 0 0 0 0 0 0 0 0 0 0 0 0 0 0 0 0 0 0 0 0 0 0 0 0 0 0 0 0 0 0 0 0 0 0 0 0 0 0 0 0 0 0 0 0 0 0 0 0 0 0 0 0 0 0 0 0 0 0 0 0 0 0 0 0 0 0 0 0 0 0 0 0 0 0 0 0 0 0 0 0 0 0 0 0 0 0 0 0 0 0 0 0 0 0 0 0 0 0 0 0
        </DataArray>
        <DataArray type="Float64" Name="rigid_plane_signed_distance" format="ascii">
          -0.0010752688175233865 -0.0010752688179238301 -0.0010752688177971675 -0.0010752688175490882 -0.0010752688155985998 -0.00107526881785832 -0.0010752688168289837 -0.0010752688172924463 -0.0010752688176525679 -0.0010752688165711344 -0.001075268817485743 0.094032258064649418 0.094032258062850149 0.094032258063118102 0.094032258065183422 0.094032258067069177 0.094032258065753591 0.094032258062288043 0.094032258063601687 0.094032258064638607 0.094032258069372321 0.094032258065563007 0.18913978494513556 0.18913978494549938 0.1891397849422583 0.18913978494751116 0.18913978495015685 0.18913978494595093 0.18913978494656813 0.18913978494582362 0.1891397849466627 0.18913978495233019 0.18913978494971689 0.28424731182477569 0.28424731182660118 0.28424731182513391 0.28424731182868584 0.28424731182911017 0.28424731182855445 0.28424731182807839 0.28424731182977037 0.28424731182750135 0.28424731183261931 0.28424731183497526 0.37935483870814513 0.37935483870916942 0.37935483870604514 0.3793548387100083 0.37935483871020609 0.37935483871093972 0.37935483871041881 0.37935483870976056 0.37935483871087611 0.37935483871557851 0.37935483871768111 0.4744623655902977 0.47446236559023136 0.47446236558906629 0.47446236559006816 0.47446236559353505 0.47446236559045862 0.47446236559026067 0.47446236559067856 0.47446236559178273 0.47446236559496502 0.47446236559692773 0.56956989247460854 0.56956989247210354 0.56956989247059586 0.56956989247022038 0.56956989247474699 0.56956989246966105 0.56956989247059375 0.56956989247261181 0.56956989247301071 0.56956989247476375 0.56956989247477174 0.66467741935628022 0.66467741935364166 0.66467741935472369 0.66467741935417168 0.66467741935465297 0.66467741935290614 0.6646774193539583 0.66467741935505376 0.66467741935521585 0.66467741935585289 0.66467741935364055 0.75978494623592185 0.75978494623763693 0.75978494623622816 0.75978494623685267 0.75978494623687653 0.75978494623387927 0.7597849462383528 0.75978494623754522 0.75978494623806014 0.759784946236013 0.75978494623051385 0.854892473117977 0.85489247311946515 0.85489247311844052 0.85489247311739713 0.85489247311926131 0.85489247311765282 0.85489247312021932 0.8548924731201899 0.8548924731197648 0.85489247311753602 0.85489247311234795 0.95000000000000007 0.95000000000000007 0.95000000000000007 0.95000000000000007 0.95000000000000007 0.95000000000000007 0.95000000000000007 0.95000000000000007 0.95000000000000007 0.95000000000000007 0.95000000000000007
        </DataArray>
        <DataArray type="Float64" Name="rigid_plane_penetration" format="ascii">
          0.0010752688175233865 0.0010752688179238301 0.0010752688177971675 0.0010752688175490882 0.0010752688155985998 0.00107526881785832 0.0010752688168289837 0.0010752688172924463 0.0010752688176525679 0.0010752688165711344 0.001075268817485743 0 0 0 0 0 0 0 0 0 0 0 0 0 0 0 0 0 0 0 0 0 0 0 0 0 0 0 0 0 0 0 0 0 0 0 0 0 0 0 0 0 0 0 0 0 0 0 0 0 0 0 0 0 0 0 0 0 0 0 0 0 0 0 0 0 0 0 0 0 0 0 0 0 0 0 0 0 0 0 0 0 0 0 0 0 0 0 0 0 0 0 0 0 0 0 0 0 0 0 0 0 0 0 0 0 0 0 0 0 0
        </DataArray>
      </PointData>
      <CellData>
        <DataArray type="Int32" Name="element_id" format="ascii">
          1 2 3 4 5 6 7 8 9 10 11 12 13 14 15 16 17 18 19 20 21 22 23 24 25 26 27 28 29 30 31 32 33 34 35 36 37 38 39 40 41 42 43 44 45 46 47 48 49 50 51 52 53 54 55 56 57 58 59 60 61 62 63 64 65 66 67 68 69 70 71 72 73 74 75 76 77 78 79 80 81 82 83 84 85 86 87 88 89 90 91 92 93 94 95 96 97 98 99 100
        </DataArray>
        <DataArray type="Int32" Name="material_id" format="ascii">
          1 1 1 1 1 1 1 1 1 1 1 1 1 1 1 1 1 1 1 1 1 1 1 1 1 1 1 1 1 1 1 1 1 1 1 1 1 1 1 1 1 1 1 1 1 1 1 1 1 1 1 1 1 1 1 1 1 1 1 1 1 1 1 1 1 1 1 1 1 1 1 1 1 1 1 1 1 1 1 1 1 1 1 1 1 1 1 1 1 1 1 1 1 1 1 1 1 1 1 1
        </DataArray>
        <DataArray type="Int32" Name="candidate_contact_facet" format="ascii">
          1 1 1 1 1 1 1 1 1 1 0 0 0 0 0 0 0 0 0 0 0 0 0 0 0 0 0 0 0 0 0 0 0 0 0 0 0 0 0 0 0 0 0 0 0 0 0 0 0 0 0 0 0 0 0 0 0 0 0 0 0 0 0 0 0 0 0 0 0 0 0 0 0 0 0 0 0 0 0 0 0 0 0 0 0 0 0 0 0 0 0 0 0 0 0 0 0 0 0 0
        </DataArray>
        <DataArray type="Int32" Name="candidate_contact_surface_index" format="ascii">
          0 0 0 0 0 0 0 0 0 0 -1 -1 -1 -1 -1 -1 -1 -1 -1 -1 -1 -1 -1 -1 -1 -1 -1 -1 -1 -1 -1 -1 -1 -1 -1 -1 -1 -1 -1 -1 -1 -1 -1 -1 -1 -1 -1 -1 -1 -1 -1 -1 -1 -1 -1 -1 -1 -1 -1 -1 -1 -1 -1 -1 -1 -1 -1 -1 -1 -1 -1 -1 -1 -1 -1 -1 -1 -1 -1 -1 -1 -1 -1 -1 -1 -1 -1 -1 -1 -1 -1 -1 -1 -1 -1 -1 -1 -1 -1 -1
        </DataArray>
        <DataArray type="Int32" Name="active_contact_facet" format="ascii">
          1 1 1 1 1 1 1 1 1 1 0 0 0 0 0 0 0 0 0 0 0 0 0 0 0 0 0 0 0 0 0 0 0 0 0 0 0 0 0 0 0 0 0 0 0 0 0 0 0 0 0 0 0 0 0 0 0 0 0 0 0 0 0 0 0 0 0 0 0 0 0 0 0 0 0 0 0 0 0 0 0 0 0 0 0 0 0 0 0 0 0 0 0 0 0 0 0 0 0 0
        </DataArray>
        <DataArray type="Int32" Name="active_contact_surface_index" format="ascii">
          0 0 0 0 0 0 0 0 0 0 -1 -1 -1 -1 -1 -1 -1 -1 -1 -1 -1 -1 -1 -1 -1 -1 -1 -1 -1 -1 -1 -1 -1 -1 -1 -1 -1 -1 -1 -1 -1 -1 -1 -1 -1 -1 -1 -1 -1 -1 -1 -1 -1 -1 -1 -1 -1 -1 -1 -1 -1 -1 -1 -1 -1 -1 -1 -1 -1 -1 -1 -1 -1 -1 -1 -1 -1 -1 -1 -1 -1 -1 -1 -1 -1 -1 -1 -1 -1 -1 -1 -1 -1 -1 -1 -1 -1 -1 -1 -1
        </DataArray>
      </CellData>
      <Points>
        <DataArray type="Float64" NumberOfComponents="3" format="ascii">
          -0.5 0.050000000000000003 0 -0.40000000000000002 0.050000000000000003 0 -0.29999999999999999 0.050000000000000003 0 -0.19999999999999996 0.050000000000000003 0 -0.099999999999999978 0.050000000000000003 0 0 0.050000000000000003 0 0.10000000000000009 0.050000000000000003 0 0.20000000000000007 0.050000000000000003 0 0.30000000000000004 0.050000000000000003 0 0.40000000000000002 0.050000000000000003 0 0.5 0.050000000000000003 0 -0.5 0.15000000000000002 0 -0.40000000000000002 0.15000000000000002 0 -0.29999999999999999 0.15000000000000002 0 -0.19999999999999996 0.15000000000000002 0 -0.099999999999999978 0.15000000000000002 0 0 0.15000000000000002 0 0.10000000000000009 0.15000000000000002 0 0.20000000000000007 0.15000000000000002 0 0.30000000000000004 0.15000000000000002 0 0.40000000000000002 0.15000000000000002 0 0.5 0.15000000000000002 0 -0.5 0.25 0 -0.40000000000000002 0.25 0 -0.29999999999999999 0.25 0 -0.19999999999999996 0.25 0 -0.099999999999999978 0.25 0 0 0.25 0 0.10000000000000009 0.25 0 0.20000000000000007 0.25 0 0.30000000000000004 0.25 0 0.40000000000000002 0.25 0 0.5 0.25 0 -0.5 0.35000000000000003 0 -0.40000000000000002 0.35000000000000003 0 -0.29999999999999999 0.35000000000000003 0 -0.19999999999999996 0.35000000000000003 0 -0.099999999999999978 0.35000000000000003 0 0 0.35000000000000003 0 0.10000000000000009 0.35000000000000003 0 0.20000000000000007 0.35000000000000003 0 0.30000000000000004 0.35000000000000003 0 0.40000000000000002 0.35000000000000003 0 0.5 0.35000000000000003 0 -0.5 0.45000000000000001 0 -0.40000000000000002 0.45000000000000001 0 -0.29999999999999999 0.45000000000000001 0 -0.19999999999999996 0.45000000000000001 0 -0.099999999999999978 0.45000000000000001 0 0 0.45000000000000001 0 0.10000000000000009 0.45000000000000001 0 0.20000000000000007 0.45000000000000001 0 0.30000000000000004 0.45000000000000001 0 0.40000000000000002 0.45000000000000001 0 0.5 0.45000000000000001 0 -0.5 0.55000000000000004 0 -0.40000000000000002 0.55000000000000004 0 -0.29999999999999999 0.55000000000000004 0 -0.19999999999999996 0.55000000000000004 0 -0.099999999999999978 0.55000000000000004 0 0 0.55000000000000004 0 0.10000000000000009 0.55000000000000004 0 0.20000000000000007 0.55000000000000004 0 0.30000000000000004 0.55000000000000004 0 0.40000000000000002 0.55000000000000004 0 0.5 0.55000000000000004 0 -0.5 0.65000000000000013 0 -0.40000000000000002 0.65000000000000013 0 -0.29999999999999999 0.65000000000000013 0 -0.19999999999999996 0.65000000000000013 0 -0.099999999999999978 0.65000000000000013 0 0 0.65000000000000013 0 0.10000000000000009 0.65000000000000013 0 0.20000000000000007 0.65000000000000013 0 0.30000000000000004 0.65000000000000013 0 0.40000000000000002 0.65000000000000013 0 0.5 0.65000000000000013 0 -0.5 0.75000000000000011 0 -0.40000000000000002 0.75000000000000011 0 -0.29999999999999999 0.75000000000000011 0 -0.19999999999999996 0.75000000000000011 0 -0.099999999999999978 0.75000000000000011 0 0 0.75000000000000011 0 0.10000000000000009 0.75000000000000011 0 0.20000000000000007 0.75000000000000011 0 0.30000000000000004 0.75000000000000011 0 0.40000000000000002 0.75000000000000011 0 0.5 0.75000000000000011 0 -0.5 0.85000000000000009 0 -0.40000000000000002 0.85000000000000009 0 -0.29999999999999999 0.85000000000000009 0 -0.19999999999999996 0.85000000000000009 0 -0.099999999999999978 0.85000000000000009 0 0 0.85000000000000009 0 0.10000000000000009 0.85000000000000009 0 0.20000000000000007 0.85000000000000009 0 0.30000000000000004 0.85000000000000009 0 0.40000000000000002 0.85000000000000009 0 0.5 0.85000000000000009 0 -0.5 0.95000000000000007 0 -0.40000000000000002 0.95000000000000007 0 -0.29999999999999999 0.95000000000000007 0 -0.19999999999999996 0.95000000000000007 0 -0.099999999999999978 0.95000000000000007 0 0 0.95000000000000007 0 0.10000000000000009 0.95000000000000007 0 0.20000000000000007 0.95000000000000007 0 0.30000000000000004 0.95000000000000007 0 0.40000000000000002 0.95000000000000007 0 0.5 0.95000000000000007 0 -0.5 1.05 0 -0.40000000000000002 1.05 0 -0.29999999999999999 1.05 0 -0.19999999999999996 1.05 0 -0.099999999999999978 1.05 0 0 1.05 0 0.10000000000000009 1.05 0 0.20000000000000007 1.05 0 0.30000000000000004 1.05 0 0.40000000000000002 1.05 0 0.5 1.05 0
        </DataArray>
      </Points>
      <Cells>
        <DataArray type="Int32" Name="connectivity" format="ascii">
          12 11 0 1 13 12 1 2 14 13 2 3 15 14 3 4 16 15 4 5 17 16 5 6 18 17 6 7 19 18 7 8 20 19 8 9 21 20 9 10 23 22 11 12 24 23 12 13 25 24 13 14 26 25 14 15 27 26 15 16 28 27 16 17 29 28 17 18 30 29 18 19 31 30 19 20 32 31 20 21 34 33 22 23 35 34 23 24 36 35 24 25 37 36 25 26 38 37 26 27 39 38 27 28 40 39 28 29 41 40 29 30 42 41 30 31 43 42 31 32 45 44 33 34 46 45 34 35 47 46 35 36 48 47 36 37 49 48 37 38 50 49 38 39 51 50 39 40 52 51 40 41 53 52 41 42 54 53 42 43 56 55 44 45 57 56 45 46 58 57 46 47 59 58 47 48 60 59 48 49 61 60 49 50 62 61 50 51 63 62 51 52 64 63 52 53 65 64 53 54 67 66 55 56 68 67 56 57 69 68 57 58 70 69 58 59 71 70 59 60 72 71 60 61 73 72 61 62 74 73 62 63 75 74 63 64 76 75 64 65 78 77 66 67 79 78 67 68 80 79 68 69 81 80 69 70 82 81 70 71 83 82 71 72 84 83 72 73 85 84 73 74 86 85 74 75 87 86 75 76 89 88 77 78 90 89 78 79 91 90 79 80 92 91 80 81 93 92 81 82 94 93 82 83 95 94 83 84 96 95 84 85 97 96 85 86 98 97 86 87 100 99 88 89 101 100 89 90 102 101 90 91 103 102 91 92 104 103 92 93 105 104 93 94 106 105 94 95 107 106 95 96 108 107 96 97 109 108 97 98 111 110 99 100 112 111 100 101 113 112 101 102 114 113 102 103 115 114 103 104 116 115 104 105 117 116 105 106 118 117 106 107 119 118 107 108 120 119 108 109
        </DataArray>
        <DataArray type="Int32" Name="offsets" format="ascii">
          4 8 12 16 20 24 28 32 36 40 44 48 52 56 60 64 68 72 76 80 84 88 92 96 100 104 108 112 116 120 124 128 132 136 140 144 148 152 156 160 164 168 172 176 180 184 188 192 196 200 204 208 212 216 220 224 228 232 236 240 244 248 252 256 260 264 268 272 276 280 284 288 292 296 300 304 308 312 316 320 324 328 332 336 340 344 348 352 356 360 364 368 372 376 380 384 388 392 396 400
        </DataArray>
        <DataArray type="UInt8" Name="types" format="ascii">
          9 9 9 9 9 9 9 9 9 9 9 9 9 9 9 9 9 9 9 9 9 9 9 9 9 9 9 9 9 9 9 9 9 9 9 9 9 9 9 9 9 9 9 9 9 9 9 9 9 9 9 9 9 9 9 9 9 9 9 9 9 9 9 9 9 9 9 9 9 9 9 9 9 9 9 9 9 9 9 9 9 9 9 9 9 9 9 9 9 9 9 9 9 9 9 9 9 9 9 9
        </DataArray>
      </Cells>
    </Piece>
  </UnstructuredGrid>
</VTKFile>
