<?xml version="1.0"?>
<VTKFile type="UnstructuredGrid" version="0.1" byte_order="LittleEndian">
  <UnstructuredGrid>
    <Piece NumberOfPoints="36" NumberOfCells="25">
      <PointData Vectors="displacement">
        <DataArray type="Float64" Name="displacement" NumberOfComponents="3" format="ascii">
          0 0 0 0.020259995676250437 0 0 0.040519991352500936 0 0 0.060779987028751432 0 0 0.08103998270500197 0 0 0.10129997838125246 0 0 -1.0717367437003526e-17 -0.01999999999999999 0 0.020259995676250475 -0.019999999999999997 0 0.040519991352500957 -0.019999999999999993 0 0.06077998702875146 -0.020000000000000004 0 0.081039982705001928 -0.020000000000000007 0 0.10129997838125242 -0.020000000000000007 0 -1.0160759152164655e-17 -0.03999999999999998 0 0.020259995676250472 -0.040000000000000001 0 0.040519991352500964 -0.040000000000000001 0 0.060779987028751467 -0.039999999999999994 0 0.081039982705001942 -0.040000000000000008 0 0.10129997838125242 -0.040000000000000022 0 -1.1712830935147893e-17 -0.060000000000000019 0 0.020259995676250482 -0.060000000000000012 0 0.040519991352500985 -0.060000000000000012 0 0.06077998702875146 -0.060000000000000012 0 0.081039982705001928 -0.060000000000000012 0 0.10129997838125242 -0.060000000000000012 0 3.5725537745374303e-18 -0.080000000000000016 0 0.020259995676250486 -0.080000000000000016 0 0.040519991352500971 -0.080000000000000002 0 0.060779987028751453 -0.080000000000000002 0 0.081039982705001942 -0.080000000000000016 0 0.1012999783812524 -0.080000000000000002 0 -7.0245137147513672e-18 -0.10000000000000001 0 0.020259995676250492 -0.10000000000000001 0 0.04051999135250095 -0.10000000000000001 0 0.06077998702875146 -0.10000000000000001 0 0.081039982705001928 -0.10000000000000001 0 0.10129997838125242 -0.10000000000000001 0
        </DataArray>
        <DataArray type="Float64" Name="deformed_position" NumberOfComponents="3" format="ascii">
          -0.5 0.050000000000000003 0 -0.27974000432374957 0.050000000000000003 0 -0.059480008647499041 0.050000000000000003 0 0.16077998702875151 0.050000000000000003 0 0.381039982705002 0.050000000000000003 0 0.60129997838125249 0.050000000000000003 0 -0.5 0.23000000000000001 0 -0.27974000432374951 0.23000000000000001 0 -0.059480008647499021 0.23000000000000001 0 0.16077998702875154 0.22999999999999998 0 0.38103998270500195 0.22999999999999998 0 0.60129997838125238 0.22999999999999998 0 -0.5 0.41000000000000003 0 -0.27974000432374951 0.41000000000000003 0 -0.059480008647499014 0.41000000000000003 0 0.16077998702875157 0.41000000000000003 0 0.381039982705002 0.41000000000000003 0 0.60129997838125238 0.40999999999999998 0 -0.5 0.59000000000000008 0 -0.27974000432374951 0.59000000000000008 0 -0.059480008647498993 0.59000000000000008 0 0.16077998702875154 0.59000000000000008 0 0.38103998270500195 0.59000000000000008 0 0.60129997838125238 0.59000000000000008 0 -0.5 0.77000000000000002 0 -0.27974000432374951 0.77000000000000002 0 -0.059480008647499007 0.77000000000000013 0 0.16077998702875154 0.77000000000000013 0 0.381039982705002 0.77000000000000002 0 0.60129997838125238 0.77000000000000013 0 -0.5 0.95000000000000007 0 -0.27974000432374951 0.95000000000000007 0 -0.059480008647499027 0.95000000000000007 0 0.16077998702875154 0.95000000000000007 0 0.38103998270500195 0.95000000000000007 0 0.60129997838125238 0.95000000000000007 0
        </DataArray>
        <DataArray type="Float64" Name="displacement_magnitude" format="ascii">
          0 0.020259995676250437 0.040519991352500936 0.060779987028751432 0.08103998270500197 0.10129997838125246 0.01999999999999999 0.028468709573875803 0.045187052340319257 0.063985989272771243 0.083471425031725749 0.10325543869473515 0.03999999999999998 0.044838236191912011 0.056937419147751619 0.072761300312839353 0.090374104680638556 0.10891136589007691 0.060000000000000019 0.063328251395421378 0.072400757587243209 0.08540612872162745 0.10083391689717806 0.11773565993377795 0.080000000000000016 0.082525556192016611 0.089676472383824021 0.10046992994530848 0.11387483829550327 0.12908015192136321 0.10000000000000001 0.10203169813740086 0.10789749626013921 0.11702224926574945 0.12871471864875056 0.14234354786937906
        </DataArray>
        <DataArray type="Float64" Name="stress_2d" NumberOfComponents="3" format="ascii">
          -4.3368962981793443e-15 -3.4328598747447145 3.8922217511250467e-16 2.0785470776488659e-15 -3.4328598747447092 7.9537367523939944e-16 8.4939904534770761e-15 -3.4328598747447039 1.0169584620458985e-15 9.4224810779799014e-15 -3.4328598747447048 2.6215181525179222e-16 -2.12513341163505e-15 -3.4328598747447172 -9.9441549463657367e-16 -1.4601238525752828e-14 -3.4328598747447283 -1.680742871051229e-15 2.0785470776488659e-15 -3.4328598747447092 -1.3592812216312798e-16 -4.8753847924450506e-16 -3.4328598747447128 2.8440070102327188e-16 2.7201832086696001e-15 -3.4328598747447101 5.8842261821743904e-16 8.958235765728488e-15 -3.4328598747447043 1.5005116844423848e-16 -2.589378723886463e-15 -3.4328598747447168 -5.4312142697492509e-16 -1.4601238525752828e-14 -3.4328598747447283 -9.1422947861312057e-16 2.7201832086695997e-15 -3.4328598747447101 -3.5775473482105896e-16 -1.6672041373413818e-16 -3.4328598747447132 3.7990625572630421e-17 2.7201832086696001e-15 -3.4328598747447101 3.6788298109204316e-16 8.4939904534770761e-15 -3.4328598747447039 -5.0148715341826171e-17 1.0886471670915086e-14 -3.4328598747447012 -4.1448612934587887e-16 1.3278952888353094e-14 -3.4328598747446977 -4.2664485179033884e-16 2.7201832086695997e-15 -3.4328598747447101 3.2644918880119028e-16 5.6070868310733383e-15 -3.432859874744707 3.7467984248927591e-16 3.682407921605919e-15 -3.4328598747447079 2.0005686857354879e-16 3.682407921605919e-15 -3.4328598747447079 -2.2955413522966551e-16 1.2097800825991247e-14 -3.4328598747446994 -3.0984924727409532e-16 1.570161119850542e-14 -3.432859874744695 -1.8338698311912359e-16 8.4939904534770761e-15 -3.4328598747447039 3.5186322040140228e-16 2.3276515197887111e-15 -3.4328598747447101 2.9488501185769476e-16 -8.2577382568899232e-15 -3.4328598747447199 -8.7065861327148633e-17 -6.5821637895623484e-15 -3.4328598747447185 -3.3384261601021093e-16 -5.5925210261502714e-16 -3.4328598747447128 7.2136257868742105e-17 -6.3096572598554923e-16 -3.4328598747447132 3.9991922178962157e-16 8.4939904534770761e-15 -3.4328598747447039 -3.6029870029332747e-18 -3.8386874138996547e-15 -3.4328598747447159 1.429638630749543e-16 -1.5386301903514607e-14 -3.4328598747447279 1.6337279937118597e-18 -1.2035152968859457e-14 -3.4328598747447252 -3.4682491388142791e-16 -4.8753847924450506e-16 -3.4328598747447128 2.6826110907193659e-17 8.4939904534770761e-15 -3.4328598747447039 4.6103879241182499e-16
        </DataArray>
        <DataArray type="Float64" Name="sigma_xx" format="ascii">
          -4.3368962981793443e-15 2.0785470776488659e-15 8.4939904534770761e-15 9.4224810779799014e-15 -2.12513341163505e-15 -1.4601238525752828e-14 2.0785470776488659e-15 -4.8753847924450506e-16 2.7201832086696001e-15 8.958235765728488e-15 -2.589378723886463e-15 -1.4601238525752828e-14 2.7201832086695997e-15 -1.6672041373413818e-16 2.7201832086696001e-15 8.4939904534770761e-15 1.0886471670915086e-14 1.3278952888353094e-14 2.7201832086695997e-15 5.6070868310733383e-15 3.682407921605919e-15 3.682407921605919e-15 1.2097800825991247e-14 1.570161119850542e-14 8.4939904534770761e-15 2.3276515197887111e-15 -8.2577382568899232e-15 -6.5821637895623484e-15 -5.5925210261502714e-16 -6.3096572598554923e-16 8.4939904534770761e-15 -3.8386874138996547e-15 -1.5386301903514607e-14 -1.2035152968859457e-14 -4.8753847924450506e-16 8.4939904534770761e-15
        </DataArray>
        <DataArray type="Float64" Name="sigma_yy" format="ascii">
          -3.4328598747447145 -3.4328598747447092 -3.4328598747447039 -3.4328598747447048 -3.4328598747447172 -3.4328598747447283 -3.4328598747447092 -3.4328598747447128 -3.4328598747447101 -3.4328598747447043 -3.4328598747447168 -3.4328598747447283 -3.4328598747447101 -3.4328598747447132 -3.4328598747447101 -3.4328598747447039 -3.4328598747447012 -3.4328598747446977 -3.4328598747447101 -3.432859874744707 -3.4328598747447079 -3.4328598747447079 -3.4328598747446994 -3.432859874744695 -3.4328598747447039 -3.4328598747447101 -3.4328598747447199 -3.4328598747447185 -3.4328598747447128 -3.4328598747447132 -3.4328598747447039 -3.4328598747447159 -3.4328598747447279 -3.4328598747447252 -3.4328598747447128 -3.4328598747447039
        </DataArray>
        <DataArray type="Float64" Name="tau_xy" format="ascii">
          3.8922217511250467e-16 7.9537367523939944e-16 1.0169584620458985e-15 2.6215181525179222e-16 -9.9441549463657367e-16 -1.680742871051229e-15 -1.3592812216312798e-16 2.8440070102327188e-16 5.8842261821743904e-16 1.5005116844423848e-16 -5.4312142697492509e-16 -9.1422947861312057e-16 -3.5775473482105896e-16 3.7990625572630421e-17 3.6788298109204316e-16 -5.0148715341826171e-17 -4.1448612934587887e-16 -4.2664485179033884e-16 3.2644918880119028e-16 3.7467984248927591e-16 2.0005686857354879e-16 -2.2955413522966551e-16 -3.0984924727409532e-16 -1.8338698311912359e-16 3.5186322040140228e-16 2.9488501185769476e-16 -8.7065861327148633e-17 -3.3384261601021093e-16 7.2136257868742105e-17 3.9991922178962157e-16 -3.6029870029332747e-18 1.429638630749543e-16 1.6337279937118597e-18 -3.4682491388142791e-16 2.6826110907193659e-17 4.6103879241182499e-16
        </DataArray>
        <DataArray type="Float64" Name="sigma_zz" format="ascii">
          -1.8138341160646627 -1.8138341160646569 -1.8138341160646512 -1.8138341160646512 -1.8138341160646629 -1.8138341160646745 -1.8138341160646569 -1.8138341160646598 -1.8138341160646569 -1.8138341160646512 -1.8138341160646627 -1.8138341160646745 -1.8138341160646569 -1.8138341160646598 -1.8138341160646569 -1.8138341160646512 -1.8138341160646483 -1.8138341160646454 -1.8138341160646569 -1.8138341160646541 -1.8138341160646556 -1.8138341160646556 -1.8138341160646467 -1.8138341160646425 -1.8138341160646512 -1.8138341160646569 -1.8138341160646672 -1.8138341160646658 -1.8138341160646598 -1.8138341160646598 -1.8138341160646512 -1.8138341160646627 -1.8138341160646743 -1.8138341160646716 -1.8138341160646598 -1.8138341160646512
        </DataArray>
        <DataArray type="Float64" Name="von_mises_stress" format="ascii">
          2.9745390842533781 2.974539084253379 2.9745390842533799 2.9745390842533816 2.9745390842533816 2.9745390842533808 2.974539084253379 2.9745390842533799 2.9745390842533799 2.9745390842533803 2.9745390842533812 2.9745390842533808 2.9745390842533799 2.9745390842533803 2.9745390842533799 2.9745390842533799 2.9745390842533794 2.9745390842533785 2.9745390842533799 2.9745390842533799 2.974539084253379 2.974539084253379 2.974539084253379 2.9745390842533781 2.9745390842533799 2.9745390842533794 2.974539084253379 2.974539084253379 2.9745390842533794 2.9745390842533799 2.9745390842533799 2.9745390842533794 2.9745390842533794 2.9745390842533803 2.9745390842533799 2.9745390842533799
        </DataArray>
        <DataArray type="Float64" Name="cauchy_stress_2d" NumberOfComponents="3" format="ascii">
          -4.3368962981793443e-15 -3.4328598747447145 3.8922217511250467e-16 2.0785470776488659e-15 -3.4328598747447092 7.9537367523939944e-16 8.4939904534770761e-15 -3.4328598747447039 1.0169584620458985e-15 9.4224810779799014e-15 -3.4328598747447048 2.6215181525179222e-16 -2.12513341163505e-15 -3.4328598747447172 -9.9441549463657367e-16 -1.4601238525752828e-14 -3.4328598747447283 -1.680742871051229e-15 2.0785470776488659e-15 -3.4328598747447092 -1.3592812216312798e-16 -4.8753847924450506e-16 -3.4328598747447128 2.8440070102327188e-16 2.7201832086696001e-15 -3.4328598747447101 5.8842261821743904e-16 8.958235765728488e-15 -3.4328598747447043 1.5005116844423848e-16 -2.589378723886463e-15 -3.4328598747447168 -5.4312142697492509e-16 -1.4601238525752828e-14 -3.4328598747447283 -9.1422947861312057e-16 2.7201832086695997e-15 -3.4328598747447101 -3.5775473482105896e-16 -1.6672041373413818e-16 -3.4328598747447132 3.7990625572630421e-17 2.7201832086696001e-15 -3.4328598747447101 3.6788298109204316e-16 8.4939904534770761e-15 -3.4328598747447039 -5.0148715341826171e-17 1.0886471670915086e-14 -3.4328598747447012 -4.1448612934587887e-16 1.3278952888353094e-14 -3.4328598747446977 -4.2664485179033884e-16 2.7201832086695997e-15 -3.4328598747447101 3.2644918880119028e-16 5.6070868310733383e-15 -3.432859874744707 3.7467984248927591e-16 3.682407921605919e-15 -3.4328598747447079 2.0005686857354879e-16 3.682407921605919e-15 -3.4328598747447079 -2.2955413522966551e-16 1.2097800825991247e-14 -3.4328598747446994 -3.0984924727409532e-16 1.570161119850542e-14 -3.432859874744695 -1.8338698311912359e-16 8.4939904534770761e-15 -3.4328598747447039 3.5186322040140228e-16 2.3276515197887111e-15 -3.4328598747447101 2.9488501185769476e-16 -8.2577382568899232e-15 -3.4328598747447199 -8.7065861327148633e-17 -6.5821637895623484e-15 -3.4328598747447185 -3.3384261601021093e-16 -5.5925210261502714e-16 -3.4328598747447128 7.2136257868742105e-17 -6.3096572598554923e-16 -3.4328598747447132 3.9991922178962157e-16 8.4939904534770761e-15 -3.4328598747447039 -3.6029870029332747e-18 -3.8386874138996547e-15 -3.4328598747447159 1.429638630749543e-16 -1.5386301903514607e-14 -3.4328598747447279 1.6337279937118597e-18 -1.2035152968859457e-14 -3.4328598747447252 -3.4682491388142791e-16 -4.8753847924450506e-16 -3.4328598747447128 2.6826110907193659e-17 8.4939904534770761e-15 -3.4328598747447039 4.6103879241182499e-16
        </DataArray>
        <DataArray type="Float64" Name="green_lagrange_strain_2d" NumberOfComponents="3" format="ascii">
          0.10643082119127345 -0.094999999999999973 3.0944005895873422e-17 0.10643082119127351 -0.094999999999999973 5.7194366179594276e-17 0.10643082119127356 -0.094999999999999973 7.4618648824677211e-17 0.10643082119127364 -0.095000000000000029 2.2783039875830328e-17 0.10643082119127364 -0.095000000000000084 -7.047639418205252e-17 0.10643082119127356 -0.095000000000000084 -1.207262969297264e-16 0.10643082119127351 -0.094999999999999973 -1.2182873532513411e-18 0.10643082119127353 -0.095000000000000001 2.33322609050813e-17 0.10643082119127356 -0.095000000000000001 4.3123140146021975e-17 0.1064308211912736 -0.095000000000000001 1.5821160979622782e-17 0.1064308211912736 -0.095000000000000057 -3.4240797189017208e-17 0.10643082119127356 -0.095000000000000084 -6.1760445208649985e-17 0.10643082119127356 -0.095000000000000001 -1.5973229792815046e-17 0.10643082119127356 -0.095000000000000015 6.1327502432321083e-18 0.10643082119127356 -0.095000000000000001 2.3918056297362334e-17 0.10643082119127356 -0.094999999999999973 -3.3943187238207605e-19 0.10643082119127355 -0.094999999999999973 -2.1537511437597501e-17 0.10643082119127353 -0.094999999999999973 -2.2798776814985447e-17 0.10643082119127356 -0.095000000000000001 2.2088394936955572e-17 0.10643082119127356 -0.094999999999999987 2.3493688391108596e-17 0.10643082119127352 -0.094999999999999973 1.0722561597321784e-17 0.10643082119127352 -0.094999999999999973 -1.4067383141420709e-17 0.10643082119127353 -0.094999999999999959 -1.9483258566109183e-17 0.10643082119127351 -0.094999999999999946 -1.4285609499995006e-17 0.10643082119127356 -0.094999999999999973 2.0620781502138888e-17 0.10643082119127353 -0.094999999999999987 1.3734251638907866e-17 0.10643082119127349 -0.095000000000000015 -1.0351392357551293e-17 0.10643082119127351 -0.095000000000000015 -2.0646933414625179e-17 0.10643082119127353 -0.095000000000000001 2.0268789633044882e-18 0.10643082119127353 -0.095000000000000001 1.7797118265079906e-17 0.10643082119127356 -0.094999999999999973 -1.5011058528873541e-18 0.10643082119127351 -0.095000000000000001 3.2764713514944308e-18 0.10643082119127351 -0.095000000000000057 -5.9394267823882158e-18 0.10643082119127353 -0.095000000000000057 -2.2697246374588335e-17 0.10643082119127353 -0.095000000000000001 -2.0495476203857629e-18 0.10643082119127356 -0.094999999999999973 2.1362495387752496e-17
        </DataArray>
        <DataArray type="Float64" Name="jacobian_determinant" format="ascii">
          0.99116998054312722 0.99116998054312722 0.99116998054312722 0.9911699805431271 0.9911699805431271 0.9911699805431271 0.99116998054312722 0.9911699805431271 0.99116998054312722 0.99116998054312722 0.9911699805431271 0.9911699805431271 0.99116998054312722 0.99116998054312722 0.99116998054312722 0.99116998054312722 0.99116998054312722 0.99116998054312722 0.99116998054312722 0.99116998054312722 0.99116998054312722 0.99116998054312722 0.99116998054312733 0.99116998054312733 0.99116998054312722 0.9911699805431271 0.9911699805431271 0.9911699805431271 0.99116998054312722 0.99116998054312722 0.99116998054312722 0.9911699805431271 0.9911699805431271 0.9911699805431271 0.9911699805431271 0.99116998054312722
        </DataArray>
        <DataArray type="Float64" Name="strain_energy_density" format="ascii">
          0.17942581305321259 0.17942581305321229 0.17942581305321198 0.17942581305321292 0.17942581305321351 0.17942581305321315 0.17942581305321229 0.17942581305321242 0.17942581305321226 0.17942581305321248 0.17942581305321303 0.17942581305321315 0.17942581305321229 0.17942581305321242 0.17942581305321226 0.17942581305321198 0.1794258130532122 0.17942581305321242 0.17942581305321229 0.17942581305321215 0.1794258130532122 0.1794258130532122 0.17942581305321201 0.17942581305321204 0.17942581305321198 0.17942581305321215 0.17942581305321267 0.1794258130532127 0.17942581305321231 0.17942581305321217 0.17942581305321198 0.17942581305321231 0.17942581305321292 0.17942581305321301 0.17942581305321242 0.17942581305321198
        </DataArray>
        <DataArray type="Float64" Name="strain_2d" NumberOfComponents="3" format="ascii">
          0.10643082119127345 -0.094999999999999973 3.0944005895873422e-17 0.10643082119127351 -0.094999999999999973 5.7194366179594276e-17 0.10643082119127356 -0.094999999999999973 7.4618648824677211e-17 0.10643082119127364 -0.095000000000000029 2.2783039875830328e-17 0.10643082119127364 -0.095000000000000084 -7.047639418205252e-17 0.10643082119127356 -0.095000000000000084 -1.207262969297264e-16 0.10643082119127351 -0.094999999999999973 -1.2182873532513411e-18 0.10643082119127353 -0.095000000000000001 2.33322609050813e-17 0.10643082119127356 -0.095000000000000001 4.3123140146021975e-17 0.1064308211912736 -0.095000000000000001 1.5821160979622782e-17 0.1064308211912736 -0.095000000000000057 -3.4240797189017208e-17 0.10643082119127356 -0.095000000000000084 -6.1760445208649985e-17 0.10643082119127356 -0.095000000000000001 -1.5973229792815046e-17 0.10643082119127356 -0.095000000000000015 6.1327502432321083e-18 0.10643082119127356 -0.095000000000000001 2.3918056297362334e-17 0.10643082119127356 -0.094999999999999973 -3.3943187238207605e-19 0.10643082119127355 -0.094999999999999973 -2.1537511437597501e-17 0.10643082119127353 -0.094999999999999973 -2.2798776814985447e-17 0.10643082119127356 -0.095000000000000001 2.2088394936955572e-17 0.10643082119127356 -0.094999999999999987 2.3493688391108596e-17 0.10643082119127352 -0.094999999999999973 1.0722561597321784e-17 0.10643082119127352 -0.094999999999999973 -1.4067383141420709e-17 0.10643082119127353 -0.094999999999999959 -1.9483258566109183e-17 0.10643082119127351 -0.094999999999999946 -1.4285609499995006e-17 0.10643082119127356 -0.094999999999999973 2.0620781502138888e-17 0.10643082119127353 -0.094999999999999987 1.3734251638907866e-17 0.10643082119127349 -0.095000000000000015 -1.0351392357551293e-17 0.10643082119127351 -0.095000000000000015 -2.0646933414625179e-17 0.10643082119127353 -0.095000000000000001 2.0268789633044882e-18 0.10643082119127353 -0.095000000000000001 1.7797118265079906e-17 0.10643082119127356 -0.094999999999999973 -1.5011058528873541e-18 0.10643082119127351 -0.095000000000000001 3.2764713514944308e-18 0.10643082119127351 -0.095000000000000057 -5.9394267823882158e-18 0.10643082119127353 -0.095000000000000057 -2.2697246374588335e-17 0.10643082119127353 -0.095000000000000001 -2.0495476203857629e-18 0.10643082119127356 -0.094999999999999973 2.1362495387752496e-17
        </DataArray>
        <DataArray type="Float64" Name="strain_xx" format="ascii">
          0.10643082119127345 0.10643082119127351 0.10643082119127356 0.10643082119127364 0.10643082119127364 0.10643082119127356 0.10643082119127351 0.10643082119127353 0.10643082119127356 0.1064308211912736 0.1064308211912736 0.10643082119127356 0.10643082119127356 0.10643082119127356 0.10643082119127356 0.10643082119127356 0.10643082119127355 0.10643082119127353 0.10643082119127356 0.10643082119127356 0.10643082119127352 0.10643082119127352 0.10643082119127353 0.10643082119127351 0.10643082119127356 0.10643082119127353 0.10643082119127349 0.10643082119127351 0.10643082119127353 0.10643082119127353 0.10643082119127356 0.10643082119127351 0.10643082119127351 0.10643082119127353 0.10643082119127353 0.10643082119127356
        </DataArray>
        <DataArray type="Float64" Name="strain_yy" format="ascii">
          -0.094999999999999973 -0.094999999999999973 -0.094999999999999973 -0.095000000000000029 -0.095000000000000084 -0.095000000000000084 -0.094999999999999973 -0.095000000000000001 -0.095000000000000001 -0.095000000000000001 -0.095000000000000057 -0.095000000000000084 -0.095000000000000001 -0.095000000000000015 -0.095000000000000001 -0.094999999999999973 -0.094999999999999973 -0.094999999999999973 -0.095000000000000001 -0.094999999999999987 -0.094999999999999973 -0.094999999999999973 -0.094999999999999959 -0.094999999999999946 -0.094999999999999973 -0.094999999999999987 -0.095000000000000015 -0.095000000000000015 -0.095000000000000001 -0.095000000000000001 -0.094999999999999973 -0.095000000000000001 -0.095000000000000057 -0.095000000000000057 -0.095000000000000001 -0.094999999999999973
        </DataArray>
        <DataArray type="Float64" Name="gamma_xy" format="ascii">
          3.0944005895873422e-17 5.7194366179594276e-17 7.4618648824677211e-17 2.2783039875830328e-17 -7.047639418205252e-17 -1.207262969297264e-16 -1.2182873532513411e-18 2.33322609050813e-17 4.3123140146021975e-17 1.5821160979622782e-17 -3.4240797189017208e-17 -6.1760445208649985e-17 -1.5973229792815046e-17 6.1327502432321083e-18 2.3918056297362334e-17 -3.3943187238207605e-19 -2.1537511437597501e-17 -2.2798776814985447e-17 2.2088394936955572e-17 2.3493688391108596e-17 1.0722561597321784e-17 -1.4067383141420709e-17 -1.9483258566109183e-17 -1.4285609499995006e-17 2.0620781502138888e-17 1.3734251638907866e-17 -1.0351392357551293e-17 -2.0646933414625179e-17 2.0268789633044882e-18 1.7797118265079906e-17 -1.5011058528873541e-18 3.2764713514944308e-18 -5.9394267823882158e-18 -2.2697246374588335e-17 -2.0495476203857629e-18 2.1362495387752496e-17
        </DataArray>
        <DataArray type="Float64" Name="reaction_force" NumberOfComponents="3" format="ascii">
          1.0482219056978518e-15 0.37806085058422229 0 -2.0454928430264486e-15 0.75612170116844335 0 -1.9705120760184835e-16 0.75612170116844235 0 -1.570595026273559e-15 0.75612170116844268 0 3.8001581360976796e-15 0.75612170116844535 0 -1.1309016673092718e-15 0.37806085058422356 0 -9.6134704566021531e-16 -1.1657341758564144e-15 0 1.8743309096707015e-15 1.4432899320127035e-15 0 -1.9251281184302711e-15 2.7755575615628914e-15 0 1.2344142584198178e-15 0 0 2.7747731305772775e-15 -1.1102230246251565e-16 0 -2.7857548352950757e-15 -2.2204460492503131e-16 0 -5.4785736682234824e-16 2.1094237467877974e-15 0 9.0802378949566251e-16 -2.4424906541753444e-15 0 -2.1896243215719595e-15 -2.7755575615628914e-15 0 4.8722525443680883e-17 1.1102230246251565e-16 0 -6.2084344709113085e-17 -7.5495165674510645e-15 0 1.8102218740520473e-15 -6.2172489379008766e-15 0 -5.8699763875563681e-16 -2.2759572004815709e-15 0 -1.0712444280365371e-15 -5.5511151231257827e-16 0 2.2709198955982447e-15 2.1649348980190553e-15 0 -2.019302529735236e-15 1.5543122344752192e-15 0 -2.5291600926248809e-15 7.8825834748386114e-15 0 3.7226493696485695e-15 4.163336342344337e-15 0 -1.4260027551590192e-15 0 0 1.5776407742830635e-15 1.7763568394002505e-15 0 1.9173337276951954e-15 4.3298697960381105e-15 0 -2.2285526691121873e-15 3.7192471324942744e-15 0 8.0783457964848922e-16 -1.9984014443252818e-15 0 -5.2989152028950509e-16 -8.3266726846886741e-16 0 -7.8247828400115355e-16 -0.37806085058422106 0 2.9655168227017152e-15 -0.75612170116844402 0 -8.5187458499775109e-16 -0.75612170116844846 0 -1.8707340699237834e-16 -0.75612170116844746 0 -1.9710762356356487e-15 -0.75612170116844368 0 8.3872922301004972e-16 -0.37806085058422101 0
        </DataArray>
        <DataArray type="Float64" Name="reaction_force_magnitude" format="ascii">
          0.37806085058422229 0.75612170116844335 0.75612170116844235 0.75612170116844268 0.75612170116844535 0.37806085058422356 1.5110010956181527e-15 2.3656293426477941e-15 3.3778451785006104e-15 1.2344142584198178e-15 2.7769933161276609e-15 2.7945900967666452e-15 2.1794073134441361e-15 2.6058142293770607e-15 3.5352757243485844e-15 1.2124288073816311e-16 7.5497718421205323e-15 6.4754218078149999e-15 2.3504355780000869e-15 1.2065294922633616e-15 3.1375181728373655e-15 2.5482286453209944e-15 8.2783919339401327e-15 5.5849340039816057e-15 1.4260027551590192e-15 2.3757933482448575e-15 4.735392388598928e-15 4.3358097550023956e-15 2.1555057505739166e-15 9.8697507732167584e-16 0.37806085058422106 0.75612170116844402 0.75612170116844846 0.75612170116844746 0.75612170116844368 0.37806085058422101
        </DataArray>
      </PointData>
      <CellData>
        <DataArray type="Int32" Name="element_id" format="ascii">
          1 2 3 4 5 6 7 8 9 10 11 12 13 14 15 16 17 18 19 20 21 22 23 24 25
        </DataArray>
        <DataArray type="Int32" Name="material_id" format="ascii">
          1 1 1 1 1 1 1 1 1 1 1 1 1 1 1 1 1 1 1 1 1 1 1 1 1
        </DataArray>
        <DataArray type="Float64" Name="cell_jacobian_determinant" format="ascii">
          0.99116998054312722 0.99116998054312722 0.99116998054312722 0.9911699805431271 0.9911699805431271 0.99116998054312722 0.9911699805431271 0.99116998054312722 0.99116998054312722 0.9911699805431271 0.99116998054312722 0.99116998054312722 0.99116998054312722 0.99116998054312722 0.99116998054312733 0.99116998054312722 0.99116998054312722 0.99116998054312722 0.99116998054312722 0.99116998054312722 0.99116998054312722 0.9911699805431271 0.9911699805431271 0.9911699805431271 0.99116998054312722
        </DataArray>
        <DataArray type="Float64" Name="cell_jacobian_determinant_min" format="ascii">
          0.9911699805431271 0.99116998054312722 0.99116998054312722 0.9911699805431271 0.9911699805431271 0.99116998054312722 0.9911699805431271 0.99116998054312722 0.99116998054312722 0.9911699805431271 0.9911699805431271 0.99116998054312722 0.99116998054312722 0.99116998054312722 0.99116998054312722 0.99116998054312722 0.99116998054312722 0.9911699805431271 0.99116998054312722 0.99116998054312699 0.99116998054312722 0.99116998054312699 0.9911699805431271 0.9911699805431271 0.99116998054312722
        </DataArray>
        <DataArray type="Float64" Name="cell_jacobian_determinant_max" format="ascii">
          0.99116998054312722 0.99116998054312722 0.99116998054312722 0.99116998054312733 0.9911699805431271 0.99116998054312722 0.9911699805431271 0.99116998054312722 0.99116998054312722 0.9911699805431271 0.99116998054312722 0.99116998054312722 0.99116998054312722 0.99116998054312722 0.99116998054312744 0.99116998054312722 0.99116998054312722 0.99116998054312722 0.99116998054312722 0.99116998054312722 0.99116998054312722 0.99116998054312722 0.9911699805431271 0.99116998054312722 0.99116998054312722
        </DataArray>
        <DataArray type="Float64" Name="cell_strain_energy_density" format="ascii">
          0.17942581305321259 0.17942581305321198 0.17942581305321198 0.17942581305321387 0.17942581305321315 0.17942581305321198 0.17942581305321315 0.17942581305321198 0.17942581305321198 0.17942581305321315 0.17942581305321259 0.17942581305321198 0.17942581305321198 0.17942581305321198 0.17942581305321167 0.17942581305321198 0.17942581305321198 0.17942581305321287 0.17942581305321198 0.17942581305321237 0.17942581305321198 0.17942581305321267 0.17942581305321315 0.17942581305321287 0.17942581305321198
        </DataArray>
        <DataArray type="Float64" Name="cell_cauchy_stress_2d" NumberOfComponents="3" format="ascii">
          -4.3368962981793443e-15 -3.4328598747447145 3.8922217511250467e-16 8.4939904534770761e-15 -3.4328598747447039 1.2015251753662943e-15 8.4939904534770761e-15 -3.4328598747447039 8.323917487255028e-16 1.0350971702482728e-14 -3.4328598747447057 -3.0808811822191835e-16 -1.4601238525752828e-14 -3.4328598747447283 -1.680742871051229e-15 8.4939904534770761e-15 -3.4328598747447039 -6.6107841943876064e-16 -1.4601238525752828e-14 -3.4328598747447283 2.0793387305304913e-16 8.4939904534770761e-15 -3.4328598747447039 1.1183967572491011e-16 8.4939904534770761e-15 -3.4328598747447039 -3.5938632451540679e-17 -1.4601238525752828e-14 -3.4328598747447283 -1.4771608617501231e-16 -3.0536240361378764e-15 -3.4328598747447163 -5.4431050203357309e-17 8.4939904534770761e-15 -3.4328598747447039 6.5953809887959053e-16 8.4939904534770761e-15 -3.4328598747447039 4.9222027671062297e-16 8.4939904534770761e-15 -3.4328598747447039 -7.6871618135129713e-16 4.1159144302459016e-14 -3.4328598747446675 -7.0557361740566534e-16 8.4939904534770761e-15 -3.4328598747447039 7.0732942780573784e-16 8.4939904534770761e-15 -3.4328598747447039 1.862828934751327e-16 -1.0752339674007554e-14 -3.4328598747447194 -5.3781379477115092e-16 8.4939904534770761e-15 -3.4328598747447039 -1.0390684150683706e-16 -9.7559219054481746e-15 -3.4328598747447225 3.3879965116741816e-16 8.4939904534770761e-15 -3.4328598747447039 -3.6029870029332747e-18 -1.6171365281276386e-14 -3.4328598747447279 2.8953071315284187e-16 -1.4601238525752828e-14 -3.4328598747447283 -2.8626325716541815e-16 -9.4690674119660862e-15 -3.4328598747447217 -4.0738657059743767e-16 8.4939904534770761e-15 -3.4328598747447039 4.6103879241182499e-16
        </DataArray>
        <DataArray type="Float64" Name="cell_sigma_zz" format="ascii">
          -1.8138341160646627 -1.8138341160646512 -1.8138341160646512 -1.8138341160646514 -1.8138341160646745 -1.8138341160646512 -1.8138341160646745 -1.8138341160646512 -1.8138341160646512 -1.8138341160646745 -1.8138341160646627 -1.8138341160646512 -1.8138341160646512 -1.8138341160646512 -1.8138341160646165 -1.8138341160646512 -1.8138341160646512 -1.8138341160646687 -1.8138341160646512 -1.8138341160646685 -1.8138341160646512 -1.8138341160646743 -1.8138341160646745 -1.8138341160646685 -1.8138341160646512
        </DataArray>
        <DataArray type="Float64" Name="cell_von_mises_stress" format="ascii">
          2.9745390842533781 2.9745390842533799 2.9745390842533799 2.9745390842533825 2.9745390842533808 2.9745390842533799 2.9745390842533808 2.9745390842533799 2.9745390842533799 2.9745390842533808 2.9745390842533808 2.9745390842533799 2.9745390842533799 2.9745390842533799 2.9745390842533763 2.9745390842533799 2.9745390842533799 2.9745390842533763 2.9745390842533799 2.9745390842533799 2.9745390842533799 2.9745390842533785 2.9745390842533808 2.974539084253379 2.9745390842533799
        </DataArray>
        <DataArray type="Float64" Name="cell_second_piola_stress_2d" NumberOfComponents="3" format="ascii">
          -3.5441811903951417e-15 -4.2006761176024696 6.4531210159896213e-16 6.9414251867740738e-15 -4.2006761176024563 1.740171973292356e-15 6.9414251867740738e-15 -4.2006761176024563 1.3720506169928103e-15 8.4589800373258909e-15 -4.2006761176024607 -4.2180704526148282e-16 -1.1932366231853587e-14 -4.2006761176024874 -2.5176488348708414e-15 6.9414251867740738e-15 -4.2006761176024563 -6.9612488743693843e-16 -1.1932366231853587e-14 -4.2006761176024874 2.5694218934586193e-16 6.9414251867740738e-15 -4.2006761176024563 2.2802742474183985e-16 6.9414251867740738e-15 -4.2006761176024563 1.4147883499353013e-16 -1.1932366231853587e-14 -4.2006761176024874 -5.827897663441709e-17 -2.4954705225397568e-15 -4.2006761176024714 2.9907428610819147e-17 6.9414251867740738e-15 -4.2006761176024563 9.2084936384396367e-16 6.9414251867740738e-15 -4.2006761176024563 5.8934754670649975e-16 6.9414251867740738e-15 -4.2006761176024563 -9.8716811011071167e-16 3.3635912648124421e-14 -4.2006761176024119 -8.9262095725719741e-16 6.9414251867740738e-15 -4.2006761176024563 8.9136363148909515e-16 6.9414251867740738e-15 -4.2006761176024563 1.1764670911489548e-16 -8.7869843789797503e-15 -4.2006761176024758 -7.3340237864752747e-16 6.9414251867740738e-15 -4.2006761176024563 -4.2232441783822066e-17 -7.9726958024725823e-15 -4.2006761176024794 2.9679139853201947e-16 6.9414251867740738e-15 -4.2006761176024563 -3.1304342944764603e-17 -1.3215498991057191e-14 -4.2006761176024856 1.6796063888630718e-16 -1.1932366231853587e-14 -4.2006761176024874 -4.1568447865892306e-16 -7.7382737111243638e-15 -4.2006761176024785 -5.3098078554646373e-16 6.9414251867740738e-15 -4.2006761176024563 4.4549748472957286e-16
        </DataArray>
        <DataArray type="Float64" Name="cell_green_lagrange_strain_2d" NumberOfComponents="3" format="ascii">
          0.10643082119127345 -0.094999999999999973 3.0944005895873422e-17 0.10643082119127356 -0.094999999999999973 8.3444726463315131e-17 0.10643082119127356 -0.094999999999999973 6.5792571186039292e-17 0.10643082119127373 -0.095000000000000084 -2.0226491434378636e-17 0.10643082119127356 -0.095000000000000084 -1.207262969297264e-16 0.10643082119127356 -0.094999999999999973 -3.3380580602376104e-17 0.10643082119127356 -0.095000000000000084 1.2320891863512754e-17 0.10643082119127356 -0.094999999999999973 1.0934371071220713e-17 0.10643082119127356 -0.094999999999999973 6.784193095609763e-18 0.10643082119127356 -0.095000000000000084 -2.7945934875735636e-18 0.10643082119127356 -0.095000000000000029 1.4341210167460083e-18 0.10643082119127356 -0.094999999999999973 4.4156568695045774e-17 0.10643082119127356 -0.094999999999999973 2.8260393559670099e-17 0.10643082119127356 -0.094999999999999973 -4.7336685216028882e-17 0.10643082119127351 -0.094999999999999862 -4.2802960142397329e-17 0.10643082119127356 -0.094999999999999973 4.2742668857165132e-17 0.10643082119127356 -0.094999999999999973 5.6413949954774712e-18 0.10643082119127339 -0.094999999999999973 -3.5168110860906211e-17 0.10643082119127356 -0.094999999999999973 -2.0251300484178381e-18 0.10643082119127351 -0.095000000000000029 1.4231741142407316e-17 0.10643082119127356 -0.094999999999999973 -1.5011058528873541e-18 0.10643082119127345 -0.095000000000000029 8.0540485558762157e-18 0.10643082119127356 -0.095000000000000084 -1.9932902120652647e-17 0.10643082119127351 -0.095000000000000029 -2.5461590628524022e-17 0.10643082119127356 -0.094999999999999973 2.1362495387752496e-17
        </DataArray>
      </CellData>
      <Points>
        <DataArray type="Float64" NumberOfComponents="3" format="ascii">
          -0.5 0.050000000000000003 0 -0.29999999999999999 0.050000000000000003 0 -0.099999999999999978 0.050000000000000003 0 0.10000000000000009 0.050000000000000003 0 0.30000000000000004 0.050000000000000003 0 0.5 0.050000000000000003 0 -0.5 0.25 0 -0.29999999999999999 0.25 0 -0.099999999999999978 0.25 0 0.10000000000000009 0.25 0 0.30000000000000004 0.25 0 0.5 0.25 0 -0.5 0.45000000000000001 0 -0.29999999999999999 0.45000000000000001 0 -0.099999999999999978 0.45000000000000001 0 0.10000000000000009 0.45000000000000001 0 0.30000000000000004 0.45000000000000001 0 0.5 0.45000000000000001 0 -0.5 0.65000000000000013 0 -0.29999999999999999 0.65000000000000013 0 -0.099999999999999978 0.65000000000000013 0 0.10000000000000009 0.65000000000000013 0 0.30000000000000004 0.65000000000000013 0 0.5 0.65000000000000013 0 -0.5 0.85000000000000009 0 -0.29999999999999999 0.85000000000000009 0 -0.099999999999999978 0.85000000000000009 0 0.10000000000000009 0.85000000000000009 0 0.30000000000000004 0.85000000000000009 0 0.5 0.85000000000000009 0 -0.5 1.05 0 -0.29999999999999999 1.05 0 -0.099999999999999978 1.05 0 0.10000000000000009 1.05 0 0.30000000000000004 1.05 0 0.5 1.05 0
        </DataArray>
      </Points>
      <Cells>
        <DataArray type="Int32" Name="connectivity" format="ascii">
          7 6 0 1 8 7 1 2 9 8 2 3 10 9 3 4 11 10 4 5 13 12 6 7 14 13 7 8 15 14 8 9 16 15 9 10 17 16 10 11 19 18 12 13 20 19 13 14 21 20 14 15 22 21 15 16 23 22 16 17 25 24 18 19 26 25 19 20 27 26 20 21 28 27 21 22 29 28 22 23 31 30 24 25 32 31 25 26 33 32 26 27 34 33 27 28 35 34 28 29
        </DataArray>
        <DataArray type="Int32" Name="offsets" format="ascii">
          4 8 12 16 20 24 28 32 36 40 44 48 52 56 60 64 68 72 76 80 84 88 92 96 100
        </DataArray>
        <DataArray type="UInt8" Name="types" format="ascii">
          9 9 9 9 9 9 9 9 9 9 9 9 9 9 9 9 9 9 9 9 9 9 9 9 9
        </DataArray>
      </Cells>
    </Piece>
  </UnstructuredGrid>
</VTKFile>
