<?xml version="1.0"?>
<VTKFile type="UnstructuredGrid" version="0.1" byte_order="LittleEndian">
  <UnstructuredGrid>
    <Piece NumberOfPoints="49" NumberOfCells="36">
      <PointData Vectors="displacement">
        <DataArray type="Float64" Name="displacement" NumberOfComponents="3" format="ascii">
          0 0 0 0.00035798354374590928 0 0 0.0007159670874916826 0 0 0.0010739506312373165 0 0 0.001431934174982981 0 0 0.0017899177187287415 0 0 0.0021479012624746672 0 0 -2.2476793806638939e-17 -0.00083333333333228897 0 0.00035798354374592245 -0.00083333333333213415 0 0.00071596708749167165 -0.00083333333333195569 0 0.0010739506312373325 -0.00083333333333188934 0 0.0014319341749829723 -0.00083333333333196588 0 0.0017899177187287452 -0.00083333333333214011 0 0.0021479012624746659 -0.00083333333333228876 0 -8.4413318289893445e-17 -0.0016666666666646671 0 0.00035798354374588277 -0.0016666666666642761 0 0.0007159670874916607 -0.001666666666663888 0 0.0010739506312373267 -0.0016666666666637496 0 0.0014319341749830042 -0.0016666666666638897 0 0.001789917718728771 -0.0016666666666642752 0 0.0021479012624747418 -0.0016666666666646738 0 -3.7066449672060382e-16 -0.0024999999999972414 0 0.00035798354374565894 -0.0024999999999963957 0 0.00071596708749149362 -0.0024999999999957907 0 0.0010739506312373228 -0.0024999999999956017 0 0.0014319341749831672 -0.0024999999999957834 0 0.0017899177187289976 -0.0024999999999963901 0 0.0021479012624750484 -0.002499999999997241 0 -1.2962642360467927e-15 -0.0033333333333299682 0 0.00035798354374487517 -0.0033333333333284442 0 0.00071596708749104042 -0.0033333333333277673 0 0.0010739506312373297 -0.0033333333333275721 0 0.0014319341749836198 -0.0033333333333277594 0 0.0017899177187297739 -0.003333333333328433 0 0.0021479012624759713 -0.0033333333333299608 0 -3.822680119011065e-15 -0.0041666666666622387 0 0.00035798354374312797 -0.0041666666666607529 0 0.00071596708749023963 -0.0041666666666600469 0 0.001073950631237326 -0.0041666666666599081 0 0.0014319341749844097 -0.0041666666666600469 0 0.0017899177187315294 -0.0041666666666607564 0 0.0021479012624784862 -0.0041666666666622248 0 -4.6384154006963884e-15 -0.0050000000000000001 0 0.00035798354374287779 -0.0050000000000000001 0 0.00071596708749010552 -0.0050000000000000001 0 0.0010739506312373135 -0.0050000000000000001 0 0.0014319341749845472 -0.0050000000000000001 0 0.0017899177187317783 -0.0050000000000000001 0 0.0021479012624792998 -0.0050000000000000001 0
        </DataArray>
        <DataArray type="Float64" Name="deformed_position" NumberOfComponents="3" format="ascii">
          -0.5 0.050000000000000003 0 -0.33297534978958748 0.050000000000000003 0 -0.16595069957917499 0.050000000000000003 0 0.0010739506312373165 0.050000000000000003 0 0.1680986008416496 0.050000000000000003 0 0.33512325105206198 0.050000000000000003 0 0.50214790126247466 0.050000000000000003 0 -0.5 0.21583333333333438 0 -0.33297534978958743 0.21583333333333454 0 -0.16595069957917502 0.21583333333333471 0 0.0010739506312373325 0.21583333333333479 0 0.1680986008416496 0.21583333333333471 0 0.33512325105206198 0.21583333333333454 0 0.50214790126247466 0.21583333333333438 0 -0.50000000000000011 0.38166666666666865 0 -0.33297534978958748 0.38166666666666904 0 -0.16595069957917502 0.38166666666666943 0 0.0010739506312373267 0.38166666666666954 0 0.16809860084164963 0.38166666666666943 0 0.33512325105206203 0.38166666666666904 0 0.50214790126247477 0.38166666666666865 0 -0.50000000000000033 0.54750000000000276 0 -0.3329753497895877 0.54750000000000365 0 -0.16595069957917519 0.54750000000000421 0 0.0010739506312373228 0.54750000000000443 0 0.16809860084164979 0.54750000000000432 0 0.33512325105206225 0.54750000000000365 0 0.50214790126247499 0.54750000000000276 0 -0.50000000000000133 0.71333333333333671 0 -0.33297534978958848 0.71333333333333826 0 -0.16595069957917563 0.71333333333333893 0 0.0010739506312373297 0.71333333333333915 0 0.16809860084165024 0.71333333333333893 0 0.33512325105206303 0.71333333333333826 0 0.50214790126247599 0.71333333333333671 0 -0.50000000000000377 0.87916666666667109 0 -0.33297534978959026 0.87916666666667254 0 -0.16595069957917644 0.8791666666666732 0 0.001073950631237326 0.87916666666667342 0 0.16809860084165104 0.8791666666666732 0 0.33512325105206481 0.87916666666667254 0 0.50214790126247844 0.87916666666667109 0 -0.50000000000000466 1.0450000000000002 0 -0.33297534978959048 1.0450000000000002 0 -0.16595069957917657 1.0450000000000002 0 0.0010739506312373135 1.0450000000000002 0 0.16809860084165118 1.0450000000000002 0 0.33512325105206503 1.0450000000000002 0 0.50214790126247932 1.0450000000000002 0
        </DataArray>
        <DataArray type="Float64" Name="displacement_magnitude" format="ascii">
          0 0.00035798354374590928 0.0007159670874916826 0.0010739506312373165 0.001431934174982981 0.0017899177187287415 0.0021479012624746672 0.00083333333333228897 0.00090697114730036181 0.0010986597811940943 0.0013593433719178913 0.001656767915529007 0.0019743986133153486 0.0023038932869781465 0.0016666666666646671 0.0017046788540257868 0.0018139422946003014 0.001982712217166956 0.0021973195623879514 0.0024457275436133548 0.0027186867438363923 0.0024999999999972414 0.0025255003895415813 0.0026005016574403498 0.0027209134419001742 0.0028810476360976124 0.0030747041223184337 0.0032959793435833472 0.0033333333333299682 0.0033525010557299839 0.0034093577080506537 0.0035020681131879431 0.0036278845892007056 0.0037835058544822206 0.0039654244343366955 0.0041666666666622387 0.0041820166581032076 0.0042277322504417425 0.0043028456943504075 0.0044058536735284599 0.0045348557365026444 0.0046877063628634813 0.0050000000000000001 0.0050127988407266764 0.0050510007790901265 0.0051140365620843016 0.0052010033148892224 0.0053107255097425221 0.0054418268838102683
        </DataArray>
        <DataArray type="Float64" Name="stress_2d" NumberOfComponents="3" format="ascii">
          -1.4695746429825311e-10 -1101.2616574334306 3.3799726364713295e-11 -2.2469325941127327e-10 -1101.2616574333551 3.7847117739075486e-11 -3.5106113165675146e-10 -1101.2616574332219 2.9227441982786548e-11 -3.9969320878920944e-10 -1101.2616574331641 2.704552867802068e-13 -3.5106113165675146e-10 -1101.2616574332219 -2.8814054291523176e-11 -2.3977139430360124e-10 -1101.2616574333615 -3.779831294000323e-11 -1.7711373408290903e-10 -1101.2616574334436 -3.3987981575535114e-11 -1.3288894238119103e-10 -1101.261657433455 6.8523746812830467e-11 -2.1605594884315992e-10 -1101.2616574333636 7.4674933254709716e-11 -3.4301010125148319e-10 -1101.2616574332033 5.5472371029661717e-11 -3.7925817975167371e-10 -1101.2616574331312 5.7303243584034998e-16 -3.3386082772426571e-10 -1101.2616574331962 -5.4597358814778103e-11 -2.2952387765443426e-10 -1101.2616574333663 -7.3905573632344944e-11 -1.6304521216584694e-10 -1101.2616574334679 -6.8733905932996481e-11 -1.2519050582033855e-10 -1101.261657433545 1.3631533617293635e-10 -1.8314512566429167e-10 -1101.261657433384 1.3317139681515694e-10 -2.6658118792869265e-10 -1101.26165743314 8.5078503941782519e-11 -2.7698091722107688e-10 -1101.2616574330507 -5.0405308906747073e-13 -2.4988926871957545e-10 -1101.2616574331298 -8.481809394344907e-11 -1.8585715310303038e-10 -1101.2616574333761 -1.3188534858889412e-10 -1.3383497285992326e-10 -1101.2616574335366 -1.3527216589521256e-10 -6.4755962174886144e-11 -1101.2616574336007 1.6264256528078627e-10 -5.0609063132766937e-11 -1101.2616574333586 1.1950771866968108e-10 -6.4058440638006333e-12 -1101.2616574330455 4.3893132385931081e-11 3.1193121644946128e-11 -1101.2616574329713 1.2287434377364741e-12 2.7470076991526358e-12 -1101.2616574330384 -4.3109720655699409e-11 -3.0159136248370086e-11 -1101.2616574333395 -1.2051293433437213e-10 -2.7076520568199681e-11 -1101.2616574335702 -1.6376233319515877e-10 4.2743105138944026e-10 -1101.2616574333426 -6.511754482070956e-11 4.7785066370854517e-10 -1101.261657433198 -9.5965934069553066e-11 5.8374445597841051e-10 -1101.2616574330234 -9.3793635972445217e-11 6.3760842984811741e-10 -1101.2616574329968 9.9183497674609898e-13 5.8053120028777472e-10 -1101.2616574330307 9.4211233301055044e-11 4.902638731306166e-10 -1101.2616574331978 9.4805306139894567e-11 4.5546356945274762e-10 -1101.2616574333349 6.3944764257665079e-11 -7.957076364247226e-10 -1101.2616574379276 -9.3410271748995732e-11 -9.846556519186736e-10 -1101.2616574383719 -9.4404378316801966e-11 -1.2363663350897214e-09 -1101.2616574389881 -7.5045724847236061e-11 -1.2932001414017074e-09 -1101.26165743916 -1.8373085067460266e-12 -1.2320369450984574e-09 -1101.2616574389922 7.2976730655658123e-11 -9.8138813778808414e-10 -1101.2616574383801 9.5603270310967461e-11 -7.8597366541585018e-10 -1101.2616574379363 9.6271427106990575e-11 -2.4442287088015499e-09 -1101.2616574427607 9.9316771620075153e-11 -2.8673591444664351e-09 -1101.2616574436686 8.7298503984894403e-11 -3.4548299652526949e-09 -1101.2616574449246 3.6842379215252282e-11 -3.6040922154817415e-09 -1101.2616574452661 -2.4620031352848875e-12 -3.4365242617267879e-09 -1101.2616574449107 -3.9432922053327559e-11 -2.8511843491333482e-09 -1101.2616574436622 -8.5672077473496849e-11 -2.4183342554025333e-09 -1101.2616574427625 -9.5806839191699282e-11
        </DataArray>
        <DataArray type="Float64" Name="sigma_xx" format="ascii">
          -1.4695746429825311e-10 -2.2469325941127327e-10 -3.5106113165675146e-10 -3.9969320878920944e-10 -3.5106113165675146e-10 -2.3977139430360124e-10 -1.7711373408290903e-10 -1.3288894238119103e-10 -2.1605594884315992e-10 -3.4301010125148319e-10 -3.7925817975167371e-10 -3.3386082772426571e-10 -2.2952387765443426e-10 -1.6304521216584694e-10 -1.2519050582033855e-10 -1.8314512566429167e-10 -2.6658118792869265e-10 -2.7698091722107688e-10 -2.4988926871957545e-10 -1.8585715310303038e-10 -1.3383497285992326e-10 -6.4755962174886144e-11 -5.0609063132766937e-11 -6.4058440638006333e-12 3.1193121644946128e-11 2.7470076991526358e-12 -3.0159136248370086e-11 -2.7076520568199681e-11 4.2743105138944026e-10 4.7785066370854517e-10 5.8374445597841051e-10 6.3760842984811741e-10 5.8053120028777472e-10 4.902638731306166e-10 4.5546356945274762e-10 -7.957076364247226e-10 -9.846556519186736e-10 -1.2363663350897214e-09 -1.2932001414017074e-09 -1.2320369450984574e-09 -9.8138813778808414e-10 -7.8597366541585018e-10 -2.4442287088015499e-09 -2.8673591444664351e-09 -3.4548299652526949e-09 -3.6040922154817415e-09 -3.4365242617267879e-09 -2.8511843491333482e-09 -2.4183342554025333e-09
        </DataArray>
        <DataArray type="Float64" Name="sigma_yy" format="ascii">
          -1101.2616574334306 -1101.2616574333551 -1101.2616574332219 -1101.2616574331641 -1101.2616574332219 -1101.2616574333615 -1101.2616574334436 -1101.261657433455 -1101.2616574333636 -1101.2616574332033 -1101.2616574331312 -1101.2616574331962 -1101.2616574333663 -1101.2616574334679 -1101.261657433545 -1101.261657433384 -1101.26165743314 -1101.2616574330507 -1101.2616574331298 -1101.2616574333761 -1101.2616574335366 -1101.2616574336007 -1101.2616574333586 -1101.2616574330455 -1101.2616574329713 -1101.2616574330384 -1101.2616574333395 -1101.2616574335702 -1101.2616574333426 -1101.261657433198 -1101.2616574330234 -1101.2616574329968 -1101.2616574330307 -1101.2616574331978 -1101.2616574333349 -1101.2616574379276 -1101.2616574383719 -1101.2616574389881 -1101.26165743916 -1101.2616574389922 -1101.2616574383801 -1101.2616574379363 -1101.2616574427607 -1101.2616574436686 -1101.2616574449246 -1101.2616574452661 -1101.2616574449107 -1101.2616574436622 -1101.2616574427625
        </DataArray>
        <DataArray type="Float64" Name="tau_xy" format="ascii">
          3.3799726364713295e-11 3.7847117739075486e-11 2.9227441982786548e-11 2.704552867802068e-13 -2.8814054291523176e-11 -3.779831294000323e-11 -3.3987981575535114e-11 6.8523746812830467e-11 7.4674933254709716e-11 5.5472371029661717e-11 5.7303243584034998e-16 -5.4597358814778103e-11 -7.3905573632344944e-11 -6.8733905932996481e-11 1.3631533617293635e-10 1.3317139681515694e-10 8.5078503941782519e-11 -5.0405308906747073e-13 -8.481809394344907e-11 -1.3188534858889412e-10 -1.3527216589521256e-10 1.6264256528078627e-10 1.1950771866968108e-10 4.3893132385931081e-11 1.2287434377364741e-12 -4.3109720655699409e-11 -1.2051293433437213e-10 -1.6376233319515877e-10 -6.511754482070956e-11 -9.5965934069553066e-11 -9.3793635972445217e-11 9.9183497674609898e-13 9.4211233301055044e-11 9.4805306139894567e-11 6.3944764257665079e-11 -9.3410271748995732e-11 -9.4404378316801966e-11 -7.5045724847236061e-11 -1.8373085067460266e-12 7.2976730655658123e-11 9.5603270310967461e-11 9.6271427106990575e-11 9.9316771620075153e-11 8.7298503984894403e-11 3.6842379215252282e-11 -2.4620031352848875e-12 -3.9432922053327559e-11 -8.5672077473496849e-11 -9.5806839191699282e-11
        </DataArray>
        <DataArray type="Float64" Name="sigma_zz" format="ascii">
          -331.75098053190186 -331.7509805319018 -331.75098053189856 -331.75098053189538 -331.75098053189856 -331.75098053190828 -331.75098053191476 -331.75098053190504 -331.7509805319018 -331.75098053189049 -331.75098053187924 -331.75098053188566 -331.75098053190663 -331.75098053191795 -331.75098053192761 -331.75098053189697 -331.75098053184848 -331.75098053182433 -331.75098053184047 -331.75098053189532 -331.75098053192761 -331.75098053192443 -331.75098053184848 -331.75098053174185 -331.75098053170802 -331.75098053173707 -331.75098053183717 -331.75098053190504 -331.75098053170154 -331.75098053164339 -331.75098053155938 -331.75098053153522 -331.75098053156262 -331.75098053164015 -331.75098053169188 -331.75098053345232 -331.75098053364457 -331.75098053390616 -331.75098053397397 -331.75098053390616 -331.75098053364616 -331.75098053345232 -331.75098053540336 -331.75098053580712 -331.7509805363627 -331.75098053650811 -331.75098053635304 -331.75098053580069 -331.75098053539693
        </DataArray>
        <DataArray type="Float64" Name="von_mises_stress" format="ascii">
          978.51485248869187 978.51485248856295 978.51485248834365 978.5148524882535 978.51485248834365 978.51485248855636 978.51485248867925 978.51485248872473 978.51485248857716 978.51485248833353 978.51485248824054 978.51485248833455 978.51485248856875 978.51485248871211 978.51485248881147 978.51485248862195 978.51485248833842 978.51485248825088 978.51485248834263 978.51485248861275 978.51485248879703 978.51485248890947 978.51485248870563 978.51485248846245 978.51485248842664 978.51485248846348 978.51485248870472 978.51485248891242 978.51485248907318 978.51485248898484 978.51485248891436 978.51485248893368 978.51485248891811 978.51485248899439 978.51485248908841 978.51485249216876 978.51485249241216 978.51485249275834 978.514852492866 978.51485249276527 978.51485249242194 978.51485249218422 978.51485249514531 978.51485249561313 978.51485249625932 978.51485249644384 978.51485249626148 978.51485249562018 978.51485249516747
        </DataArray>
        <DataArray type="Float64" Name="cauchy_stress_2d" NumberOfComponents="3" format="ascii">
          -1.4695746429825311e-10 -1101.2616574334306 3.3799726364713295e-11 -2.2469325941127327e-10 -1101.2616574333551 3.7847117739075486e-11 -3.5106113165675146e-10 -1101.2616574332219 2.9227441982786548e-11 -3.9969320878920944e-10 -1101.2616574331641 2.704552867802068e-13 -3.5106113165675146e-10 -1101.2616574332219 -2.8814054291523176e-11 -2.3977139430360124e-10 -1101.2616574333615 -3.779831294000323e-11 -1.7711373408290903e-10 -1101.2616574334436 -3.3987981575535114e-11 -1.3288894238119103e-10 -1101.261657433455 6.8523746812830467e-11 -2.1605594884315992e-10 -1101.2616574333636 7.4674933254709716e-11 -3.4301010125148319e-10 -1101.2616574332033 5.5472371029661717e-11 -3.7925817975167371e-10 -1101.2616574331312 5.7303243584034998e-16 -3.3386082772426571e-10 -1101.2616574331962 -5.4597358814778103e-11 -2.2952387765443426e-10 -1101.2616574333663 -7.3905573632344944e-11 -1.6304521216584694e-10 -1101.2616574334679 -6.8733905932996481e-11 -1.2519050582033855e-10 -1101.261657433545 1.3631533617293635e-10 -1.8314512566429167e-10 -1101.261657433384 1.3317139681515694e-10 -2.6658118792869265e-10 -1101.26165743314 8.5078503941782519e-11 -2.7698091722107688e-10 -1101.2616574330507 -5.0405308906747073e-13 -2.4988926871957545e-10 -1101.2616574331298 -8.481809394344907e-11 -1.8585715310303038e-10 -1101.2616574333761 -1.3188534858889412e-10 -1.3383497285992326e-10 -1101.2616574335366 -1.3527216589521256e-10 -6.4755962174886144e-11 -1101.2616574336007 1.6264256528078627e-10 -5.0609063132766937e-11 -1101.2616574333586 1.1950771866968108e-10 -6.4058440638006333e-12 -1101.2616574330455 4.3893132385931081e-11 3.1193121644946128e-11 -1101.2616574329713 1.2287434377364741e-12 2.7470076991526358e-12 -1101.2616574330384 -4.3109720655699409e-11 -3.0159136248370086e-11 -1101.2616574333395 -1.2051293433437213e-10 -2.7076520568199681e-11 -1101.2616574335702 -1.6376233319515877e-10 4.2743105138944026e-10 -1101.2616574333426 -6.511754482070956e-11 4.7785066370854517e-10 -1101.261657433198 -9.5965934069553066e-11 5.8374445597841051e-10 -1101.2616574330234 -9.3793635972445217e-11 6.3760842984811741e-10 -1101.2616574329968 9.9183497674609898e-13 5.8053120028777472e-10 -1101.2616574330307 9.4211233301055044e-11 4.902638731306166e-10 -1101.2616574331978 9.4805306139894567e-11 4.5546356945274762e-10 -1101.2616574333349 6.3944764257665079e-11 -7.957076364247226e-10 -1101.2616574379276 -9.3410271748995732e-11 -9.846556519186736e-10 -1101.2616574383719 -9.4404378316801966e-11 -1.2363663350897214e-09 -1101.2616574389881 -7.5045724847236061e-11 -1.2932001414017074e-09 -1101.26165743916 -1.8373085067460266e-12 -1.2320369450984574e-09 -1101.2616574389922 7.2976730655658123e-11 -9.8138813778808414e-10 -1101.2616574383801 9.5603270310967461e-11 -7.8597366541585018e-10 -1101.2616574379363 9.6271427106990575e-11 -2.4442287088015499e-09 -1101.2616574427607 9.9316771620075153e-11 -2.8673591444664351e-09 -1101.2616574436686 8.7298503984894403e-11 -3.4548299652526949e-09 -1101.2616574449246 3.6842379215252282e-11 -3.6040922154817415e-09 -1101.2616574452661 -2.4620031352848875e-12 -3.4365242617267879e-09 -1101.2616574449107 -3.9432922053327559e-11 -2.8511843491333482e-09 -1101.2616574436622 -8.5672077473496849e-11 -2.4183342554025333e-09 -1101.2616574427625 -9.5806839191699282e-11
        </DataArray>
        <DataArray type="Float64" Name="green_lagrange_strain_2d" NumberOfComponents="3" format="ascii">
          0.0021502080023921843 -0.0049874999999933167 2.1731065292368472e-16 0.0021502080023916847 -0.0049874999999928171 2.434783290821538e-16 0.0021502080023908521 -0.0049874999999919567 1.8816229688970815e-16 0.002150208002390519 -0.0049874999999915959 1.8755724534170685e-18 0.0021502080023908521 -0.0049874999999919567 -1.8539800081731811e-16 0.0021502080023916292 -0.0049874999999928171 -2.43270746032983e-16 0.0021502080023920733 -0.0049874999999933167 -2.1867293406328918e-16 0.0021502080023922954 -0.0049874999999934555 4.3977861098091577e-16 0.0021502080023917403 -0.0049874999999928726 4.7969560741619979e-16 0.0021502080023908521 -0.0049874999999918873 3.5665325335213849e-16 0.0021502080023905468 -0.0049874999999914849 1.2074185658935911e-19 0.0021502080023908798 -0.0049874999999918734 -3.5088356997067473e-16 0.0021502080023916847 -0.0049874999999928588 -4.7475925859216035e-16 0.0021502080023921843 -0.0049874999999934555 -4.4120379638258568e-16 0.0021502080023925174 -0.0049874999999938718 8.7067852446316324e-16 0.0021502080023919345 -0.0049874999999930253 8.5135489617216825e-16 0.0021502080023910741 -0.0049874999999917485 5.441330035737088e-16 0.0021502080023908521 -0.0049874999999913183 -3.2580150690942709e-18 0.0021502080023911296 -0.0049874999999917347 -5.4244132960923534e-16 0.0021502080023919068 -0.0049874999999929837 -8.4292438087804094e-16 0.0021502080023924619 -0.0049874999999938163 -8.6371687194204394e-16 0.002150208002392906 -0.0049874999999942327 1.0229220606011638e-15 0.0021502080023924897 -0.0049874999999931641 7.4850164954741318e-16 0.0021502080023920733 -0.0049874999999918318 2.704665155612008e-16 0.0021502080023921011 -0.0049874999999915681 7.913093648630119e-18 0.0021502080023921011 -0.0049874999999918179 -2.6547003047197839e-16 0.0021502080023925452 -0.0049874999999931224 -7.5495233157377361e-16 0.002150208002393017 -0.0049874999999941771 -1.0299902075350692e-15 0.0021502080023946268 -0.0049874999999940384 -4.8295955423615362e-16 0.0021502080023945713 -0.0049874999999934833 -6.6973347802401792e-16 0.0021502080023947101 -0.0049874999999929004 -6.3047736933588564e-16 0.0021502080023949044 -0.0049874999999928865 6.3557192514906862e-18 0.0021502080023947101 -0.0049874999999929281 6.3308008506908726e-16 0.0021502080023946268 -0.004987499999993511 6.6213551870856307e-16 0.0021502080023947379 -0.0049874999999940661 4.75269642641822e-16 0.002150208002398013 -0.0049875000000123154 -6.5815322144547881e-16 0.002150208002398013 -0.0049875000000139599 -6.5169230275852069e-16 0.0021502080023980685 -0.0049875000000162567 -5.0367572054330439e-16 0.0021502080023981518 -0.0049875000000169228 -1.2036961345211933e-17 0.0021502080023980963 -0.0049875000000162845 4.9014467078663766e-16 0.0021502080023980408 -0.0049875000000140016 6.5936926220752404e-16 0.0021502080023980685 -0.0049875000000123709 6.7649531716639516e-16 0.0021502080023999559 -0.00498750000003087 6.1634630689549759e-16 0.0021502080023997894 -0.0049875000000341591 5.4628874303172999e-16 0.0021502080023995673 -0.0049875000000386971 2.3141453137471528e-16 0.0021502080023995673 -0.0049875000000399461 -1.6077232498194796e-17 0.0021502080023996228 -0.0049875000000386693 -2.4829736941441661e-16 0.0021502080023998449 -0.0049875000000341591 -5.3583618554488096e-16 0.0021502080024000669 -0.0049875000000309255 -5.9382998083878637e-16
        </DataArray>
        <DataArray type="Float64" Name="jacobian_determinant" format="ascii">
          0.99713716175616984 0.99713716175616984 0.99713716175616995 0.99713716175616995 0.99713716175616995 0.99713716175616984 0.99713716175616973 0.99713716175616995 0.99713716175616995 0.99713716175617007 0.99713716175617007 0.99713716175617007 0.99713716175616984 0.99713716175616973 0.99713716175616973 0.99713716175616995 0.9971371617561704 0.99713716175617051 0.99713716175617051 0.99713716175617007 0.99713716175616973 0.99713716175616973 0.9971371617561704 0.99713716175617129 0.99713716175617151 0.99713716175617129 0.99713716175617051 0.99713716175616995 0.99713716175617173 0.99713716175617217 0.99713716175617284 0.99713716175617295 0.99713716175617284 0.99713716175617217 0.99713716175617173 0.99713716175615663 0.99713716175615497 0.99713716175615263 0.99713716175615197 0.99713716175615263 0.99713716175615486 0.99713716175615652 0.99713716175613987 0.99713716175613643 0.99713716175613154 0.99713716175613043 0.99713716175613165 0.99713716175613631 0.99713716175613976
        </DataArray>
        <DataArray type="Float64" Name="strain_energy_density" format="ascii">
          2.7551178098309772 2.7551178098331084 2.7551178098330951 2.7551178098309506 2.7551178098330951 2.7551178098310043 2.7551178098267695 2.755117809830991 2.755117809832043 2.7551178098319919 2.7551178098308733 2.7551178098308999 2.755117809832063 2.7551178098331839 2.7551178098310971 2.7551178098309537 2.7551178098307276 2.7551178098306144 2.7551178098296201 2.7551178098320119 2.755117809835367 2.7551178098289482 2.7551178098296556 2.7551178098302191 2.7551178098300602 2.7551178098301952 2.7551178098317401 2.7551178098331341 2.7551178098300264 2.7551178098297529 2.7551178098282856 2.7551178098281683 2.7551178098293665 2.7551178098308027 2.7551178098321181 2.7551178098511513 2.7551178098520666 2.7551178098522411 2.7551178098536289 2.7551178098533065 2.7551178098510012 2.7551178098511473 2.7551178098689562 2.7551178098730098 2.7551178098777838 2.7551178098806082 2.7551178098777349 2.7551178098729743 2.755117809873191
        </DataArray>
        <DataArray type="Float64" Name="strain_2d" NumberOfComponents="3" format="ascii">
          0.0021502080023921843 -0.0049874999999933167 2.1731065292368472e-16 0.0021502080023916847 -0.0049874999999928171 2.434783290821538e-16 0.0021502080023908521 -0.0049874999999919567 1.8816229688970815e-16 0.002150208002390519 -0.0049874999999915959 1.8755724534170685e-18 0.0021502080023908521 -0.0049874999999919567 -1.8539800081731811e-16 0.0021502080023916292 -0.0049874999999928171 -2.43270746032983e-16 0.0021502080023920733 -0.0049874999999933167 -2.1867293406328918e-16 0.0021502080023922954 -0.0049874999999934555 4.3977861098091577e-16 0.0021502080023917403 -0.0049874999999928726 4.7969560741619979e-16 0.0021502080023908521 -0.0049874999999918873 3.5665325335213849e-16 0.0021502080023905468 -0.0049874999999914849 1.2074185658935911e-19 0.0021502080023908798 -0.0049874999999918734 -3.5088356997067473e-16 0.0021502080023916847 -0.0049874999999928588 -4.7475925859216035e-16 0.0021502080023921843 -0.0049874999999934555 -4.4120379638258568e-16 0.0021502080023925174 -0.0049874999999938718 8.7067852446316324e-16 0.0021502080023919345 -0.0049874999999930253 8.5135489617216825e-16 0.0021502080023910741 -0.0049874999999917485 5.441330035737088e-16 0.0021502080023908521 -0.0049874999999913183 -3.2580150690942709e-18 0.0021502080023911296 -0.0049874999999917347 -5.4244132960923534e-16 0.0021502080023919068 -0.0049874999999929837 -8.4292438087804094e-16 0.0021502080023924619 -0.0049874999999938163 -8.6371687194204394e-16 0.002150208002392906 -0.0049874999999942327 1.0229220606011638e-15 0.0021502080023924897 -0.0049874999999931641 7.4850164954741318e-16 0.0021502080023920733 -0.0049874999999918318 2.704665155612008e-16 0.0021502080023921011 -0.0049874999999915681 7.913093648630119e-18 0.0021502080023921011 -0.0049874999999918179 -2.6547003047197839e-16 0.0021502080023925452 -0.0049874999999931224 -7.5495233157377361e-16 0.002150208002393017 -0.0049874999999941771 -1.0299902075350692e-15 0.0021502080023946268 -0.0049874999999940384 -4.8295955423615362e-16 0.0021502080023945713 -0.0049874999999934833 -6.6973347802401792e-16 0.0021502080023947101 -0.0049874999999929004 -6.3047736933588564e-16 0.0021502080023949044 -0.0049874999999928865 6.3557192514906862e-18 0.0021502080023947101 -0.0049874999999929281 6.3308008506908726e-16 0.0021502080023946268 -0.004987499999993511 6.6213551870856307e-16 0.0021502080023947379 -0.0049874999999940661 4.75269642641822e-16 0.002150208002398013 -0.0049875000000123154 -6.5815322144547881e-16 0.002150208002398013 -0.0049875000000139599 -6.5169230275852069e-16 0.0021502080023980685 -0.0049875000000162567 -5.0367572054330439e-16 0.0021502080023981518 -0.0049875000000169228 -1.2036961345211933e-17 0.0021502080023980963 -0.0049875000000162845 4.9014467078663766e-16 0.0021502080023980408 -0.0049875000000140016 6.5936926220752404e-16 0.0021502080023980685 -0.0049875000000123709 6.7649531716639516e-16 0.0021502080023999559 -0.00498750000003087 6.1634630689549759e-16 0.0021502080023997894 -0.0049875000000341591 5.4628874303172999e-16 0.0021502080023995673 -0.0049875000000386971 2.3141453137471528e-16 0.0021502080023995673 -0.0049875000000399461 -1.6077232498194796e-17 0.0021502080023996228 -0.0049875000000386693 -2.4829736941441661e-16 0.0021502080023998449 -0.0049875000000341591 -5.3583618554488096e-16 0.0021502080024000669 -0.0049875000000309255 -5.9382998083878637e-16
        </DataArray>
        <DataArray type="Float64" Name="strain_xx" format="ascii">
          0.0021502080023921843 0.0021502080023916847 0.0021502080023908521 0.002150208002390519 0.0021502080023908521 0.0021502080023916292 0.0021502080023920733 0.0021502080023922954 0.0021502080023917403 0.0021502080023908521 0.0021502080023905468 0.0021502080023908798 0.0021502080023916847 0.0021502080023921843 0.0021502080023925174 0.0021502080023919345 0.0021502080023910741 0.0021502080023908521 0.0021502080023911296 0.0021502080023919068 0.0021502080023924619 0.002150208002392906 0.0021502080023924897 0.0021502080023920733 0.0021502080023921011 0.0021502080023921011 0.0021502080023925452 0.002150208002393017 0.0021502080023946268 0.0021502080023945713 0.0021502080023947101 0.0021502080023949044 0.0021502080023947101 0.0021502080023946268 0.0021502080023947379 0.002150208002398013 0.002150208002398013 0.0021502080023980685 0.0021502080023981518 0.0021502080023980963 0.0021502080023980408 0.0021502080023980685 0.0021502080023999559 0.0021502080023997894 0.0021502080023995673 0.0021502080023995673 0.0021502080023996228 0.0021502080023998449 0.0021502080024000669
        </DataArray>
        <DataArray type="Float64" Name="strain_yy" format="ascii">
          -0.0049874999999933167 -0.0049874999999928171 -0.0049874999999919567 -0.0049874999999915959 -0.0049874999999919567 -0.0049874999999928171 -0.0049874999999933167 -0.0049874999999934555 -0.0049874999999928726 -0.0049874999999918873 -0.0049874999999914849 -0.0049874999999918734 -0.0049874999999928588 -0.0049874999999934555 -0.0049874999999938718 -0.0049874999999930253 -0.0049874999999917485 -0.0049874999999913183 -0.0049874999999917347 -0.0049874999999929837 -0.0049874999999938163 -0.0049874999999942327 -0.0049874999999931641 -0.0049874999999918318 -0.0049874999999915681 -0.0049874999999918179 -0.0049874999999931224 -0.0049874999999941771 -0.0049874999999940384 -0.0049874999999934833 -0.0049874999999929004 -0.0049874999999928865 -0.0049874999999929281 -0.004987499999993511 -0.0049874999999940661 -0.0049875000000123154 -0.0049875000000139599 -0.0049875000000162567 -0.0049875000000169228 -0.0049875000000162845 -0.0049875000000140016 -0.0049875000000123709 -0.00498750000003087 -0.0049875000000341591 -0.0049875000000386971 -0.0049875000000399461 -0.0049875000000386693 -0.0049875000000341591 -0.0049875000000309255
        </DataArray>
        <DataArray type="Float64" Name="gamma_xy" format="ascii">
          2.1731065292368472e-16 2.434783290821538e-16 1.8816229688970815e-16 1.8755724534170685e-18 -1.8539800081731811e-16 -2.43270746032983e-16 -2.1867293406328918e-16 4.3977861098091577e-16 4.7969560741619979e-16 3.5665325335213849e-16 1.2074185658935911e-19 -3.5088356997067473e-16 -4.7475925859216035e-16 -4.4120379638258568e-16 8.7067852446316324e-16 8.5135489617216825e-16 5.441330035737088e-16 -3.2580150690942709e-18 -5.4244132960923534e-16 -8.4292438087804094e-16 -8.6371687194204394e-16 1.0229220606011638e-15 7.4850164954741318e-16 2.704665155612008e-16 7.913093648630119e-18 -2.6547003047197839e-16 -7.5495233157377361e-16 -1.0299902075350692e-15 -4.8295955423615362e-16 -6.6973347802401792e-16 -6.3047736933588564e-16 6.3557192514906862e-18 6.3308008506908726e-16 6.6213551870856307e-16 4.75269642641822e-16 -6.5815322144547881e-16 -6.5169230275852069e-16 -5.0367572054330439e-16 -1.2036961345211933e-17 4.9014467078663766e-16 6.5936926220752404e-16 6.7649531716639516e-16 6.1634630689549759e-16 5.4628874303172999e-16 2.3141453137471528e-16 -1.6077232498194796e-17 -2.4829736941441661e-16 -5.3583618554488096e-16 -5.9382998083878637e-16
        </DataArray>
        <DataArray type="Float64" Name="reaction_force" NumberOfComponents="3" format="ascii">
          1.1033445616088773e-11 91.968921561480769 0 4.7443463838580966e-12 183.93784312294474 0 3.511694192170485e-12 183.93784312292212 0 -3.7628070400138089e-13 183.93784312291208 0 -3.0183884761034532e-12 183.93784312292212 0 -4.1870147068840614e-12 183.93784312294594 0 -1.1814450913459757e-11 91.968921561481835 0 1.6151317161116823e-11 -4.5474735088646412e-12 0 1.5705798755010068e-11 -1.0373923942097463e-12 0 5.2769287385883127e-12 1.3073986337985843e-12 0 -4.2706004646493988e-13 -1.0231815394945443e-12 0 -5.9038787600697334e-12 -2.1884716261411086e-12 0 -9.5162715989702889e-12 -1.2505552149377763e-12 0 -2.1587927961962209e-11 -4.5190517994342372e-12 0 1.5496423418123458e-11 -5.2864379540551454e-12 0 1.3349372349897112e-11 -3.4106051316484809e-13 0 1.1049053603390936e-11 -8.8107299234252423e-13 0 -7.9985766990484456e-12 -2.0605739337042905e-12 0 -2.8778919825450854e-12 6.2527760746888816e-13 0 -1.0206584029302801e-11 -3.1548097467748448e-12 0 -1.85187618753738e-11 -8.8107299234252423e-12 0 1.3712639075654677e-11 -2.148681232938543e-11 0 1.2689940820775077e-11 -8.5691453932668082e-12 0 4.9530980298931179e-12 -3.1690206014900468e-12 0 -1.8278591609262289e-12 -5.2722270993399434e-12 0 -4.940691486506771e-12 -1.9753088054130785e-12 0 -1.7385219639505513e-11 -1.0317080523236655e-11 0 -7.1218311599215072e-12 -2.1955770534987096e-11 0 -1.5545652573899064e-11 -4.9453774408902973e-11 0 4.3313113577996548e-11 -1.1695533430611249e-11 0 3.8190527207323114e-12 -1.7763568394002505e-12 0 1.3395958464917748e-12 2.9558577807620168e-12 0 -3.0618926513546431e-12 2.2168933355715126e-12 0 -4.9781528115946247e-11 -2.7142732506035827e-12 0 2.0099343644609992e-11 -4.6583181756432168e-11 0 9.3960067947781993e-11 7.8203754583228147e-10 0 -1.6108943804842471e-11 1.7909229654833325e-09 0 -1.2478974875930121e-11 1.9940387119277148e-09 0 -1.0771121731987969e-13 2.0287700408516685e-09 0 1.3341878244967407e-11 1.9888943825208116e-09 0 1.276280072446094e-11 1.7831354170994018e-09 0 -9.123739462461214e-11 7.8308914908120641e-10 0 1.9465368544708592e-10 -91.968921562223301 0 9.7425226783452708e-11 -183.93784312469069 0 3.4609831676898604e-11 -183.93784312488845 0 -4.5391224325363242e-12 -183.93784312494546 0 -3.1418028616538868e-11 -183.93784312488722 0 -9.7453432482702359e-11 -183.93784312468836 0 -1.9355728416231699e-10 -91.968921562224068 0
        </DataArray>
        <DataArray type="Float64" Name="reaction_force_magnitude" format="ascii">
          91.968921561480769 183.93784312294474 183.93784312292212 183.93784312291208 183.93784312292212 183.93784312294594 91.968921561481835 1.6779289655787354e-11 1.5740022157304609e-11 5.4364757058040499e-12 1.1087293384992852e-12 6.2964428427507581e-12 9.5980890541282547e-12 2.2055848722206081e-11 1.6373318692184546e-11 1.3353728483455018e-11 1.108412717124996e-11 8.259733297560055e-12 2.9450355430112043e-12 1.0683032438664808e-11 2.0507888803588221e-11 2.548959737809527e-11 1.5312245126228857e-11 5.8801251403689886e-12 5.5800938790665888e-12 5.3209282312001664e-12 2.021603354856727e-11 2.3081948333176653e-11 5.1839590249490217e-11 4.4864365704275526e-11 4.2119600312226275e-12 3.2452445596640894e-12 3.7801855337696001e-12 4.9855469317194165e-11 5.0734371361995987e-11 7.8766186746606537e-10 1.7909954121566368e-09 1.9940777591358603e-09 2.0287700437109642e-09 1.988939131933892e-09 1.7831810914196544e-09 7.8838624898371685e-10 91.968921562223301 183.93784312469069 183.93784312488845 183.93784312494546 183.93784312488722 183.93784312468836 91.968921562224068
        </DataArray>
      </PointData>
      <CellData>
        <DataArray type="Int32" Name="element_id" format="ascii">
          1 2 3 4 5 6 7 8 9 10 11 12 13 14 15 16 17 18 19 20 21 22 23 24 25 26 27 28 29 30 31 32 33 34 35 36
        </DataArray>
        <DataArray type="Int32" Name="material_id" format="ascii">
          1 1 1 1 1 1 1 1 1 1 1 1 1 1 1 1 1 1 1 1 1 1 1 1 1 1 1 1 1 1 1 1 1 1 1 1
        </DataArray>
        <DataArray type="Float64" Name="cell_jacobian_determinant" format="ascii">
          0.99713716175616984 0.99713716175616984 0.99713716175616995 0.99713716175616995 0.99713716175616995 0.99713716175616973 0.99713716175616995 0.99713716175616995 0.99713716175617018 0.99713716175617029 0.99713716175617007 0.99713716175616973 0.99713716175616951 0.99713716175617051 0.99713716175617084 0.99713716175617095 0.99713716175617051 0.99713716175616962 0.99713716175616995 0.99713716175617162 0.99713716175617217 0.99713716175617217 0.99713716175617162 0.99713716175617018 0.9971371617561734 0.99713716175617373 0.99713716175617384 0.99713716175617373 0.99713716175617351 0.99713716175617328 0.99713716175613987 0.99713716175613287 0.99713716175613032 0.99713716175613043 0.99713716175613287 0.99713716175613976
        </DataArray>
        <DataArray type="Float64" Name="cell_jacobian_determinant_min" format="ascii">
          0.99713716175616951 0.99713716175616962 0.99713716175616984 0.99713716175616984 0.99713716175616962 0.99713716175616951 0.99713716175616929 0.99713716175616962 0.99713716175617007 0.99713716175617007 0.99713716175616962 0.99713716175616929 0.99713716175616862 0.99713716175616995 0.9971371617561704 0.99713716175617062 0.99713716175616995 0.99713716175616873 0.99713716175616851 0.99713716175617084 0.9971371617561714 0.9971371617561714 0.99713716175617095 0.99713716175616873 0.99713716175617195 0.99713716175617195 0.99713716175617251 0.9971371617561724 0.99713716175617184 0.99713716175617184 0.9971371617561362 0.99713716175613143 0.99713716175612988 0.99713716175612988 0.99713716175613143 0.99713716175613643
        </DataArray>
        <DataArray type="Float64" Name="cell_jacobian_determinant_max" format="ascii">
          0.99713716175617029 0.99713716175617018 0.99713716175617007 0.99713716175617007 0.99713716175617018 0.99713716175617007 0.9971371617561704 0.99713716175617029 0.99713716175617029 0.99713716175617051 0.9971371617561704 0.99713716175617018 0.9971371617561704 0.99713716175617095 0.99713716175617129 0.99713716175617129 0.99713716175617095 0.99713716175617051 0.99713716175617129 0.99713716175617229 0.99713716175617306 0.99713716175617306 0.99713716175617229 0.99713716175617151 0.99713716175617473 0.99713716175617539 0.99713716175617528 0.99713716175617528 0.99713716175617528 0.99713716175617473 0.99713716175614342 0.99713716175613432 0.99713716175613065 0.99713716175613087 0.99713716175613443 0.99713716175614331
        </DataArray>
        <DataArray type="Float64" Name="cell_strain_energy_density" format="ascii">
          2.7551178098309772 2.7551178098352391 2.7551178098309506 2.7551178098309506 2.7551178098352391 2.7551178098267695 2.7551178098310043 2.7551178098309506 2.7551178098308271 2.7551178098307649 2.7551178098266451 2.7551178098395979 2.7551178098311899 2.7551178098306677 2.7551178098304638 2.7551178098304026 2.7551178098306686 2.7551178098311362 2.7551178098267068 2.7551178098300579 2.7551178098296871 2.7551178098296871 2.7551178098300229 2.7551178098351321 2.7551178098333464 2.7551178098288998 2.7551178098244971 2.7551178098288025 2.755117809828953 2.7551178098291036 2.7551178098689562 2.755117809877063 2.7551178098785041 2.7551178098827123 2.7551178098727576 2.755117809873191
        </DataArray>
        <DataArray type="Float64" Name="cell_cauchy_stress_2d" NumberOfComponents="3" format="ascii">
          -1.4695746429825311e-10 -1101.2616574334306 3.3799726364713295e-11 -3.0242905452429343e-10 -1101.2616574332797 4.1894509113437671e-11 -3.9969320878920944e-10 -1101.2616574331639 1.6560374852135419e-11 -3.9969320878920944e-10 -1101.2616574331641 -1.6019464278575005e-11 -3.0242905452429343e-10 -1101.2616574332797 -4.1608644304471346e-11 -1.7711373408290903e-10 -1101.2616574334436 -3.3987981575535114e-11 -1.1882042046412894e-10 -1101.2616574334793 1.0324776726094763e-10 -2.9601685608596425e-10 -1101.2616574332646 1.1975773027974026e-10 -3.7390128560646572e-10 -1101.2616574331046 4.367686987333351e-11 -3.4374501582181004e-10 -1101.2616574330916 -4.4215488317150563e-11 -2.8957603176174973e-10 -1101.2616574332499 -1.1654583835891549e-10 -1.4897669024878483e-10 -1101.2616574334925 -1.0347983029045783e-10 -1.3156059117654815e-10 -1101.2616574336107 1.6938290508492506e-10 -1.8618263493052536e-10 -1101.2616574331812 1.4029718463501482e-10 -2.1022397509181519e-10 -1101.2616574330095 3.6582230979041511e-11 -1.800533923642167e-10 -1101.2616574329968 -3.8059824891494342e-11 -1.8618263493052538e-10 -1101.2616574331812 -1.4045122420623587e-10 -1.1869325547106168e-10 -1101.2616574335807 -1.6706450149996727e-10 2.0486668267758637e-12 -1101.2616574335905 1.5590222547664751e-10 1.1325830674922987e-10 -1101.2616574330511 1.2448559482136878e-11 2.5752492701790816e-10 -1101.2616574329397 -1.3755445552468889e-11 2.5752492701790822e-10 -1101.2616574329395 2.0148013215867618e-11 1.1969913107344439e-10 -1101.2616574330361 -1.4075846740935026e-11 6.454021433466232e-11 -1101.26165743356 -1.6046016489035027e-10 8.5281343595210471e-10 -1101.2616574330948 -2.8613731511806663e-10 9.4328224530607032e-10 -1101.2616574330559 -2.6607720611893004e-10 1.0209123448404339e-09 -1101.2616574330466 -1.0779045170051879e-10 1.0144715205162193e-09 -1101.2616574330614 1.0536522394410446e-10 9.3042922254352672e-10 -1101.2616574330857 2.6540754278518311e-10 8.4638692457083291e-10 -1101.2616574331098 2.8834969340568043e-10 -2.4442287088015499e-09 -1101.2616574427607 9.9316771620075153e-11 -3.29048958013132e-09 -1101.2616574445765 7.528023634971364e-11 -3.6191703503740698e-09 -1101.2616574452727 -1.5954779192090786e-12 -3.5890140805894131e-09 -1101.2616574452595 -3.328528351360696e-12 -3.2840344428641627e-09 -1101.2616574445619 -7.5537315755294416e-11 -2.4183342554025333e-09 -1101.2616574427625 -9.5806839191699282e-11
        </DataArray>
        <DataArray type="Float64" Name="cell_sigma_zz" format="ascii">
          -331.75098053190186 -331.75098053190175 -331.75098053189538 -331.75098053189532 -331.7509805319018 -331.75098053191476 -331.75098053190823 -331.75098053189538 -331.75098053186952 -331.75098053185661 -331.7509805318889 -331.75098053192113 -331.75098053194699 -331.75098053183717 -331.75098053179198 -331.75098053177908 -331.75098053183717 -331.75098053193409 -331.75098053190186 -331.75098053170797 -331.75098053163043 -331.75098053163049 -331.75098053170154 -331.750980531876 -331.75098053150128 -331.75098053146252 -331.75098053143665 -331.75098053144313 -331.75098053147536 -331.75098053150771 -331.75098053540336 -331.75098053621093 -331.75098053651453 -331.75098053650163 -331.75098053620445 -331.75098053539693
        </DataArray>
        <DataArray type="Float64" Name="cell_von_mises_stress" format="ascii">
          978.51485248869187 978.51485248843369 978.51485248825327 978.5148524882535 978.5148524884338 978.51485248867925 978.51485248875758 978.5148524884255 978.51485248822132 978.51485248823383 978.51485248841755 978.51485248874519 978.51485248886513 978.51485248843915 978.51485248826771 978.51485248828044 978.51485248843915 978.51485248884887 978.51485248895392 978.51485248856306 978.51485248857944 978.51485248857921 978.51485248855477 978.5148524889762 978.51485248919255 978.51485248923029 978.51485248928395 978.51485248929191 978.51485248924644 978.51485248920062 978.51485249514531 978.51485249608072 978.51485249643781 978.51485249645009 978.51485249607299 978.51485249516747
        </DataArray>
        <DataArray type="Float64" Name="cell_second_piola_stress_2d" NumberOfComponents="3" format="ascii">
          -1.4590927825379465e-10 -1109.1729233545132 3.3769256475447532e-11 -3.002719547410004e-10 -1109.1729233543588 4.1901972986792446e-11 -3.9684236452949081e-10 -1109.1729233542408 1.6577450614307288e-11 -3.9684236452949081e-10 -1109.1729233542408 -1.5994536832901758e-11 -3.002719547410004e-10 -1109.1729233543585 -4.1625764384764755e-11 -1.7585045599605486e-10 -1109.1729233545261 -3.3980949830448991e-11 -1.1797292416904833e-10 -1109.1729233545625 1.0291062098869129e-10 -2.9390549182858991e-10 -1109.1729233543438 1.1958970771326064e-10 -3.712344043326968e-10 -1109.1729233541805 4.3621154425671358e-11 -3.4129322659043662e-10 -1109.1729233541676 -4.4129016889203017e-11 -2.87510607206749e-10 -1109.1729233543285 -1.1635461942115433e-10 -1.4791410191130854e-10 -1109.1729233545755 -1.0314186451420221e-10 -1.3062222457958369e-10 -1109.1729233546957 1.6768970168013134e-10 -1.8485467217214096e-10 -1109.1729233542596 1.3899933891335143e-10 -2.0872453552299871e-10 -1109.1729233540855 3.6014671170415965e-11 -1.7876914692602327e-10 -1109.1729233540725 -3.7531941759293888e-11 -1.8485467217214096e-10 -1109.1729233542596 -1.3915777511869672e-10 -1.1784666619061712e-10 -1109.1729233546657 -1.6529482902447208e-10 2.0340545443200104e-12 -1109.1729233546762 1.5022676448561101e-10 1.1245048268176636e-10 -1109.1729233541298 8.3415366258927764e-12 2.5568810956947594e-10 -1109.1729233540177 -1.5237637916403128e-11 2.5568810956947594e-10 -1109.1729233540177 2.1673568227474532e-11 1.1884536730360726e-10 -1109.1729233541148 -9.996020333235097e-12 6.407987601639616e-11 -1109.1729233546459 -1.5481836393221139e-10 8.4673067488677204e-10 -1109.1729233541796 -3.0032695363736492e-10 9.3655420811355276e-10 -1109.1729233541405 -2.7453758118944838e-10 1.0136306046607973e-09 -1109.1729233541319 -1.1046154586019272e-10 1.0072357200389564e-09 -1109.1729233541469 1.0797623482345391e-10 9.2379286057930136e-10 -1109.1729233541707 2.7385925448630684e-10 8.4035000111964634e-10 -1109.1729233541946 3.0252858652311118e-10 -2.4267950491076984e-09 -1109.1729233639608 9.5777893238214933e-11 -3.2670198960712115e-09 -1109.1729233657966 7.4004530447835552e-11 -3.5933563240371044e-09 -1109.1729233665005 -2.0826383822527208e-12 -3.563415146294844e-09 -1109.1729233664873 -2.9140442961402101e-12 -3.260610800594655e-09 -1109.1729233657816 -7.4254906577888697e-11 -2.4010852899997232e-09 -1109.1729233639628 -9.2278941027340044e-11
        </DataArray>
        <DataArray type="Float64" Name="cell_green_lagrange_strain_2d" NumberOfComponents="3" format="ascii">
          0.0021502080023921843 -0.0049874999999933167 2.1731065292368472e-16 0.0021502080023911851 -0.0049874999999923175 2.6964600524062282e-16 0.002150208002390519 -0.0049874999999915959 1.066785885387935e-16 0.002150208002390519 -0.0049874999999915959 -1.0292744363195936e-16 0.0021502080023911851 -0.0049874999999923175 -2.6786855800267683e-16 0.0021502080023920733 -0.0049874999999933167 -2.1867293406328918e-16 0.0021502080023924064 -0.0049874999999935943 6.6224656903814682e-16 0.0021502080023911851 -0.004987499999992262 7.6957920246234473e-16 0.002150208002390519 -0.0049874999999913738 2.8070921716679292e-16 0.00215020800239063 -0.0049874999999913738 -2.8397739464726963e-16 0.0021502080023911851 -0.0049874999999922065 -7.4876088360079307e-16 0.0021502080023922954 -0.0049874999999935943 -6.6373465870188214e-16 0.0021502080023926284 -0.0049874999999941494 1.0791104798881796e-15 0.0021502080023915182 -0.0049874999999920955 8.9448333330000207e-16 0.0021502080023910741 -0.0049874999999912628 2.3176026136569547e-16 0.0021502080023911851 -0.0049874999999912628 -2.4152414416159584e-16 0.0021502080023915182 -0.0049874999999920955 -8.955028960272826e-16 0.0021502080023926284 -0.0049874999999940384 -1.0636990851822058e-15 0.0021502080023931835 -0.0049874999999943159 9.6673364131414797e-16 0.0021502080023926284 -0.0049874999999920955 5.3679143687322953e-17 0.0021502080023930725 -0.0049874999999918734 -9.8056676108217393e-17 0.0021502080023930725 -0.0049874999999918734 1.3947293349863824e-16 0.0021502080023926284 -0.00498749999999204 -6.4326015197673337e-17 0.0021502080023934056 -0.0049874999999943159 -9.9628132988793269e-16 0.0021502080023960701 -0.0049874999999937608 -1.9326527497864552e-15 0.0021502080023964032 -0.0049874999999937608 -1.7666939473110871e-15 0.0021502080023967363 -0.0049874999999938718 -7.10837997611561e-16 0.0021502080023967363 -0.0049874999999939273 6.9484461722710286e-16 0.0021502080023964032 -0.0049874999999938718 1.7623288047482814e-15 0.0021502080023960701 -0.0049874999999938163 1.9468206151715767e-15 0.0021502080023999559 -0.00498750000003087 6.1634630689549759e-16 0.0021502080023996228 -0.0049875000000374481 4.762311791679624e-16 0.0021502080023995118 -0.0049875000000399461 -1.3402116418531844e-17 0.0021502080023996228 -0.0049875000000399461 -1.8752348577857749e-17 0.0021502080023996228 -0.0049875000000373926 -4.7784239025097546e-16 0.0021502080024000669 -0.0049875000000309255 -5.9382998083878637e-16
        </DataArray>
      </CellData>
      <Points>
        <DataArray type="Float64" NumberOfComponents="3" format="ascii">
          -0.5 0.050000000000000003 0 -0.33333333333333337 0.050000000000000003 0 -0.16666666666666669 0.050000000000000003 0 0 0.050000000000000003 0 0.16666666666666663 0.050000000000000003 0 0.33333333333333326 0.050000000000000003 0 0.5 0.050000000000000003 0 -0.5 0.21666666666666667 0 -0.33333333333333337 0.21666666666666667 0 -0.16666666666666669 0.21666666666666667 0 0 0.21666666666666667 0 0.16666666666666663 0.21666666666666667 0 0.33333333333333326 0.21666666666666667 0 0.5 0.21666666666666667 0 -0.5 0.3833333333333333 0 -0.33333333333333337 0.3833333333333333 0 -0.16666666666666669 0.3833333333333333 0 0 0.3833333333333333 0 0.16666666666666663 0.3833333333333333 0 0.33333333333333326 0.3833333333333333 0 0.5 0.3833333333333333 0 -0.5 0.55000000000000004 0 -0.33333333333333337 0.55000000000000004 0 -0.16666666666666669 0.55000000000000004 0 0 0.55000000000000004 0 0.16666666666666663 0.55000000000000004 0 0.33333333333333326 0.55000000000000004 0 0.5 0.55000000000000004 0 -0.5 0.71666666666666667 0 -0.33333333333333337 0.71666666666666667 0 -0.16666666666666669 0.71666666666666667 0 0 0.71666666666666667 0 0.16666666666666663 0.71666666666666667 0 0.33333333333333326 0.71666666666666667 0 0.5 0.71666666666666667 0 -0.5 0.8833333333333333 0 -0.33333333333333337 0.8833333333333333 0 -0.16666666666666669 0.8833333333333333 0 0 0.8833333333333333 0 0.16666666666666663 0.8833333333333333 0 0.33333333333333326 0.8833333333333333 0 0.5 0.8833333333333333 0 -0.5 1.05 0 -0.33333333333333337 1.05 0 -0.16666666666666669 1.05 0 0 1.05 0 0.16666666666666663 1.05 0 0.33333333333333326 1.05 0 0.5 1.05 0
        </DataArray>
      </Points>
      <Cells>
        <DataArray type="Int32" Name="connectivity" format="ascii">
          8 7 0 1 9 8 1 2 10 9 2 3 11 10 3 4 12 11 4 5 13 12 5 6 15 14 7 8 16 15 8 9 17 16 9 10 18 17 10 11 19 18 11 12 20 19 12 13 22 21 14 15 23 22 15 16 24 23 16 17 25 24 17 18 26 25 18 19 27 26 19 20 29 28 21 22 30 29 22 23 31 30 23 24 32 31 24 25 33 32 25 26 34 33 26 27 36 35 28 29 37 36 29 30 38 37 30 31 39 38 31 32 40 39 32 33 41 40 33 34 43 42 35 36 44 43 36 37 45 44 37 38 46 45 38 39 47 46 39 40 48 47 40 41
        </DataArray>
        <DataArray type="Int32" Name="offsets" format="ascii">
          4 8 12 16 20 24 28 32 36 40 44 48 52 56 60 64 68 72 76 80 84 88 92 96 100 104 108 112 116 120 124 128 132 136 140 144
        </DataArray>
        <DataArray type="UInt8" Name="types" format="ascii">
          9 9 9 9 9 9 9 9 9 9 9 9 9 9 9 9 9 9 9 9 9 9 9 9 9 9 9 9 9 9 9 9 9 9 9 9
        </DataArray>
      </Cells>
    </Piece>
  </UnstructuredGrid>
</VTKFile>
