<?xml version="1.0"?>
<VTKFile type="UnstructuredGrid" version="0.1" byte_order="LittleEndian">
  <UnstructuredGrid>
    <Piece NumberOfPoints="49" NumberOfCells="36">
      <PointData Vectors="displacement">
        <DataArray type="Float64" Name="displacement" NumberOfComponents="3" format="ascii">
          5.0553242781663597e-14 -0.050033804240113944 0 0.0021710961927867175 -0.050033804240113951 0 0.0043421923855202953 -0.05003380424011393 0 0.0065132885782507033 -0.050033804240113923 0 0.0086843847709811069 -0.05003380424011393 0 0.010855480963714676 -0.050033804240113944 0 0.013026577156450836 -0.050033804240113951 0 5.1326317364765743e-14 -0.05502817020009141 0 0.0021710961927877545 -0.055028170200090196 0 0.0043421923855209129 -0.055028170200086872 0 0.0065132885782507042 -0.055028170200085276 0 0.008684384770980479 -0.055028170200086872 0 0.010855480963713663 -0.055028170200090189 0 0.013026577156450066 -0.055028170200091417 0 5.3170010755904089e-14 -0.060022536160071485 0 0.002171096192790455 -0.06002253616006669 0 0.0043421923855224559 -0.060022536160058697 0 0.0065132885782506989 -0.060022536160055318 0 0.0086843847709789437 -0.060022536160058697 0 0.010855480963710961 -0.06002253616006669 0 0.013026577156448229 -0.060022536160071492 0 5.3452705381542031e-14 -0.065016902120058603 0 0.0021710961927923771 -0.065016902120042422 0 0.0043421923855226086 -0.0650169021200286 0 0.006513288578250692 -0.065016902120023909 0 0.0086843847709787911 -0.0650169021200286 0 0.010855480963709028 -0.065016902120042422 0 0.013026577156447953 -0.065016902120058589 0 4.0666143502230389e-14 -0.070011268080053757 0 0.0021710961927815841 -0.070011268080015593 0 0.0043421923855172222 -0.070011268079998829 0 0.0065132885782506972 -0.070011268079992611 0 0.0086843847709841826 -0.070011268079998815 0 0.010855480963719804 -0.070011268080015593 0 0.013026577156460731 -0.070011268080053743 0 1.0538774102832328e-15 -0.075005634040029398 0 0.0021710961927437814 -0.075005634039992122 0 0.0043421923854973293 -0.07500563403997268 0 0.0065132885782506859 -0.07500563403996767 0 0.0086843847710040591 -0.07500563403997268 0 0.010855480963757611 -0.075005634039992108 0 0.013026577156500326 -0.075005634040029384 0 0 -0.080000000000000002 0 0.0021710961927436227 -0.080000000000000002 0 0.0043421923854973224 -0.080000000000000002 0 0.0065132885782506712 -0.080000000000000002 0 0.0086843847710040469 -0.080000000000000002 0 0.010855480963757774 -0.080000000000000002 0 0.013026577156501394 -0.080000000000000002 0
        </DataArray>
        <DataArray type="Float64" Name="deformed_position" NumberOfComponents="3" format="ascii">
          -0.49999999999994943 -3.3804240113941009e-05 0 -0.33116223714054666 -3.3804240113947948e-05 0 -0.16232447428114638 -3.3804240113927131e-05 0 0.0065132885782507033 -3.3804240113920192e-05 0 0.17535105143764773 -3.3804240113927131e-05 0 0.34418881429704795 -3.3804240113941009e-05 0 0.51302657715645084 -3.3804240113947948e-05 0 -0.49999999999994865 0.16163849646657527 0 -0.3311622371405456 0.16163849646657646 0 -0.16232447428114577 0.1616384964665798 0 0.0065132885782507042 0.16163849646658141 0 0.17535105143764712 0.1616384964665798 0 0.3441888142970469 0.16163849646657649 0 0.51302657715645006 0.16163849646657524 0 -0.49999999999994682 0.32331079717326183 0 -0.33116223714054294 0.32331079717326661 0 -0.16232447428114422 0.3233107971732746 0 0.0065132885782506989 0.32331079717327799 0 0.17535105143764557 0.3233107971732746 0 0.34418881429704423 0.32331079717326661 0 0.51302657715644828 0.32331079717326183 0 -0.49999999999994654 0.48498309787994143 0 -0.33116223714054099 0.48498309787995764 0 -0.16232447428114408 0.48498309787997146 0 0.006513288578250692 0.48498309787997612 0 0.17535105143764543 0.48498309787997146 0 0.34418881429704229 0.48498309787995764 0 0.51302657715644795 0.48498309787994143 0 -0.49999999999995931 0.64665539858661292 0 -0.33116223714055176 0.64665539858665111 0 -0.16232447428114946 0.64665539858666787 0 0.0065132885782506972 0.64665539858667409 0 0.17535105143765081 0.64665539858666787 0 0.34418881429705306 0.64665539858665111 0 0.51302657715646072 0.64665539858661292 0 -0.49999999999999895 0.80832769929330395 0 -0.33116223714058957 0.80832769929334114 0 -0.16232447428116936 0.80832769929336057 0 0.0065132885782506859 0.80832769929336568 0 0.17535105143767069 0.80832769929336057 0 0.34418881429709086 0.80832769929334125 0 0.51302657715650035 0.80832769929330395 0 -0.5 0.97000000000000008 0 -0.33116223714058973 0.97000000000000008 0 -0.16232447428116936 0.97000000000000008 0 0.0065132885782506712 0.97000000000000008 0 0.17535105143767069 0.97000000000000008 0 0.34418881429709103 0.97000000000000008 0 0.51302657715650135 0.97000000000000008 0
        </DataArray>
        <DataArray type="Float64" Name="displacement_magnitude" format="ascii">
          0.050033804240113944 0.050080886827375354 0.050221869752637774 0.050455965899401961 0.050781887574099599 0.051197881144551441 0.051701772495254081 0.05502817020009141 0.055070983051407681 0.055199222370270799 0.055412295058706276 0.055709227731320837 0.056088688543445578 0.056549016153980752 0.060022536160071485 0.060061789065635252 0.060179394162773382 0.060374893583249642 0.060647534046620273 0.060996281149263552 0.061419838484808705 0.065016902120058603 0.065053141507274911 0.065161738742902417 0.06534233305743177 0.065594329786466968 0.06591691003256013 0.066309043679592991 0.070011268080053757 0.070044923562311928 0.070145793123196687 0.070313587493969917 0.070547829144630397 0.070847859001705149 0.071212845544819908 0.075005634040029398 0.075037049491696914 0.075131217030279626 0.075287901191633227 0.075506712791573408 0.075787113711340975 0.07612842340519782 0.080000000000000002 0.080029454944277517 0.080117754803243652 0.080264705369817252 0.080469985329008523 0.080733149740082041 0.081053634788418247
        </DataArray>
        <DataArray type="Float64" Name="stress_2d" NumberOfComponents="3" format="ascii">
          -5.9377894852751039e-12 -33.36954910781953 3.4972658352360613e-12 -1.387471497127718e-11 -33.369549107815423 4.6780207433534244e-12 -3.0823240785527208e-11 -33.369549107807046 4.2338239312336542e-12 -3.9829989348883243e-11 -33.36954910780274 -9.4956443071950195e-15 -3.0790312998797471e-11 -33.369549107806961 -4.227619216663875e-12 -1.384663894943936e-11 -33.369549107815374 -4.6590724778326502e-12 -5.9377894852751039e-12 -33.36954910781953 -3.4907700219484597e-12 -6.1679896757629256e-12 -33.36954910782449 7.9098293288796702e-12 -1.5183032616600105e-11 -33.36954910781769 9.9949553617637509e-12 -3.3177350110224186e-11 -33.369549107805284 8.6103210373062747e-12 -4.2140276712557252e-11 -33.369549107799642 -2.4473372961584759e-15 -3.3155196095533872e-11 -33.369549107805234 -8.6010692557145076e-12 -1.525590719551905e-11 -33.369549107817718 -9.9868392482997967e-12 -6.3253509620737629e-12 -33.369549107824568 -7.9169953397276132e-12 -6.9642499139080826e-12 -33.369549107840285 1.9890377821231138e-11 -1.85952101912114e-11 -33.369549107823907 2.1601304049639543e-11 -3.7525079952542699e-11 -33.369549107799273 1.6015284985954094e-11 -4.4810067368562786e-11 -33.369549107790995 -6.1033548670956453e-16 -3.7490029518672742e-11 -33.369549107799259 -1.6012674527013581e-11 -1.8652762468504752e-11 -33.369549107823957 -2.1603371068942262e-11 -7.1216112002189184e-12 -33.369549107840371 -1.9900953448691022e-11 -4.9672135397571515e-12 -33.369549107859257 3.2623545701893728e-11 -1.4672678678347347e-11 -33.369549107827922 2.7878505983380922e-11 -2.9600404281024843e-11 -33.369549107789069 1.5717410956895389e-11 -3.4814548741340722e-11 -33.36954910778153 3.4020482172122575e-15 -2.9558869962823214e-11 -33.369549107789041 -1.5726049421224628e-11 -1.4643550251624886e-11 -33.369549107827922 -2.7891139584599473e-11 -4.9757933151726477e-12 -33.369549107859271 -3.2624731879237929e-11 2.0028098128032254e-11 -33.369549107830025 1.9673482520357431e-11 2.3411544157428794e-11 -33.369549107805923 8.6603347411005044e-12 2.2648733449115917e-11 -33.36954910777861 -1.7956598416763856e-12 1.8541932975895223e-11 -33.369549107775384 1.6696085909323486e-16 2.2654423570441368e-11 -33.369549107778603 1.7817703851794181e-12 2.3338205806865766e-11 -33.369549107805952 -8.6722722514262006e-12 1.9948953713232751e-11 -33.369549107830068 -1.9669244706296701e-11 2.4153293390021219e-11 -33.36954910784538 2.2262856938474969e-11 2.6436601730172137e-11 -33.369549107890862 1.1204465404757075e-11 1.5282675182227589e-11 -33.369549107961824 -7.7204866180641629e-13 1.9610353764193285e-12 -33.369549107987233 -1.7353532775805666e-14 1.5356272174669079e-11 -33.369549107961788 7.5450719439823412e-13 2.6346915429155255e-11 -33.369549107890933 -1.1193107025655794e-11 2.4057916967678879e-11 -33.369549107845451 -2.2239764311007653e-11 5.8462734060290483e-12 -33.369549107898081 4.2967477420083537e-11 -2.5961720907082332e-12 -33.369549107997869 3.2954555174969979e-11 -3.4414224625662099e-11 -33.369549108149542 1.443829244500143e-11 -5.7621322020738909e-11 -33.369549108201319 -2.2415250147076089e-14 -3.4254062872115781e-11 -33.36954910814945 -1.4455795464749605e-11 -2.6293317632600262e-12 -33.36954910799794 -3.2931812598540552e-11 5.7966498401123776e-12 -33.369549107898187 -4.2931816728022487e-11
        </DataArray>
        <DataArray type="Float64" Name="sigma_xx" format="ascii">
          -5.9377894852751039e-12 -1.387471497127718e-11 -3.0823240785527208e-11 -3.9829989348883243e-11 -3.0790312998797471e-11 -1.384663894943936e-11 -5.9377894852751039e-12 -6.1679896757629256e-12 -1.5183032616600105e-11 -3.3177350110224186e-11 -4.2140276712557252e-11 -3.3155196095533872e-11 -1.525590719551905e-11 -6.3253509620737629e-12 -6.9642499139080826e-12 -1.85952101912114e-11 -3.7525079952542699e-11 -4.4810067368562786e-11 -3.7490029518672742e-11 -1.8652762468504752e-11 -7.1216112002189184e-12 -4.9672135397571515e-12 -1.4672678678347347e-11 -2.9600404281024843e-11 -3.4814548741340722e-11 -2.9558869962823214e-11 -1.4643550251624886e-11 -4.9757933151726477e-12 2.0028098128032254e-11 2.3411544157428794e-11 2.2648733449115917e-11 1.8541932975895223e-11 2.2654423570441368e-11 2.3338205806865766e-11 1.9948953713232751e-11 2.4153293390021219e-11 2.6436601730172137e-11 1.5282675182227589e-11 1.9610353764193285e-12 1.5356272174669079e-11 2.6346915429155255e-11 2.4057916967678879e-11 5.8462734060290483e-12 -2.5961720907082332e-12 -3.4414224625662099e-11 -5.7621322020738909e-11 -3.4254062872115781e-11 -2.6293317632600262e-12 5.7966498401123776e-12
        </DataArray>
        <DataArray type="Float64" Name="sigma_yy" format="ascii">
          -33.36954910781953 -33.369549107815423 -33.369549107807046 -33.36954910780274 -33.369549107806961 -33.369549107815374 -33.36954910781953 -33.36954910782449 -33.36954910781769 -33.369549107805284 -33.369549107799642 -33.369549107805234 -33.369549107817718 -33.369549107824568 -33.369549107840285 -33.369549107823907 -33.369549107799273 -33.369549107790995 -33.369549107799259 -33.369549107823957 -33.369549107840371 -33.369549107859257 -33.369549107827922 -33.369549107789069 -33.36954910778153 -33.369549107789041 -33.369549107827922 -33.369549107859271 -33.369549107830025 -33.369549107805923 -33.36954910777861 -33.369549107775384 -33.369549107778603 -33.369549107805952 -33.369549107830068 -33.36954910784538 -33.369549107890862 -33.369549107961824 -33.369549107987233 -33.369549107961788 -33.369549107890933 -33.369549107845451 -33.369549107898081 -33.369549107997869 -33.369549108149542 -33.369549108201319 -33.36954910814945 -33.36954910799794 -33.369549107898187
        </DataArray>
        <DataArray type="Float64" Name="tau_xy" format="ascii">
          3.4972658352360613e-12 4.6780207433534244e-12 4.2338239312336542e-12 -9.4956443071950195e-15 -4.227619216663875e-12 -4.6590724778326502e-12 -3.4907700219484597e-12 7.9098293288796702e-12 9.9949553617637509e-12 8.6103210373062747e-12 -2.4473372961584759e-15 -8.6010692557145076e-12 -9.9868392482997967e-12 -7.9169953397276132e-12 1.9890377821231138e-11 2.1601304049639543e-11 1.6015284985954094e-11 -6.1033548670956453e-16 -1.6012674527013581e-11 -2.1603371068942262e-11 -1.9900953448691022e-11 3.2623545701893728e-11 2.7878505983380922e-11 1.5717410956895389e-11 3.4020482172122575e-15 -1.5726049421224628e-11 -2.7891139584599473e-11 -3.2624731879237929e-11 1.9673482520357431e-11 8.6603347411005044e-12 -1.7956598416763856e-12 1.6696085909323486e-16 1.7817703851794181e-12 -8.6722722514262006e-12 -1.9669244706296701e-11 2.2262856938474969e-11 1.1204465404757075e-11 -7.7204866180641629e-13 -1.7353532775805666e-14 7.5450719439823412e-13 -1.1193107025655794e-11 -2.2239764311007653e-11 4.2967477420083537e-11 3.2954555174969979e-11 1.443829244500143e-11 -2.2415250147076089e-14 -1.4455795464749605e-11 -3.2931812598540552e-11 -4.2931816728022487e-11
        </DataArray>
        <DataArray type="Float64" Name="sigma_zz" format="ascii">
          -10.263577558001918 -10.263577558002922 -10.26357755800519 -10.263577558006439 -10.263577558005156 -10.263577558002904 -10.263577558001918 -10.263577558003554 -10.263577558004013 -10.263577558005313 -10.263577558006135 -10.263577558005295 -10.263577558004046 -10.263577558003622 -10.263577558008775 -10.26357755800697 -10.263577558004675 -10.263577558004178 -10.263577558004663 -10.263577558006999 -10.263577558008842 -10.263577558014182 -10.263577558007107 -10.26357755799917 -10.263577557998296 -10.263577557999145 -10.263577558007096 -10.263577558014191 -10.263577557997749 -10.26357755798916 -10.263577557980767 -10.263577557980943 -10.263577557980767 -10.263577557989194 -10.263577557997781 -10.263577558001385 -10.263577558015056 -10.263577558040639 -10.263577558052507 -10.263577558040621 -10.263577558015106 -10.263577558001435 -10.263577558023279 -10.263577558057175 -10.263577558114168 -10.2635775581372 -10.263577558114111 -10.263577558057207 -10.263577558023329
        </DataArray>
        <DataArray type="Float64" Name="von_mises_stress" format="ascii">
          29.603663229478567 29.603663229468577 29.603663229447609 29.603663229436592 29.603663229447559 29.603663229468559 29.603663229478567 29.60366322948277 29.603663229469547 29.603663229444166 29.603663229432001 29.603663229444141 29.603663229469507 29.603663229482713 29.603663229496121 29.603663229472318 29.603663229435369 29.60366322942221 29.60366322943538 29.603663229472314 29.603663229496071 29.603663229514517 29.603663229479007 29.603663229432669 29.603663229421826 29.603663229432676 29.603663229479032 29.60366322951452 29.603663229508616 29.603663229489982 29.603663229465187 29.603663229459045 29.603663229465184 29.60366322948995 29.603663229508591 29.603663229525516 29.603663229567616 29.603663229621532 29.603663229633376 29.603663229621556 29.603663229567605 29.603663229525502 29.60366322955754 29.603663229639153 29.603663229748015 29.603663229775307 29.603663229748058 29.603663229639189 29.603663229557597
        </DataArray>
        <DataArray type="Float64" Name="cauchy_stress_2d" NumberOfComponents="3" format="ascii">
          -5.9377894852751039e-12 -33.36954910781953 3.4972658352360613e-12 -1.387471497127718e-11 -33.369549107815423 4.6780207433534244e-12 -3.0823240785527208e-11 -33.369549107807046 4.2338239312336542e-12 -3.9829989348883243e-11 -33.36954910780274 -9.4956443071950195e-15 -3.0790312998797471e-11 -33.369549107806961 -4.227619216663875e-12 -1.384663894943936e-11 -33.369549107815374 -4.6590724778326502e-12 -5.9377894852751039e-12 -33.36954910781953 -3.4907700219484597e-12 -6.1679896757629256e-12 -33.36954910782449 7.9098293288796702e-12 -1.5183032616600105e-11 -33.36954910781769 9.9949553617637509e-12 -3.3177350110224186e-11 -33.369549107805284 8.6103210373062747e-12 -4.2140276712557252e-11 -33.369549107799642 -2.4473372961584759e-15 -3.3155196095533872e-11 -33.369549107805234 -8.6010692557145076e-12 -1.525590719551905e-11 -33.369549107817718 -9.9868392482997967e-12 -6.3253509620737629e-12 -33.369549107824568 -7.9169953397276132e-12 -6.9642499139080826e-12 -33.369549107840285 1.9890377821231138e-11 -1.85952101912114e-11 -33.369549107823907 2.1601304049639543e-11 -3.7525079952542699e-11 -33.369549107799273 1.6015284985954094e-11 -4.4810067368562786e-11 -33.369549107790995 -6.1033548670956453e-16 -3.7490029518672742e-11 -33.369549107799259 -1.6012674527013581e-11 -1.8652762468504752e-11 -33.369549107823957 -2.1603371068942262e-11 -7.1216112002189184e-12 -33.369549107840371 -1.9900953448691022e-11 -4.9672135397571515e-12 -33.369549107859257 3.2623545701893728e-11 -1.4672678678347347e-11 -33.369549107827922 2.7878505983380922e-11 -2.9600404281024843e-11 -33.369549107789069 1.5717410956895389e-11 -3.4814548741340722e-11 -33.36954910778153 3.4020482172122575e-15 -2.9558869962823214e-11 -33.369549107789041 -1.5726049421224628e-11 -1.4643550251624886e-11 -33.369549107827922 -2.7891139584599473e-11 -4.9757933151726477e-12 -33.369549107859271 -3.2624731879237929e-11 2.0028098128032254e-11 -33.369549107830025 1.9673482520357431e-11 2.3411544157428794e-11 -33.369549107805923 8.6603347411005044e-12 2.2648733449115917e-11 -33.36954910777861 -1.7956598416763856e-12 1.8541932975895223e-11 -33.369549107775384 1.6696085909323486e-16 2.2654423570441368e-11 -33.369549107778603 1.7817703851794181e-12 2.3338205806865766e-11 -33.369549107805952 -8.6722722514262006e-12 1.9948953713232751e-11 -33.369549107830068 -1.9669244706296701e-11 2.4153293390021219e-11 -33.36954910784538 2.2262856938474969e-11 2.6436601730172137e-11 -33.369549107890862 1.1204465404757075e-11 1.5282675182227589e-11 -33.369549107961824 -7.7204866180641629e-13 1.9610353764193285e-12 -33.369549107987233 -1.7353532775805666e-14 1.5356272174669079e-11 -33.369549107961788 7.5450719439823412e-13 2.6346915429155255e-11 -33.369549107890933 -1.1193107025655794e-11 2.4057916967678879e-11 -33.369549107845451 -2.2239764311007653e-11 5.8462734060290483e-12 -33.369549107898081 4.2967477420083537e-11 -2.5961720907082332e-12 -33.369549107997869 3.2954555174969979e-11 -3.4414224625662099e-11 -33.369549108149542 1.443829244500143e-11 -5.7621322020738909e-11 -33.369549108201319 -2.2415250147076089e-14 -3.4254062872115781e-11 -33.36954910814945 -1.4455795464749605e-11 -2.6293317632600262e-12 -33.36954910799794 -3.2931812598540552e-11 5.7966498401123776e-12 -33.369549107898187 -4.2931816728022487e-11
        </DataArray>
        <DataArray type="Float64" Name="green_lagrange_strain_2d" NumberOfComponents="3" format="ascii">
          0.013111423012623802 -0.029517209315701981 4.5066136418559406e-15 0.01311142301261492 -0.029517209315695417 5.9411499081513431e-15 0.013111423012596102 -0.029517209315681706 5.3225097223798788e-15 0.013111423012586165 -0.029517209315674531 -1.2210641393981648e-17 0.013111423012596102 -0.02951720931568165 -5.3146894764514588e-15 0.01311142301261492 -0.029517209315695389 -5.9152621804406185e-15 0.013111423012623802 -0.029517209315701981 -4.4948999610792956e-15 0.01311142301262555 -0.029517209315706158 1.0076884989631621e-14 0.013111423012614615 -0.02951720931569686 1.2613121672301176e-14 0.013111423012593257 -0.029517209315679298 1.0786822225350299e-14 0.013111423012582835 -0.029517209315671006 -3.3718659156544722e-18 0.013111423012593257 -0.02951720931567927 -1.0775303182189983e-14 0.013111423012614559 -0.02951720931569686 -1.2601547890195986e-14 0.013111423012625439 -0.029517209315706158 -1.0083519243573184e-14 0.013111423012631074 -0.029517209315719425 2.4757089562269515e-14 0.013111423012613949 -0.029517209315700892 2.6836361635747277e-14 0.013111423012586887 -0.029517209315672477 1.9843321632491501e-14 0.01311142301257695 -0.029517209315662582 -1.2260739694425056e-18 0.013111423012586915 -0.029517209315672484 -1.9840815176096668e-14 0.013111423012613921 -0.029517209315700912 -2.683909268115142e-14 0.013111423012630963 -0.029517209315719425 -2.4770016713806358e-14 0.0131114230126404 -0.029517209315736495 3.8557819844909848e-14 0.013111423012619125 -0.029517209315705846 3.2982830353208157e-14 0.013111423012590093 -0.029517209315666745 1.8616034147429992e-14 0.013111423012582335 -0.02951720931565828 4.2398441356426155e-18 0.01311142301259012 -0.029517209315666731 -1.8627317653985098e-14 0.013111423012619153 -0.029517209315705853 -3.3000054270687807e-14 0.0131114230126404 -0.029517209315736509 -3.8561220978487652e-14 0.013111423012651696 -0.02951720931572098 1.7690919421478117e-14 0.013111423012645257 -0.029517209315701551 5.0748913821384414e-15 0.013111423012633752 -0.029517209315677785 -5.3260840030454078e-15 0.013111423012628715 -0.029517209315673441 -5.8548352496805937e-19 0.013111423012633752 -0.029517209315677775 5.3074624398535456e-15 0.013111423012645201 -0.029517209315701547 -5.0915694118722108e-15 0.013111423012651641 -0.02951720931572098 -1.768820332161187e-14 0.013111423012661549 -0.029517209315735746 2.2270220882054945e-14 0.013111423012681631 -0.029517209315775714 9.3983136188605697e-15 0.013111423012699505 -0.029517209315832404 -3.3994358291382391e-15 0.013111423012697382 -0.02951720931584912 -2.4034088520586599e-17 0.013111423012699561 -0.029517209315832408 3.374229983115885e-15 0.013111423012681575 -0.029517209315775738 -9.3850713688927081e-15 0.013111423012661494 -0.029517209315735773 -2.224139286711569e-14 0.013111423012665657 -0.029517209315774007 5.2407219823841626e-14 0.01311142301269741 -0.029517209315856538 4.0224875344817025e-14 0.013111423012728329 -0.029517209315974666 1.7649856106012038e-14 0.013111423012727608 -0.029517209316010234 -3.0498464218393739e-17 0.01311142301272844 -0.029517209315974652 -1.7675386757180691e-14 0.01311142301269741 -0.029517209315856593 -4.0196760693065125e-14 0.013111423012665657 -0.02951720931577409 -5.2360926146437311e-14
        </DataArray>
        <DataArray type="Float64" Name="jacobian_determinant" format="ascii">
          0.98267002443540641 0.98267002443540474 0.98267002443540108 0.98267002443539897 0.98267002443540119 0.98267002443540485 0.98267002443540652 0.98267002443540363 0.98267002443540297 0.98267002443540097 0.98267002443539953 0.98267002443540097 0.98267002443540297 0.98267002443540363 0.9826700244353952 0.98267002443539819 0.98267002443540197 0.98267002443540274 0.98267002443540197 0.98267002443539808 0.98267002443539508 0.98267002443538631 0.98267002443539797 0.98267002443541096 0.98267002443541251 0.98267002443541107 0.98267002443539797 0.98267002443538631 0.98267002443541329 0.98267002443542739 0.98267002443544127 0.98267002443544094 0.98267002443544127 0.98267002443542739 0.9826700244354134 0.98267002443540741 0.98267002443538487 0.98267002443534279 0.98267002443532325 0.98267002443534279 0.98267002443538476 0.9826700244354073 0.98267002443537144 0.98267002443531559 0.98267002443522178 0.98267002443518392 0.98267002443522189 0.98267002443531548 0.98267002443537121
        </DataArray>
        <DataArray type="Float64" Name="strain_energy_density" format="ascii">
          0.5020475378148036 0.50204753781457012 0.50204753781410527 0.50204753781387357 0.50204753781409384 0.50204753781455902 0.5020475378148036 0.50204753781496703 0.5020475378146354 0.50204753781402056 0.50204753781374234 0.50204753781400957 0.50204753781460965 0.50204753781494738 0.50204753781542832 0.5020475378147905 0.50204753781378664 0.50204753781342593 0.50204753781377298 0.50204753781476186 0.50204753781540878 0.50204753781602274 0.50204753781496236 0.50204753781358669 0.50204753781327138 0.50204753781358091 0.50204753781495948 0.50204753781602829 0.50204753781549782 0.50204753781480871 0.50204753781397016 0.50204753781383082 0.50204753781398614 0.5020475378148257 0.50204753781552014 0.50204753781598976 0.50204753781737921 0.50204753781936418 0.50204753781996903 0.50204753781937428 0.50204753781739653 0.50204753781602296 0.50204753781730305 0.50204753782018563 0.50204753782432432 0.50204753782557854 0.50204753782431744 0.50204753782019718 0.50204753781733613
        </DataArray>
        <DataArray type="Float64" Name="strain_2d" NumberOfComponents="3" format="ascii">
          0.013111423012623802 -0.029517209315701981 4.5066136418559406e-15 0.01311142301261492 -0.029517209315695417 5.9411499081513431e-15 0.013111423012596102 -0.029517209315681706 5.3225097223798788e-15 0.013111423012586165 -0.029517209315674531 -1.2210641393981648e-17 0.013111423012596102 -0.02951720931568165 -5.3146894764514588e-15 0.01311142301261492 -0.029517209315695389 -5.9152621804406185e-15 0.013111423012623802 -0.029517209315701981 -4.4948999610792956e-15 0.01311142301262555 -0.029517209315706158 1.0076884989631621e-14 0.013111423012614615 -0.02951720931569686 1.2613121672301176e-14 0.013111423012593257 -0.029517209315679298 1.0786822225350299e-14 0.013111423012582835 -0.029517209315671006 -3.3718659156544722e-18 0.013111423012593257 -0.02951720931567927 -1.0775303182189983e-14 0.013111423012614559 -0.02951720931569686 -1.2601547890195986e-14 0.013111423012625439 -0.029517209315706158 -1.0083519243573184e-14 0.013111423012631074 -0.029517209315719425 2.4757089562269515e-14 0.013111423012613949 -0.029517209315700892 2.6836361635747277e-14 0.013111423012586887 -0.029517209315672477 1.9843321632491501e-14 0.01311142301257695 -0.029517209315662582 -1.2260739694425056e-18 0.013111423012586915 -0.029517209315672484 -1.9840815176096668e-14 0.013111423012613921 -0.029517209315700912 -2.683909268115142e-14 0.013111423012630963 -0.029517209315719425 -2.4770016713806358e-14 0.0131114230126404 -0.029517209315736495 3.8557819844909848e-14 0.013111423012619125 -0.029517209315705846 3.2982830353208157e-14 0.013111423012590093 -0.029517209315666745 1.8616034147429992e-14 0.013111423012582335 -0.02951720931565828 4.2398441356426155e-18 0.01311142301259012 -0.029517209315666731 -1.8627317653985098e-14 0.013111423012619153 -0.029517209315705853 -3.3000054270687807e-14 0.0131114230126404 -0.029517209315736509 -3.8561220978487652e-14 0.013111423012651696 -0.02951720931572098 1.7690919421478117e-14 0.013111423012645257 -0.029517209315701551 5.0748913821384414e-15 0.013111423012633752 -0.029517209315677785 -5.3260840030454078e-15 0.013111423012628715 -0.029517209315673441 -5.8548352496805937e-19 0.013111423012633752 -0.029517209315677775 5.3074624398535456e-15 0.013111423012645201 -0.029517209315701547 -5.0915694118722108e-15 0.013111423012651641 -0.02951720931572098 -1.768820332161187e-14 0.013111423012661549 -0.029517209315735746 2.2270220882054945e-14 0.013111423012681631 -0.029517209315775714 9.3983136188605697e-15 0.013111423012699505 -0.029517209315832404 -3.3994358291382391e-15 0.013111423012697382 -0.02951720931584912 -2.4034088520586599e-17 0.013111423012699561 -0.029517209315832408 3.374229983115885e-15 0.013111423012681575 -0.029517209315775738 -9.3850713688927081e-15 0.013111423012661494 -0.029517209315735773 -2.224139286711569e-14 0.013111423012665657 -0.029517209315774007 5.2407219823841626e-14 0.01311142301269741 -0.029517209315856538 4.0224875344817025e-14 0.013111423012728329 -0.029517209315974666 1.7649856106012038e-14 0.013111423012727608 -0.029517209316010234 -3.0498464218393739e-17 0.01311142301272844 -0.029517209315974652 -1.7675386757180691e-14 0.01311142301269741 -0.029517209315856593 -4.0196760693065125e-14 0.013111423012665657 -0.02951720931577409 -5.2360926146437311e-14
        </DataArray>
        <DataArray type="Float64" Name="strain_xx" format="ascii">
          0.013111423012623802 0.01311142301261492 0.013111423012596102 0.013111423012586165 0.013111423012596102 0.01311142301261492 0.013111423012623802 0.01311142301262555 0.013111423012614615 0.013111423012593257 0.013111423012582835 0.013111423012593257 0.013111423012614559 0.013111423012625439 0.013111423012631074 0.013111423012613949 0.013111423012586887 0.01311142301257695 0.013111423012586915 0.013111423012613921 0.013111423012630963 0.0131114230126404 0.013111423012619125 0.013111423012590093 0.013111423012582335 0.01311142301259012 0.013111423012619153 0.0131114230126404 0.013111423012651696 0.013111423012645257 0.013111423012633752 0.013111423012628715 0.013111423012633752 0.013111423012645201 0.013111423012651641 0.013111423012661549 0.013111423012681631 0.013111423012699505 0.013111423012697382 0.013111423012699561 0.013111423012681575 0.013111423012661494 0.013111423012665657 0.01311142301269741 0.013111423012728329 0.013111423012727608 0.01311142301272844 0.01311142301269741 0.013111423012665657
        </DataArray>
        <DataArray type="Float64" Name="strain_yy" format="ascii">
          -0.029517209315701981 -0.029517209315695417 -0.029517209315681706 -0.029517209315674531 -0.02951720931568165 -0.029517209315695389 -0.029517209315701981 -0.029517209315706158 -0.02951720931569686 -0.029517209315679298 -0.029517209315671006 -0.02951720931567927 -0.02951720931569686 -0.029517209315706158 -0.029517209315719425 -0.029517209315700892 -0.029517209315672477 -0.029517209315662582 -0.029517209315672484 -0.029517209315700912 -0.029517209315719425 -0.029517209315736495 -0.029517209315705846 -0.029517209315666745 -0.02951720931565828 -0.029517209315666731 -0.029517209315705853 -0.029517209315736509 -0.02951720931572098 -0.029517209315701551 -0.029517209315677785 -0.029517209315673441 -0.029517209315677775 -0.029517209315701547 -0.02951720931572098 -0.029517209315735746 -0.029517209315775714 -0.029517209315832404 -0.02951720931584912 -0.029517209315832408 -0.029517209315775738 -0.029517209315735773 -0.029517209315774007 -0.029517209315856538 -0.029517209315974666 -0.029517209316010234 -0.029517209315974652 -0.029517209315856593 -0.02951720931577409
        </DataArray>
        <DataArray type="Float64" Name="gamma_xy" format="ascii">
          4.5066136418559406e-15 5.9411499081513431e-15 5.3225097223798788e-15 -1.2210641393981648e-17 -5.3146894764514588e-15 -5.9152621804406185e-15 -4.4948999610792956e-15 1.0076884989631621e-14 1.2613121672301176e-14 1.0786822225350299e-14 -3.3718659156544722e-18 -1.0775303182189983e-14 -1.2601547890195986e-14 -1.0083519243573184e-14 2.4757089562269515e-14 2.6836361635747277e-14 1.9843321632491501e-14 -1.2260739694425056e-18 -1.9840815176096668e-14 -2.683909268115142e-14 -2.4770016713806358e-14 3.8557819844909848e-14 3.2982830353208157e-14 1.8616034147429992e-14 4.2398441356426155e-18 -1.8627317653985098e-14 -3.3000054270687807e-14 -3.8561220978487652e-14 1.7690919421478117e-14 5.0748913821384414e-15 -5.3260840030454078e-15 -5.8548352496805937e-19 5.3074624398535456e-15 -5.0915694118722108e-15 -1.768820332161187e-14 2.2270220882054945e-14 9.3983136188605697e-15 -3.3994358291382391e-15 -2.4034088520586599e-17 3.374229983115885e-15 -9.3850713688927081e-15 -2.224139286711569e-14 5.2407219823841626e-14 4.0224875344817025e-14 1.7649856106012038e-14 -3.0498464218393739e-17 -1.7675386757180691e-14 -4.0196760693065125e-14 -5.2360926146437311e-14
        </DataArray>
        <DataArray type="Float64" Name="reaction_force" NumberOfComponents="3" format="ascii">
          2.2214886494231227e-13 2.9665159217984183e-13 0 4.0015612082364816e-13 1.1013412404281553e-13 0 7.1467174829558024e-13 5.559996907322784e-13 0 5.3923097440110677e-16 1.2114753644709708e-12 0 -7.1926226367771173e-13 5.3734794391857577e-13 0 -3.9935548048146333e-13 4.4408920985006262e-13 0 -2.2209013971448301e-13 -3.730349362740526e-14 0 3.3535481111248644e-13 -1.283417816466681e-13 0 9.2677343748062433e-13 -5.5067062021407764e-14 0 1.3996069577812991e-12 3.5083047578154947e-13 0 -7.8640598322062612e-15 5.5644377994212846e-13 0 -1.3973233991519087e-12 3.5749181392930041e-13 0 -8.9461506376951086e-13 -2.886579864025407e-14 0 -3.5937725989063772e-13 -1.1901590823981678e-13 0 -3.4439945569443504e-14 -2.4913404672588513e-13 0 1.4280906365019357e-12 -2.1938006966593093e-13 0 1.6215452946283483e-12 6.794564910705958e-13 0 -1.7725408084665333e-15 1.0884626533425035e-12 0 -1.6144759062994071e-12 6.7768013423119555e-13 0 -1.4027420710629201e-12 -2.3314683517128287e-13 0 6.875677197203949e-15 -2.6334490144108713e-13 0 -2.2430807996771393e-14 -2.1027624086400465e-12 0 4.1232709856709884e-12 -4.6540549192286562e-13 0 2.5816461967502726e-12 8.4909856923331972e-13 0 -6.4292941076790766e-15 1.3016254740705335e-12 0 -2.5954032728196189e-12 8.4510176634466916e-13 0 -4.1016797064250973e-12 -4.7073456244106637e-13 0 2.2371138994400211e-14 -2.0978774273316958e-12 0 -2.0347076733689479e-13 -1.2044143460343548e-11 0 7.2023889342164966e-12 -4.9871218266162032e-13 0 6.4198250487530734e-12 -2.070787985530842e-12 0 -1.4451813381794365e-14 -3.4194869158454821e-13 0 -6.3837999510083755e-12 -2.0414780976807378e-12 0 -7.2161513305998335e-12 -4.9116266609416925e-13 0 1.9602935322325057e-13 -1.2049028441651899e-11 0 -7.5326577110994082e-12 5.1469939421622257e-13 0 -1.0482465999819304e-11 4.18474144225911e-11 0 -1.1064110018078308e-12 6.6434857615149667e-11 0 -2.9592250758966651e-14 7.2896799707677928e-11 0 1.1475716165735404e-12 6.6401550924410913e-11 0 1.0490698742485838e-11 4.1855852117578252e-11 0 7.5085867109395558e-12 5.2358117841322382e-13 0 3.0261663773091104e-12 -2.8170200095002293 0 7.0315454812239041e-12 -5.634040019022815 0 6.2428098325539572e-12 -5.6340400190483209 0 -3.10039387562002e-14 -5.6340400190568083 0 -6.2186325048290751e-12 -5.6340400190483102 0 -7.0232128175880073e-12 -5.6340400190228337 0 -3.0275618998392171e-12 -2.817020009500236 0
        </DataArray>
        <DataArray type="Float64" Name="reaction_force_magnitude" format="ascii">
          3.706106924226457e-13 4.1503547596718571e-13 9.0547852757878822e-13 1.2114754844775503e-12 8.9782014723679871e-13 5.9724369071245395e-13 2.2520120069664026e-13 3.5907445224149891e-13 9.2840798453014304e-13 1.4429073632797539e-12 5.564993474150068e-13 1.4423290466616507e-12 8.9508063695650672e-13 3.7857205567850811e-13 2.5150324667654243e-13 1.4448427184407072e-12 1.7581439832361009e-12 1.0884640966161083e-12 1.7509376963081535e-12 1.4219855008685129e-12 2.6343464474502217e-13 2.1028820433721616e-12 4.1494536861119642e-12 2.7176948808630484e-12 1.3016413525130739e-12 2.7295265421024337e-12 4.1286035705037189e-12 2.097996703516896e-12 1.2045862030029106e-11 7.2196343536815879e-12 6.7455404926229806e-12 3.4225394458852722e-13 6.702278316946014e-12 7.2328473501576461e-12 1.2050622967094336e-11 7.5502216960160795e-12 4.3140331330362465e-11 6.6444070101478068e-11 7.2896805714123155e-11 6.6411466523351977e-11 4.3150516991041649e-11 7.5268194907335655e-12 2.8170200095002293 5.634040019022815 5.6340400190483209 5.6340400190568083 5.6340400190483102 5.6340400190228337 2.817020009500236
        </DataArray>
        <DataArray type="Float64" Name="contact_force" NumberOfComponents="3" format="ascii">
          -0 -2.8170200094952054 0 -0 -5.6340400189905022 0 -0 -5.6340400189884345 0 -0 -5.6340400189869424 0 -0 -5.6340400189884319 0 -0 -5.6340400189901683 0 -0 -2.8170200094955415 0 -0 -0 0 -0 -0 0 -0 -0 0 -0 -0 0 -0 -0 0 -0 -0 0 -0 -0 0 -0 -0 0 -0 -0 0 -0 -0 0 -0 -0 0 -0 -0 0 -0 -0 0 -0 -0 0 -0 -0 0 -0 -0 0 -0 -0 0 -0 -0 0 -0 -0 0 -0 -0 0 -0 -0 0 -0 -0 0 -0 -0 0 -0 -0 0 -0 -0 0 -0 -0 0 -0 -0 0 -0 -0 0 -0 -0 0 -0 -0 0 -0 -0 0 -0 -0 0 -0 -0 0 -0 -0 0 -0 -0 0 -0 -0 0 -0 -0 0 -0 -0 0 -0 -0 0 -0 -0 0 -0 -0 0 -0 -0 0
        </DataArray>
        <DataArray type="Float64" Name="contact_force_magnitude" format="ascii">
          2.8170200094952054 5.6340400189905022 5.6340400189884345 5.6340400189869424 5.6340400189884319 5.6340400189901683 2.8170200094955415 0 0 0 0 0 0 0 0 0 0 0 0 0 0 0 0 0 0 0 0 0 0 0 0 0 0 0 0 0 0 0 0 0 0 0 0 0 0 0 0 0 0
        </DataArray>
        <DataArray type="Float64" Name="rigid_plane_signed_distance" format="ascii">
          -3.3804240113941009e-05 -3.3804240113947948e-05 -3.3804240113927131e-05 -3.3804240113920192e-05 -3.3804240113927131e-05 -3.3804240113941009e-05 -3.3804240113947948e-05 0.16163849646657527 0.16163849646657646 0.1616384964665798 0.16163849646658141 0.1616384964665798 0.16163849646657649 0.16163849646657524 0.32331079717326183 0.32331079717326661 0.3233107971732746 0.32331079717327799 0.3233107971732746 0.32331079717326661 0.32331079717326183 0.48498309787994143 0.48498309787995764 0.48498309787997146 0.48498309787997612 0.48498309787997146 0.48498309787995764 0.48498309787994143 0.64665539858661292 0.64665539858665111 0.64665539858666787 0.64665539858667409 0.64665539858666787 0.64665539858665111 0.64665539858661292 0.80832769929330395 0.80832769929334114 0.80832769929336057 0.80832769929336568 0.80832769929336057 0.80832769929334125 0.80832769929330395 0.97000000000000008 0.97000000000000008 0.97000000000000008 0.97000000000000008 0.97000000000000008 0.97000000000000008 0.97000000000000008
        </DataArray>
        <DataArray type="Float64" Name="rigid_plane_penetration" format="ascii">
          3.3804240113941009e-05 3.3804240113947948e-05 3.3804240113927131e-05 3.3804240113920192e-05 3.3804240113927131e-05 3.3804240113941009e-05 3.3804240113947948e-05 0 0 0 0 0 0 0 0 0 0 0 0 0 0 0 0 0 0 0 0 0 0 0 0 0 0 0 0 0 0 0 0 0 0 0 0 0 0 0 0 0 0
        </DataArray>
      </PointData>
      <CellData>
        <DataArray type="Int32" Name="element_id" format="ascii">
          1 2 3 4 5 6 7 8 9 10 11 12 13 14 15 16 17 18 19 20 21 22 23 24 25 26 27 28 29 30 31 32 33 34 35 36
        </DataArray>
        <DataArray type="Int32" Name="material_id" format="ascii">
          1 1 1 1 1 1 1 1 1 1 1 1 1 1 1 1 1 1 1 1 1 1 1 1 1 1 1 1 1 1 1 1 1 1 1 1
        </DataArray>
        <DataArray type="Float64" Name="cell_jacobian_determinant" format="ascii">
          0.98267002443540641 0.98267002443540319 0.98267002443539897 0.98267002443539908 0.98267002443540319 0.98267002443540652 0.98267002443540097 0.98267002443540141 0.98267002443539997 0.98267002443540008 0.9826700244354013 0.98267002443540086 0.98267002443538931 0.98267002443540097 0.98267002443540541 0.98267002443540541 0.98267002443540097 0.98267002443538931 0.9826700244353832 0.98267002443541818 0.9826700244354194 0.9826700244354194 0.98267002443541829 0.98267002443538332 0.98267002443544338 0.98267002443546492 0.98267002443546259 0.98267002443546247 0.98267002443546481 0.98267002443544338 0.98267002443537144 0.98267002443525975 0.98267002443518381 0.98267002443518403 0.98267002443525975 0.98267002443537121
        </DataArray>
        <DataArray type="Float64" Name="cell_jacobian_determinant_min" format="ascii">
          0.98267002443540385 0.98267002443539675 0.98267002443539531 0.98267002443539531 0.98267002443539675 0.98267002443540385 0.98267002443539342 0.9826700244353912 0.98267002443539431 0.98267002443539442 0.9826700244353912 0.9826700244353932 0.98267002443536655 0.98267002443538765 0.98267002443540286 0.98267002443540286 0.98267002443538787 0.98267002443536655 0.98267002443534135 0.98267002443540397 0.98267002443540763 0.98267002443540774 0.98267002443540397 0.98267002443534135 0.98267002443543872 0.98267002443543017 0.98267002443542695 0.98267002443542717 0.98267002443543006 0.98267002443543872 0.98267002443530438 0.98267002443522533 0.98267002443517493 0.98267002443517526 0.98267002443522533 0.98267002443530427
        </DataArray>
        <DataArray type="Float64" Name="cell_jacobian_determinant_max" format="ascii">
          0.98267002443540907 0.98267002443540952 0.98267002443540274 0.98267002443540286 0.98267002443540963 0.98267002443540907 0.98267002443540874 0.98267002443541152 0.98267002443540574 0.98267002443540574 0.9826700244354114 0.98267002443540852 0.98267002443541207 0.98267002443541407 0.98267002443540807 0.98267002443540807 0.98267002443541407 0.98267002443541207 0.98267002443542517 0.9826700244354325 0.98267002443543106 0.98267002443543106 0.9826700244354325 0.98267002443542517 0.98267002443544793 0.98267002443549967 0.98267002443549811 0.982670024435498 0.98267002443549956 0.98267002443544782 0.98267002443543827 0.98267002443529428 0.98267002443519269 0.9826700244351928 0.98267002443529428 0.98267002443543816
        </DataArray>
        <DataArray type="Float64" Name="cell_strain_energy_density" format="ascii">
          0.5020475378148036 0.50204753781433675 0.50204753781387379 0.50204753781387323 0.50204753781431455 0.5020475378148036 0.50204753781513045 0.50204753781427125 0.50204753781360067 0.50204753781362144 0.50204753781422939 0.50204753781509126 0.5020475378157262 0.50204753781403388 0.50204753781324063 0.50204753781324063 0.50204753781400069 0.5020475378157262 0.50204753781631917 0.5020475378137701 0.50204753781330225 0.5020475378133018 0.50204753781378053 0.50204753781633049 0.50204753781467648 0.50204753781446909 0.50204753781433897 0.50204753781438038 0.50204753781448197 0.50204753781470979 0.50204753781730305 0.50204753782306832 0.50204753782558031 0.50204753782557676 0.50204753782305822 0.50204753781733613
        </DataArray>
        <DataArray type="Float64" Name="cell_cauchy_stress_2d" NumberOfComponents="3" format="ascii">
          -5.9377894852751039e-12 -33.36954910781953 3.4972658352360613e-12 -2.1811640457279256e-11 -33.369549107811316 5.8587756514707882e-12 -3.9834841113775167e-11 -33.369549107802776 2.6088722109965197e-12 -3.9825137583991319e-11 -33.369549107802698 -2.6278634996109097e-12 -2.1755488413603616e-11 -33.369549107811224 -5.8273749337168407e-12 -5.9377894852751039e-12 -33.36954910781953 -3.4907700219484597e-12 -6.3981898662507464e-12 -33.369549107829449 1.2322392822523279e-11 -2.6584510657595313e-11 -33.369549107810442 1.8301387137824879e-11 -4.4478408212247032e-11 -33.369549107796601 7.6722491489329116e-12 -4.4422719940215476e-11 -33.369549107796502 -7.6630472095031555e-12 -2.661743844432506e-11 -33.369549107810514 -1.8285991380027125e-11 -6.712912438872422e-12 -33.369549107829613 -1.2343220657506767e-11 -7.530309961565418e-12 -33.369549107851128 2.7458362819938998e-11 -3.3867830279434131e-11 -33.369549107804602 2.8323073418271017e-11 -4.5169570660894324e-11 -33.369549107785438 9.7644302387875623e-12 -4.5169570660894324e-11 -33.369549107785438 -9.7760735201641567e-12 -3.3750389029256116e-11 -33.369549107804588 -2.832558599835989e-11 -7.5303099615654148e-12 -33.369549107851128 -2.7458686239875274e-11 -2.4041171179488851e-12 -33.369549107867378 3.7788728583848461e-11 -1.4888457354440951e-11 -33.369549107788586 1.7943859111465208e-11 -2.447575882932995e-11 -33.369549107777658 6.8382810590577743e-12 -2.4443294814244287e-11 -33.36954910777758 -6.8130295848123309e-12 -1.4872225346898124e-11 -33.369549107788558 -1.7989508581562142e-11 -2.4212766687798797e-12 -33.369549107867414 -3.7790777518600583e-11 4.2460313374013392e-11 -33.369549107792679 1.5582364568663984e-12 6.8478437728091627e-11 -33.369549107775043 -2.2649485187778052e-11 6.148071225214294e-11 -33.369549107773167 -9.3152943494504718e-12 6.1606073295012191e-11 -33.369549107773139 9.2907107186414014e-12 6.8327141147895689e-11 -33.369549107775129 2.2638908988450745e-11 4.2319184095245379e-11 -33.369549107792714 -1.5477118939928185e-12 5.8462734060290483e-12 -33.369549107898081 4.2967477420083537e-11 -1.1038617587445515e-11 -33.369549108097651 2.2941632929856418e-11 -5.7789831663878688e-11 -33.369549108201433 5.9349519601464419e-12 -5.7452812377599136e-11 -33.369549108201205 -5.9797824604405941e-12 -1.105531336663243e-11 -33.369549108097694 -2.2931808469058617e-11 5.7966498401123776e-12 -33.369549107898187 -4.2931816728022487e-11
        </DataArray>
        <DataArray type="Float64" Name="cell_sigma_zz" format="ascii">
          -10.263577558001918 -10.263577558003924 -10.263577558006457 -10.263577558006421 -10.26357755800389 -10.263577558001918 -10.26357755800519 -10.263577558005021 -10.263577558005847 -10.263577558005814 -10.263577558005053 -10.263577558005325 -10.26357755801236 -10.263577558005307 -10.263577558002524 -10.263577558002524 -10.26357755800526 -10.26357755801236 -10.263577558016005 -10.263577557994761 -10.263577557994086 -10.263577557994052 -10.263577557994743 -10.263577558016021 -10.263577557979492 -10.263577557966384 -10.263577557967835 -10.2635775579678 -10.263577557966467 -10.263577557979541 -10.263577558023279 -10.26357755809107 -10.263577558137266 -10.263577558137133 -10.263577558091088 -10.263577558023329
        </DataArray>
        <DataArray type="Float64" Name="cell_von_mises_stress" format="ascii">
          29.603663229478567 29.603663229458597 29.60366322943662 29.603663229436556 29.603663229458558 29.603663229478567 29.603663229486976 29.603663229454011 29.60366322942744 29.603663229427394 29.603663229454046 29.60366322948687 29.603663229505266 29.603663229443008 29.603663229417002 29.603663229417002 29.603663229443093 29.603663229505266 29.603663229523754 29.603663229444006 29.603663229426662 29.603663229426619 29.603663229443992 29.603663229523772 29.603663229493485 29.603663229498682 29.603663229491417 29.603663229491488 29.603663229498633 29.603663229493403 29.60366322955754 29.603663229720755 29.603663229775275 29.603663229775336 29.60366322972078 29.603663229557597
        </DataArray>
        <DataArray type="Float64" Name="cell_second_piola_stress_2d" NumberOfComponents="3" format="ascii">
          -5.6857901392346028e-12 -34.848517614731421 3.684115494754555e-12 -2.088595605150297e-11 -34.848517614721764 6.0295560878247574e-12 -3.8144253406821451e-11 -34.848517614711632 2.6726500907046532e-12 -3.813496169412305e-11 -34.848517614711554 -2.6926142663520394e-12 -2.0832187096402662e-11 -34.848517614721658 -5.9968059529240163e-12 -5.6857901392346028e-12 -34.848517614731421 -3.6745396676969512e-12 -6.1266511621361401e-12 -34.848517614742214 1.2791407405350613e-11 -2.5456265993966439e-11 -34.848517614720585 1.8739368114052595e-11 -4.2590747861507881e-11 -34.848517614704697 7.8309403339088365e-12 -4.2537422995617424e-11 -34.848517614704598 -7.8220020366289412e-12 -2.5487796327865794e-11 -34.848517614720663 -1.8723425520250575e-11 -6.4280169320820827e-12 -34.84851761474237 -1.2811830116425636e-11 -7.2107241644428172e-12 -34.848517614765782 2.7685981831781992e-11 -3.2430482070410976e-11 -34.848517614713892 2.8537164846041245e-11 -4.3252577427018272e-11 -34.848517614692497 9.7794635533771018e-12 -4.3252577427018266e-11 -34.848517614692497 -9.7924110677477046e-12 -3.2318025018193555e-11 -34.848517614713884 -2.8540902201904105e-11 -7.2107241644428172e-12 -34.848517614765782 -2.7686694777350633e-11 -2.3020865654905002e-12 -34.848517614783717 3.5355349342148285e-11 -1.4256592326861235e-11 -34.848517614697307 1.6274154348412309e-11 -2.3437009437132426e-11 -34.848517614684958 6.2829688570943311e-12 -2.3405923192442922e-11 -34.84851761468488 -6.2561572072847457e-12 -1.4241049204516483e-11 -34.848517614697265 -1.6321177782228974e-11 -2.3185178662549533e-12 -34.848517614783759 -3.5360197187856432e-11 4.0658300818755978e-11 -34.848517614704356 -6.431019219059004e-12 6.557221790197124e-11 -34.848517614686315 -2.8603775041347775e-11 5.8871475377023228e-11 -34.848517614683956 -1.1369448288415828e-11 5.8991516106516543e-11 -34.848517614683942 1.1340722128867737e-11 6.5427342337434777e-11 -34.848517614686408 2.8591821153524721e-11 4.0523161056127761e-11 -34.848517614704384 6.4403078384379223e-12 5.5981579956167587e-12 -34.848517614817546 4.2842423587599859e-11 -1.0570139474478972e-11 -34.848517615034233 2.2924512879321461e-11 -5.5337235487583538e-11 -34.848517615145184 5.9326794730302299e-12 -5.501451927485634e-11 -34.848517615144964 -5.9825439049618751e-12 -1.0586126686033575e-11 -34.848517615034275 -2.2916390595724029e-11 5.550640450162802e-12 -34.848517614817659 -4.2804578929107213e-11
        </DataArray>
        <DataArray type="Float64" Name="cell_green_lagrange_strain_2d" NumberOfComponents="3" format="ascii">
          0.013111423012623802 -0.029517209315701981 4.5066136418559406e-15 0.013111423012606038 -0.029517209315688853 7.3756861744467455e-15 0.013111423012586165 -0.029517209315674559 3.2693332703130121e-15 0.013111423012586165 -0.029517209315674503 -3.2937545531009754e-15 0.013111423012606038 -0.029517209315688797 -7.3356243998019414e-15 0.013111423012623802 -0.029517209315701981 -4.4948999610792956e-15 0.013111423012627299 -0.029517209315710335 1.56471563374073e-14 0.01311142301260132 -0.029517209315686271 2.2923030535494716e-14 0.013111423012579504 -0.029517209315667509 9.5792389211467245e-15 0.013111423012579504 -0.029517209315667453 -9.5683051020213783e-15 0.01311142301260132 -0.029517209315686327 -2.2903528673835637e-14 0.013111423012627077 -0.029517209315710335 -1.567213852606707e-14 0.013111423012634849 -0.029517209315728515 3.3867022787131727e-14 0.013111423012592327 -0.029517209315678444 3.4908236882955359e-14 0.013111423012574397 -0.029517209315657683 1.1962780190369204e-14 0.013111423012574397 -0.029517209315657683 -1.197861830537232e-14 0.013111423012592438 -0.029517209315678472 -3.4912808623157326e-14 0.013111423012634849 -0.029517209315728515 -3.3867894901545646e-14 0.013111423012645951 -0.029517209315744475 4.3248616902687969e-14 0.013111423012603374 -0.029517209315671949 1.9907444840057568e-14 0.013111423012590273 -0.029517209315658904 7.6856746763378372e-15 0.013111423012590273 -0.029517209315658849 -7.6528771847921505e-15 0.013111423012603374 -0.029517209315671922 -1.9964966502618592e-14 0.013111423012645951 -0.029517209315744503 -4.3254547055429665e-14 0.013111423012657442 -0.029517209315697485 -7.8667780597317352e-15 0.013111423012674261 -0.029517209315692294 -3.4989718154460036e-14 0.013111423012667101 -0.029517209315687992 -1.3907737374116997e-14 0.013111423012667212 -0.02951720931568802 1.3872597948471438e-14 0.01311142301267415 -0.029517209315692308 3.4975095498353485e-14 0.013111423012657331 -0.029517209315697457 7.8781404122059286e-15 0.013111423012665657 -0.029517209315774007 5.2407219823841626e-14 0.013111423012729162 -0.029517209315939069 2.8042530865792424e-14 0.013111423012727497 -0.029517209316010262 7.2571813462316539e-15 0.013111423012727719 -0.029517209316010207 -7.3181782746684414e-15 0.013111423012729162 -0.029517209315939097 -2.8032595239692939e-14 0.013111423012665657 -0.02951720931577409 -5.2360926146437311e-14
        </DataArray>
        <DataArray type="Int32" Name="candidate_contact_facet" format="ascii">
          1 1 1 1 1 1 0 0 0 0 0 0 0 0 0 0 0 0 0 0 0 0 0 0 0 0 0 0 0 0 0 0 0 0 0 0
        </DataArray>
        <DataArray type="Int32" Name="candidate_contact_surface_index" format="ascii">
          0 0 0 0 0 0 -1 -1 -1 -1 -1 -1 -1 -1 -1 -1 -1 -1 -1 -1 -1 -1 -1 -1 -1 -1 -1 -1 -1 -1 -1 -1 -1 -1 -1 -1
        </DataArray>
        <DataArray type="Int32" Name="active_contact_facet" format="ascii">
          1 1 1 1 1 1 0 0 0 0 0 0 0 0 0 0 0 0 0 0 0 0 0 0 0 0 0 0 0 0 0 0 0 0 0 0
        </DataArray>
        <DataArray type="Int32" Name="active_contact_surface_index" format="ascii">
          0 0 0 0 0 0 -1 -1 -1 -1 -1 -1 -1 -1 -1 -1 -1 -1 -1 -1 -1 -1 -1 -1 -1 -1 -1 -1 -1 -1 -1 -1 -1 -1 -1 -1
        </DataArray>
      </CellData>
      <Points>
        <DataArray type="Float64" NumberOfComponents="3" format="ascii">
          -0.5 0.050000000000000003 0 -0.33333333333333337 0.050000000000000003 0 -0.16666666666666669 0.050000000000000003 0 0 0.050000000000000003 0 0.16666666666666663 0.050000000000000003 0 0.33333333333333326 0.050000000000000003 0 0.5 0.050000000000000003 0 -0.5 0.21666666666666667 0 -0.33333333333333337 0.21666666666666667 0 -0.16666666666666669 0.21666666666666667 0 0 0.21666666666666667 0 0.16666666666666663 0.21666666666666667 0 0.33333333333333326 0.21666666666666667 0 0.5 0.21666666666666667 0 -0.5 0.3833333333333333 0 -0.33333333333333337 0.3833333333333333 0 -0.16666666666666669 0.3833333333333333 0 0 0.3833333333333333 0 0.16666666666666663 0.3833333333333333 0 0.33333333333333326 0.3833333333333333 0 0.5 0.3833333333333333 0 -0.5 0.55000000000000004 0 -0.33333333333333337 0.55000000000000004 0 -0.16666666666666669 0.55000000000000004 0 0 0.55000000000000004 0 0.16666666666666663 0.55000000000000004 0 0.33333333333333326 0.55000000000000004 0 0.5 0.55000000000000004 0 -0.5 0.71666666666666667 0 -0.33333333333333337 0.71666666666666667 0 -0.16666666666666669 0.71666666666666667 0 0 0.71666666666666667 0 0.16666666666666663 0.71666666666666667 0 0.33333333333333326 0.71666666666666667 0 0.5 0.71666666666666667 0 -0.5 0.8833333333333333 0 -0.33333333333333337 0.8833333333333333 0 -0.16666666666666669 0.8833333333333333 0 0 0.8833333333333333 0 0.16666666666666663 0.8833333333333333 0 0.33333333333333326 0.8833333333333333 0 0.5 0.8833333333333333 0 -0.5 1.05 0 -0.33333333333333337 1.05 0 -0.16666666666666669 1.05 0 0 1.05 0 0.16666666666666663 1.05 0 0.33333333333333326 1.05 0 0.5 1.05 0
        </DataArray>
      </Points>
      <Cells>
        <DataArray type="Int32" Name="connectivity" format="ascii">
          8 7 0 1 9 8 1 2 10 9 2 3 11 10 3 4 12 11 4 5 13 12 5 6 15 14 7 8 16 15 8 9 17 16 9 10 18 17 10 11 19 18 11 12 20 19 12 13 22 21 14 15 23 22 15 16 24 23 16 17 25 24 17 18 26 25 18 19 27 26 19 20 29 28 21 22 30 29 22 23 31 30 23 24 32 31 24 25 33 32 25 26 34 33 26 27 36 35 28 29 37 36 29 30 38 37 30 31 39 38 31 32 40 39 32 33 41 40 33 34 43 42 35 36 44 43 36 37 45 44 37 38 46 45 38 39 47 46 39 40 48 47 40 41
        </DataArray>
        <DataArray type="Int32" Name="offsets" format="ascii">
          4 8 12 16 20 24 28 32 36 40 44 48 52 56 60 64 68 72 76 80 84 88 92 96 100 104 108 112 116 120 124 128 132 136 140 144
        </DataArray>
        <DataArray type="UInt8" Name="types" format="ascii">
          9 9 9 9 9 9 9 9 9 9 9 9 9 9 9 9 9 9 9 9 9 9 9 9 9 9 9 9 9 9 9 9 9 9 9 9
        </DataArray>
      </Cells>
    </Piece>
  </UnstructuredGrid>
</VTKFile>
